<svg xmlns="http://www.w3.org/2000/svg" viewBox="0 0 100 125" x="0px" y="0px"><title>Mesa de trabajo 5 copia</title><g><path d="M28.41,62.1h.9a1.25,1.25,0,0,0,1.25-1.25v-.9a1.25,1.25,0,0,0-1.25-1.25h-.9a1.25,1.25,0,0,0-1.25,1.25v.9A1.25,1.25,0,0,0,28.41,62.1Zm-.75-2.15a.75.75,0,0,1,.75-.75h.9a.75.75,0,0,1,.75.75v.9a.75.75,0,0,1-.75.75h-.9a.75.75,0,0,1-.75-.75Z"/><path d="M32.47,62.1h.9a1.25,1.25,0,0,0,1.25-1.25v-.9a1.25,1.25,0,0,0-1.25-1.25h-.9a1.25,1.25,0,0,0-1.25,1.25v.9A1.25,1.25,0,0,0,32.47,62.1Zm-.75-2.15a.75.75,0,0,1,.75-.75h.9a.75.75,0,0,1,.75.75v.9a.75.75,0,0,1-.75.75h-.9a.75.75,0,0,1-.75-.75Z"/><path d="M36.53,62.1h.9a1.25,1.25,0,0,0,1.25-1.25v-.9a1.25,1.25,0,0,0-1.25-1.25h-.9a1.25,1.25,0,0,0-1.25,1.25v.9A1.25,1.25,0,0,0,36.53,62.1Zm-.75-2.15a.75.75,0,0,1,.75-.75h.9a.75.75,0,0,1,.75.75v.9a.75.75,0,0,1-.75.75h-.9a.75.75,0,0,1-.75-.75Z"/><path d="M40.59,62.1h.9a1.25,1.25,0,0,0,1.25-1.25v-.9a1.25,1.25,0,0,0-1.25-1.25h-.9a1.25,1.25,0,0,0-1.25,1.25v.9A1.25,1.25,0,0,0,40.59,62.1Zm-.75-2.15a.75.75,0,0,1,.75-.75h.9a.75.75,0,0,1,.75.75v.9a.75.75,0,0,1-.75.75h-.9a.75.75,0,0,1-.75-.75Z"/><path d="M44.65,62.1h.9a1.25,1.25,0,0,0,1.25-1.25v-.9a1.25,1.25,0,0,0-1.25-1.25h-.9a1.25,1.25,0,0,0-1.25,1.25v.9A1.25,1.25,0,0,0,44.65,62.1Zm-.75-2.15a.75.75,0,0,1,.75-.75h.9a.75.75,0,0,1,.75.75v.9a.75.75,0,0,1-.75.75h-.9a.75.75,0,0,1-.75-.75Z"/><path d="M48.7,62.1h.9a1.25,1.25,0,0,0,1.25-1.25v-.9A1.25,1.25,0,0,0,49.6,58.7h-.9a1.25,1.25,0,0,0-1.25,1.25v.9A1.25,1.25,0,0,0,48.7,62.1ZM48,59.95a.75.75,0,0,1,.75-.75h.9a.75.75,0,0,1,.75.75v.9a.75.75,0,0,1-.75.75h-.9a.75.75,0,0,1-.75-.75Z"/><path d="M51.51,60.85a1.25,1.25,0,0,0,1.25,1.25h.9a1.25,1.25,0,0,0,1.25-1.25v-.9a1.25,1.25,0,0,0-1.25-1.25h-.9a1.25,1.25,0,0,0-1.25,1.25Zm.5-.9a.75.75,0,0,1,.75-.75h.9a.75.75,0,0,1,.75.75v.9a.75.75,0,0,1-.75.75h-.9a.75.75,0,0,1-.75-.75Z"/><path d="M56.82,62.1h.9A1.25,1.25,0,0,0,59,60.85v-.9a1.25,1.25,0,0,0-1.25-1.25h-.9a1.25,1.25,0,0,0-1.25,1.25v.9A1.25,1.25,0,0,0,56.82,62.1Zm-.75-2.15a.75.75,0,0,1,.75-.75h.9a.75.75,0,0,1,.75.75v.9a.75.75,0,0,1-.75.75h-.9a.75.75,0,0,1-.75-.75Z"/><path d="M60.88,62.1h.9A1.25,1.25,0,0,0,63,60.85v-.9a1.25,1.25,0,0,0-1.25-1.25h-.9a1.25,1.25,0,0,0-1.25,1.25v.9A1.25,1.25,0,0,0,60.88,62.1Zm-.75-2.15a.75.75,0,0,1,.75-.75h.9a.75.75,0,0,1,.75.75v.9a.75.75,0,0,1-.75.75h-.9a.75.75,0,0,1-.75-.75Z"/><path d="M64.93,62.1h.9a1.25,1.25,0,0,0,1.25-1.25v-.9a1.25,1.25,0,0,0-1.25-1.25h-.9a1.25,1.25,0,0,0-1.25,1.25v.9A1.25,1.25,0,0,0,64.93,62.1Zm-.75-2.15a.75.75,0,0,1,.75-.75h.9a.75.75,0,0,1,.75.75v.9a.75.75,0,0,1-.75.75h-.9a.75.75,0,0,1-.75-.75Z"/><path d="M69,62.1h.9a1.25,1.25,0,0,0,1.25-1.25v-.9a1.25,1.25,0,0,0-1.25-1.25H69a1.25,1.25,0,0,0-1.25,1.25v.9A1.25,1.25,0,0,0,69,62.1Zm-.75-2.15A.75.75,0,0,1,69,59.2h.9a.75.75,0,0,1,.75.75v.9a.75.75,0,0,1-.75.75H69a.75.75,0,0,1-.75-.75Z"/><path d="M73.05,62.1h.9a1.25,1.25,0,0,0,1.25-1.25v-.9a1.25,1.25,0,0,0-1.25-1.25h-.9a1.25,1.25,0,0,0-1.25,1.25v.9A1.25,1.25,0,0,0,73.05,62.1Zm-.75-2.15a.75.75,0,0,1,.75-.75h.9a.75.75,0,0,1,.75.75v.9a.75.75,0,0,1-.75.75h-.9a.75.75,0,0,1-.75-.75Z"/><path d="M27.29,66.39a1.25,1.25,0,0,0,1.25-1.25v-.9A1.25,1.25,0,0,0,27.29,63h-.9a1.25,1.25,0,0,0-1.25,1.25v.9a1.25,1.25,0,0,0,1.25,1.25Zm-1.65-1.25v-.9a.75.75,0,0,1,.75-.75h.9a.75.75,0,0,1,.75.75v.9a.75.75,0,0,1-.75.75h-.9A.75.75,0,0,1,25.64,65.14Z"/><path d="M31.34,63h-.9a1.25,1.25,0,0,0-1.25,1.25v.9a1.25,1.25,0,0,0,1.25,1.25h.9a1.25,1.25,0,0,0,1.25-1.25v-.9A1.25,1.25,0,0,0,31.34,63Zm.75,2.15a.75.75,0,0,1-.75.75h-.9a.75.75,0,0,1-.75-.75v-.9a.75.75,0,0,1,.75-.75h.9a.75.75,0,0,1,.75.75Z"/><path d="M35.4,66.39a1.25,1.25,0,0,0,1.25-1.25v-.9A1.25,1.25,0,0,0,35.4,63h-.9a1.25,1.25,0,0,0-1.25,1.25v.9a1.25,1.25,0,0,0,1.25,1.25Zm-1.65-1.25v-.9a.75.75,0,0,1,.75-.75h.9a.75.75,0,0,1,.75.75v.9a.75.75,0,0,1-.75.75h-.9A.75.75,0,0,1,33.75,65.14Z"/><path d="M38.56,66.39h.9a1.25,1.25,0,0,0,1.25-1.25v-.9A1.25,1.25,0,0,0,39.46,63h-.9a1.25,1.25,0,0,0-1.25,1.25v.9A1.25,1.25,0,0,0,38.56,66.39Zm-.75-2.15a.75.75,0,0,1,.75-.75h.9a.75.75,0,0,1,.75.75v.9a.75.75,0,0,1-.75.75h-.9a.75.75,0,0,1-.75-.75Z"/><path d="M42.62,66.39h.9a1.25,1.25,0,0,0,1.25-1.25v-.9A1.25,1.25,0,0,0,43.52,63h-.9a1.25,1.25,0,0,0-1.25,1.25v.9A1.25,1.25,0,0,0,42.62,66.39Zm-.75-2.15a.75.75,0,0,1,.75-.75h.9a.75.75,0,0,1,.75.75v.9a.75.75,0,0,1-.75.75h-.9a.75.75,0,0,1-.75-.75Z"/><path d="M46.67,66.39h.9a1.25,1.25,0,0,0,1.25-1.25v-.9A1.25,1.25,0,0,0,47.57,63h-.9a1.25,1.25,0,0,0-1.25,1.25v.9A1.25,1.25,0,0,0,46.67,66.39Zm-.75-2.15a.75.75,0,0,1,.75-.75h.9a.75.75,0,0,1,.75.75v.9a.75.75,0,0,1-.75.75h-.9a.75.75,0,0,1-.75-.75Z"/><path d="M51.63,63h-.9a1.25,1.25,0,0,0-1.25,1.25v.9a1.25,1.25,0,0,0,1.25,1.25h.9a1.25,1.25,0,0,0,1.25-1.25v-.9A1.25,1.25,0,0,0,51.63,63Zm.75,2.15a.75.75,0,0,1-.75.75h-.9a.75.75,0,0,1-.75-.75v-.9a.75.75,0,0,1,.75-.75h.9a.75.75,0,0,1,.75.75Z"/><path d="M55.69,63h-.9a1.25,1.25,0,0,0-1.25,1.25v.9a1.25,1.25,0,0,0,1.25,1.25h.9a1.25,1.25,0,0,0,1.25-1.25v-.9A1.25,1.25,0,0,0,55.69,63Zm.75,2.15a.75.75,0,0,1-.75.75h-.9a.75.75,0,0,1-.75-.75v-.9a.75.75,0,0,1,.75-.75h.9a.75.75,0,0,1,.75.75Z"/><path d="M59.75,63h-.9a1.25,1.25,0,0,0-1.25,1.25v.9a1.25,1.25,0,0,0,1.25,1.25h.9A1.25,1.25,0,0,0,61,65.14v-.9A1.25,1.25,0,0,0,59.75,63Zm.75,2.15a.75.75,0,0,1-.75.75h-.9a.75.75,0,0,1-.75-.75v-.9a.75.75,0,0,1,.75-.75h.9a.75.75,0,0,1,.75.75Z"/><path d="M63.81,63h-.9a1.25,1.25,0,0,0-1.25,1.25v.9a1.25,1.25,0,0,0,1.25,1.25h.9a1.25,1.25,0,0,0,1.25-1.25v-.9A1.25,1.25,0,0,0,63.81,63Zm.75,2.15a.75.75,0,0,1-.75.75h-.9a.75.75,0,0,1-.75-.75v-.9a.75.75,0,0,1,.75-.75h.9a.75.75,0,0,1,.75.75Z"/><path d="M67.86,63H67a1.25,1.25,0,0,0-1.25,1.25v.9A1.25,1.25,0,0,0,67,66.39h.9a1.25,1.25,0,0,0,1.25-1.25v-.9A1.25,1.25,0,0,0,67.86,63Zm.75,2.15a.75.75,0,0,1-.75.75H67a.75.75,0,0,1-.75-.75v-.9a.75.75,0,0,1,.75-.75h.9a.75.75,0,0,1,.75.75Z"/><path d="M71,66.39h.9a1.25,1.25,0,0,0,1.25-1.25v-.9A1.25,1.25,0,0,0,71.92,63H71a1.25,1.25,0,0,0-1.25,1.25v.9A1.25,1.25,0,0,0,71,66.39Zm-.75-2.15a.75.75,0,0,1,.75-.75h.9a.75.75,0,0,1,.75.75v.9a.75.75,0,0,1-.75.75H71a.75.75,0,0,1-.75-.75Z"/><path d="M73.67,64.24v.9a1.25,1.25,0,0,0,1.25,1.25h.9a1.25,1.25,0,0,0,1.25-1.25v-.9A1.25,1.25,0,0,0,75.82,63h-.9A1.25,1.25,0,0,0,73.67,64.24Zm2.9,0v.9a.75.75,0,0,1-.75.75h-.9a.75.75,0,0,1-.75-.75v-.9a.75.75,0,0,1,.75-.75h.9A.75.75,0,0,1,76.57,64.24Z"/><path d="M28,70.74a1.25,1.25,0,0,0,1.25-1.25v-.9A1.25,1.25,0,0,0,28,67.34h-.9a1.25,1.25,0,0,0-1.25,1.25v.9a1.25,1.25,0,0,0,1.25,1.25ZM26.3,69.49v-.9a.75.75,0,0,1,.75-.75H28a.75.75,0,0,1,.75.75v.9a.75.75,0,0,1-.75.75h-.9A.75.75,0,0,1,26.3,69.49Z"/><path d="M33.26,69.49v-.9A1.25,1.25,0,0,0,32,67.34h-.9a1.25,1.25,0,0,0-1.25,1.25v.9a1.25,1.25,0,0,0,1.25,1.25H32A1.25,1.25,0,0,0,33.26,69.49Zm-.5,0a.75.75,0,0,1-.75.75h-.9a.75.75,0,0,1-.75-.75v-.9a.75.75,0,0,1,.75-.75H32a.75.75,0,0,1,.75.75Z"/><path d="M35.17,70.74h.9a1.25,1.25,0,0,0,1.25-1.25v-.9a1.25,1.25,0,0,0-1.25-1.25h-.9a1.25,1.25,0,0,0-1.25,1.25v.9A1.25,1.25,0,0,0,35.17,70.74Zm-.75-2.15a.75.75,0,0,1,.75-.75h.9a.75.75,0,0,1,.75.75v.9a.75.75,0,0,1-.75.75h-.9a.75.75,0,0,1-.75-.75Z"/><path d="M41.37,69.49v-.9a1.25,1.25,0,0,0-1.25-1.25h-.9A1.25,1.25,0,0,0,38,68.59v.9a1.25,1.25,0,0,0,1.25,1.25h.9A1.25,1.25,0,0,0,41.37,69.49Zm-2.9,0v-.9a.75.75,0,0,1,.75-.75h.9a.75.75,0,0,1,.75.75v.9a.75.75,0,0,1-.75.75h-.9A.75.75,0,0,1,38.47,69.49Z"/><path d="M43.28,70.74h.9a1.25,1.25,0,0,0,1.25-1.25v-.9a1.25,1.25,0,0,0-1.25-1.25h-.9A1.25,1.25,0,0,0,42,68.59v.9A1.25,1.25,0,0,0,43.28,70.74Zm-.75-2.15a.75.75,0,0,1,.75-.75h.9a.75.75,0,0,1,.75.75v.9a.75.75,0,0,1-.75.75h-.9a.75.75,0,0,1-.75-.75Z"/><path d="M49.49,69.49v-.9a1.25,1.25,0,0,0-1.25-1.25h-.9a1.25,1.25,0,0,0-1.25,1.25v.9a1.25,1.25,0,0,0,1.25,1.25h.9A1.25,1.25,0,0,0,49.49,69.49Zm-2.9,0v-.9a.75.75,0,0,1,.75-.75h.9a.75.75,0,0,1,.75.75v.9a.75.75,0,0,1-.75.75h-.9A.75.75,0,0,1,46.59,69.49Z"/><path d="M52.3,67.34h-.9a1.25,1.25,0,0,0-1.25,1.25v.9a1.25,1.25,0,0,0,1.25,1.25h.9a1.25,1.25,0,0,0,1.25-1.25v-.9A1.25,1.25,0,0,0,52.3,67.34ZM53,69.49a.75.75,0,0,1-.75.75h-.9a.75.75,0,0,1-.75-.75v-.9a.75.75,0,0,1,.75-.75h.9a.75.75,0,0,1,.75.75Z"/><path d="M56.35,67.34h-.9a1.25,1.25,0,0,0-1.25,1.25v.9a1.25,1.25,0,0,0,1.25,1.25h.9a1.25,1.25,0,0,0,1.25-1.25v-.9A1.25,1.25,0,0,0,56.35,67.34Zm.75,2.15a.75.75,0,0,1-.75.75h-.9a.75.75,0,0,1-.75-.75v-.9a.75.75,0,0,1,.75-.75h.9a.75.75,0,0,1,.75.75Z"/><path d="M60.41,67.34h-.9a1.25,1.25,0,0,0-1.25,1.25v.9a1.25,1.25,0,0,0,1.25,1.25h.9a1.25,1.25,0,0,0,1.25-1.25v-.9A1.25,1.25,0,0,0,60.41,67.34Zm.75,2.15a.75.75,0,0,1-.75.75h-.9a.75.75,0,0,1-.75-.75v-.9a.75.75,0,0,1,.75-.75h.9a.75.75,0,0,1,.75.75Z"/><path d="M64.47,67.34h-.9a1.25,1.25,0,0,0-1.25,1.25v.9a1.25,1.25,0,0,0,1.25,1.25h.9a1.25,1.25,0,0,0,1.25-1.25v-.9A1.25,1.25,0,0,0,64.47,67.34Zm.75,2.15a.75.75,0,0,1-.75.75h-.9a.75.75,0,0,1-.75-.75v-.9a.75.75,0,0,1,.75-.75h.9a.75.75,0,0,1,.75.75Z"/><path d="M68.53,67.34h-.9a1.25,1.25,0,0,0-1.25,1.25v.9a1.25,1.25,0,0,0,1.25,1.25h.9a1.25,1.25,0,0,0,1.25-1.25v-.9A1.25,1.25,0,0,0,68.53,67.34Zm.75,2.15a.75.75,0,0,1-.75.75h-.9a.75.75,0,0,1-.75-.75v-.9a.75.75,0,0,1,.75-.75h.9a.75.75,0,0,1,.75.75Z"/><path d="M72.59,67.34h-.9a1.25,1.25,0,0,0-1.25,1.25v.9a1.25,1.25,0,0,0,1.25,1.25h.9a1.25,1.25,0,0,0,1.25-1.25v-.9A1.25,1.25,0,0,0,72.59,67.34Zm.75,2.15a.75.75,0,0,1-.75.75h-.9a.75.75,0,0,1-.75-.75v-.9a.75.75,0,0,1,.75-.75h.9a.75.75,0,0,1,.75.75Z"/><path d="M75.59,67.34a1.25,1.25,0,0,0-1.25,1.25v.9a1.25,1.25,0,0,0,1.25,1.25h.9a1.25,1.25,0,0,0,1.25-1.25v-.9a1.25,1.25,0,0,0-1.25-1.25Zm1.65,1.25v.9a.75.75,0,0,1-.75.75h-.9a.75.75,0,0,1-.75-.75v-.9a.75.75,0,0,1,.75-.75h.9A.75.75,0,0,1,77.24,68.59Z"/><path d="M33.64,75.09h.9a1.25,1.25,0,0,0,1.25-1.25v-.9a1.25,1.25,0,0,0-1.25-1.25h-.9a1.25,1.25,0,0,0-1.25,1.25v.9A1.25,1.25,0,0,0,33.64,75.09Zm-.75-2.15a.75.75,0,0,1,.75-.75h.9a.75.75,0,0,1,.75.75v.9a.75.75,0,0,1-.75.75h-.9a.75.75,0,0,1-.75-.75Z"/><path d="M37.69,75.09h.9a1.25,1.25,0,0,0,1.25-1.25v-.9a1.25,1.25,0,0,0-1.25-1.25h-.9a1.25,1.25,0,0,0-1.25,1.25v.9A1.25,1.25,0,0,0,37.69,75.09Zm-.75-2.15a.75.75,0,0,1,.75-.75h.9a.75.75,0,0,1,.75.75v.9a.75.75,0,0,1-.75.75h-.9a.75.75,0,0,1-.75-.75Z"/><path d="M42.65,75.09a1.25,1.25,0,0,0,1.25-1.25v-.9a1.25,1.25,0,0,0-1.25-1.25h-.9a1.25,1.25,0,0,0-1.25,1.25v.9a1.25,1.25,0,0,0,1.25,1.25ZM41,73.84v-.9a.75.75,0,0,1,.75-.75h.9a.75.75,0,0,1,.75.75v.9a.75.75,0,0,1-.75.75h-.9A.75.75,0,0,1,41,73.84Z"/><path d="M45.81,75.09h.9A1.25,1.25,0,0,0,48,73.84v-.9a1.25,1.25,0,0,0-1.25-1.25h-.9a1.25,1.25,0,0,0-1.25,1.25v.9A1.25,1.25,0,0,0,45.81,75.09Zm-.75-2.15a.75.75,0,0,1,.75-.75h.9a.75.75,0,0,1,.75.75v.9a.75.75,0,0,1-.75.75h-.9a.75.75,0,0,1-.75-.75Z"/><path d="M49.87,75.09h.9A1.25,1.25,0,0,0,52,73.84v-.9a1.25,1.25,0,0,0-1.25-1.25h-.9a1.25,1.25,0,0,0-1.25,1.25v.9A1.25,1.25,0,0,0,49.87,75.09Zm-.75-2.15a.75.75,0,0,1,.75-.75h.9a.75.75,0,0,1,.75.75v.9a.75.75,0,0,1-.75.75h-.9a.75.75,0,0,1-.75-.75Z"/><path d="M53.93,71.69a1.25,1.25,0,0,0-1.25,1.25v.9a1.25,1.25,0,0,0,1.25,1.25h.9a1.25,1.25,0,0,0,1.25-1.25v-.9a1.25,1.25,0,0,0-1.25-1.25Zm1.65,1.25v.9a.75.75,0,0,1-.75.75h-.9a.75.75,0,0,1-.75-.75v-.9a.75.75,0,0,1,.75-.75h.9A.75.75,0,0,1,55.58,72.94Z"/><path d="M58,71.69a1.25,1.25,0,0,0-1.25,1.25v.9A1.25,1.25,0,0,0,58,75.09h.9a1.25,1.25,0,0,0,1.25-1.25v-.9a1.25,1.25,0,0,0-1.25-1.25Zm1.65,1.25v.9a.75.75,0,0,1-.75.75H58a.75.75,0,0,1-.75-.75v-.9a.75.75,0,0,1,.75-.75h.9A.75.75,0,0,1,59.63,72.94Z"/><path d="M62,71.69a1.25,1.25,0,0,0-1.25,1.25v.9A1.25,1.25,0,0,0,62,75.09h.9a1.25,1.25,0,0,0,1.25-1.25v-.9a1.25,1.25,0,0,0-1.25-1.25Zm1.65,1.25v.9a.75.75,0,0,1-.75.75H62a.75.75,0,0,1-.75-.75v-.9a.75.75,0,0,1,.75-.75h.9A.75.75,0,0,1,63.69,72.94Z"/><path d="M66.1,71.69a1.25,1.25,0,0,0-1.25,1.25v.9a1.25,1.25,0,0,0,1.25,1.25H67a1.25,1.25,0,0,0,1.25-1.25v-.9A1.25,1.25,0,0,0,67,71.69Zm1.65,1.25v.9a.75.75,0,0,1-.75.75h-.9a.75.75,0,0,1-.75-.75v-.9a.75.75,0,0,1,.75-.75H67A.75.75,0,0,1,67.75,72.94Z"/><path d="M71.06,71.69h-.9a1.25,1.25,0,0,0-1.25,1.25v.9a1.25,1.25,0,0,0,1.25,1.25h.9a1.25,1.25,0,0,0,1.25-1.25v-.9A1.25,1.25,0,0,0,71.06,71.69Zm.75,2.15a.75.75,0,0,1-.75.75h-.9a.75.75,0,0,1-.75-.75v-.9a.75.75,0,0,1,.75-.75h.9a.75.75,0,0,1,.75.75Z"/><path d="M29.62,72.43h-2a1.25,1.25,0,0,0-1.25,1.25v.9a1.25,1.25,0,0,0,1.25,1.25h2a1.25,1.25,0,0,0,1.25-1.25v-.9A1.25,1.25,0,0,0,29.62,72.43Zm.75,2.15a.75.75,0,0,1-.75.75h-2a.75.75,0,0,1-.75-.75v-.9a.75.75,0,0,1,.75-.75h2a.75.75,0,0,1,.75.75Z"/><path d="M39,76.22H33.92a1.25,1.25,0,0,0-1.25,1.25v.9a1.25,1.25,0,0,0,1.25,1.25H39a1.25,1.25,0,0,0,1.25-1.25v-.9A1.25,1.25,0,0,0,39,76.22Zm.75,2.15a.75.75,0,0,1-.75.75H33.92a.75.75,0,0,1-.75-.75v-.9a.75.75,0,0,1,.75-.75H39a.75.75,0,0,1,.75.75Z"/><path d="M69,76.22H42.45a1.25,1.25,0,0,0-1.25,1.25v.9a1.25,1.25,0,0,0,1.25,1.25H69a1.25,1.25,0,0,0,1.25-1.25v-.9A1.25,1.25,0,0,0,69,76.22Zm.75,2.15a.75.75,0,0,1-.75.75H42.45a.75.75,0,0,1-.75-.75v-.9a.75.75,0,0,1,.75-.75H69a.75.75,0,0,1,.75.75Z"/><path d="M91.17,24.34h-.83a1.38,1.38,0,0,0-1.33,1l-1.07,0c-.41-2.74-1.26-8.51-1.45-9.64-.26-1.55-2.24-1.72-3.38-1.58l-.77.06H20.9l-.77-.06C19,14,17,14.2,16.76,15.75c0,.27-.13.81-.24,1.51l-1.08,0,.44-1.89,0-.09c-.13-.46-.73-.55-1.78-.26l-.21.06L7.72,39.34c-.53,2.52,0,2.76.15,2.85a.53.53,0,0,0,.23.05c.35,0,.64-.35.77-.5l.06-.09c1.3-3.08,3.69-12.58,5.5-20.14l1.45.08c-.4,2.67-.78,5.22-.78,5.28,0,.41-.45,4.06.8,5.47a1.67,1.67,0,0,0,1.28.59,2.6,2.6,0,0,0,.82-.13,160.93,160.93,0,0,0-.18,16.47h0l1.35,30.42c.17,1.93,1.5,5.58,5.39,5.58H78.68c3.88,0,5.22-3.65,5.39-5.6l1.35-30.35a160.1,160.1,0,0,0-.18-16.52,2.58,2.58,0,0,0,.84.14,1.67,1.67,0,0,0,1.28-.59,3.88,3.88,0,0,0,.76-1.92H89a1.38,1.38,0,0,0,1.32,1h.83a1.38,1.38,0,0,0,1.38-1.37V25.72A1.38,1.38,0,0,0,91.17,24.34ZM84.42,49.21h0v.29c-.11,2-.28,4.06-.53,5.92s-3.64,1.5-3.72,1.5l-28.54.14L23,56.92s-3.39.24-3.68-1.49C18,46,19,32.48,19,32.35c.15-2,2.66-2.34,2.7-2.35H46.78L35.58,39.35A1.75,1.75,0,0,0,34.82,41c.23,1.86,3.48,3.83,9.66,5.87a23.66,23.66,0,0,0,14.28,0c6.18-2,9.43-4,9.66-5.87a1.73,1.73,0,0,0-.73-1.61h0L56.44,30h25c.11,0,2.62.36,2.76,2.35A159.5,159.5,0,0,1,84.42,49.21Zm-6,27.12a1.51,1.51,0,0,1-.47,1.19,2.75,2.75,0,0,1-1.88.42H73.28a2.21,2.21,0,0,0-1.5.5,1.91,1.91,0,0,0-.61,1.37c0,.73-.11.91-.15.94a2.51,2.51,0,0,1-.7.06l-.6,0c-1.55.08-17.94,0-18.11,0s-16.56.08-18.11,0l-.6,0a2.52,2.52,0,0,1-.7-.06s-.11-.21-.15-.94a1.91,1.91,0,0,0-.61-1.37,2.21,2.21,0,0,0-1.47-.5H27.1a2.68,2.68,0,0,1-1.82-.43,1.52,1.52,0,0,1-.47-1.2c-.29-8-.08-16.32,0-18.39l26.82.13h0l26.82-.14C78.49,60,78.7,68.35,78.42,76.33ZM55.28,30l12,10a1,1,0,0,1,.43.91c-.11.87-1.44,2.71-9.15,5.25a22.92,22.92,0,0,1-13.81,0c-7.69-2.54-9-4.38-9.15-5.24A1,1,0,0,1,36,40L47.95,30ZM81.5,29H21.66a5.19,5.19,0,0,0-2.1.78v-.07A15.78,15.78,0,0,0,19.86,28v-.12H83.37V28a15.75,15.75,0,0,0,.29,1.72l0,.09A5.29,5.29,0,0,0,81.5,29ZM20,27.13l.7-6.06H82.59l.7,6.06Zm.78-6.81L20.89,19H82.35l.15,1.27Zm61.52-2H21l.35-3.06H81.92ZM13.84,20.72l-.07.3C12,28.56,9.56,38.17,8.26,41.3l0,0a8.92,8.92,0,0,1,.21-1.82l6-23.86a3.78,3.78,0,0,1,.58-.08l-.55,2.37,1.91.08L16,20.83Zm3.33,11.2a.67.67,0,0,1-.53-.25c-.81-.91-.67-3.7-.56-4.68,0-.1,1.42-9.6,1.67-11.07.11-.67,1.13-.78,1.77-.78.29,0,.5,0,.51,0l.31,0L18.87,27.88a14.74,14.74,0,0,1-.27,1.61c-.06.26-.1.5-.14.74a7.35,7.35,0,0,1-.24,1.07C18.13,31.59,17.93,31.92,17.17,31.92ZM83.07,79.58c0,.19-.46,4.67-4.39,4.67H24.54c-3.93,0-4.37-4.48-4.39-4.65L19.15,57c1.33,1.15,3.82,1,3.92.95h.72c-.06,2.11-.27,10.47,0,18.42a2.48,2.48,0,0,0,.82,1.93,3.6,3.6,0,0,0,2.53.66H30a.93.93,0,0,1,1.06.92c.09,1.67.47,1.92,1.82,2l.57,0c1.58.08,17.49,0,18.16,0,.45,0,7.48,0,12.7,0,2.71,0,4.93,0,5.47,0l.57,0c1.34,0,1.72-.28,1.82-2a.93.93,0,0,1,1.08-.92H76a3.67,3.67,0,0,0,2.6-.66,2.47,2.47,0,0,0,.82-1.92c.29-8,.08-16.32,0-18.43h.68c.13,0,2.63.2,4-1Zm3.54-47.91a.67.67,0,0,1-.53.25c-.76,0-1-.33-1.05-.61a7.44,7.44,0,0,1-.24-1.07c0-.24-.08-.48-.14-.74a14.77,14.77,0,0,1-.27-1.61L82.92,15.19l.31,0s2.12-.22,2.28.75c.25,1.48,1.65,11,1.66,11.06C87.28,28,87.42,30.76,86.61,31.67Zm5.18-1.62a.63.63,0,0,1-.62.63h-.83a.63.63,0,0,1-.62-.62v-.37l-1.49,0a15.3,15.3,0,0,0-.06-2.82l-.1-.7,1.66-.06v-.36a.63.63,0,0,1,.63-.62h.83a.63.63,0,0,1,.63.63Z"/></g><text x="0" y="115" fill="#000000" font-size="5px" font-weight="bold" font-family="'Helvetica Neue', Helvetica, Arial-Unicode, Arial, Sans-serif">Created by Borja santos Lobo</text><text x="0" y="120" fill="#000000" font-size="5px" font-weight="bold" font-family="'Helvetica Neue', Helvetica, Arial-Unicode, Arial, Sans-serif">from the Noun Project</text></svg>