<svg xmlns="http://www.w3.org/2000/svg" version="1.1" viewBox="-5.0 -10.0 110.0 135.0">
 <path d="m49.168 91.707c-1.1992-0.25781-1.8633-1.0469-2.2852-2.7266-0.36719-1.4688-0.11719-4.1289 0.76172-8.1289 0.35938-1.6445 0.55469-2.2617 0.78516-2.5195 0.14453-0.16016 0.13281-0.19141-0.16016-0.46484l-0.31641-0.29297 0.066406-1.1953c0.074219-1.3828 0.23047-1.207-1.2266-1.3906-1.1289-0.14453-3.9062-0.85156-5.6484-1.4414-1.8984-0.64062-3.6562-1.4531-5.3242-2.4531l-1.3906-0.83594-0.83594 0.78125c-0.94922 0.89063-1.6055 1.3555-1.9102 1.3555-0.11719 0-0.39062-0.12891-0.60938-0.28906-0.21875-0.15625-0.41406-0.28906-0.43359-0.28906s-0.058594 0.19141-0.085937 0.42969c-0.10547 0.92578-1.4219 3.1523-2.9336 4.9531-2.1445 2.5586-5.375 5.1055-6.8203 5.3789-0.9375 0.17578-1.8359-0.17578-2.6367-1.0312-0.89062-0.95312-1.1172-1.7812-0.72656-2.6367 0.48438-1.0625 1.6133-2.4805 3.3906-4.2617 3.0117-3.0234 5.4766-4.8086 6.9141-5.0039l0.42187-0.058593-0.27734-0.44141c-0.34766-0.54688-0.34766-0.73438-0.003907-1.2734 0.26953-0.42188 1.293-1.4492 1.918-1.9297l0.32031-0.24219-0.61328-0.8125c-2.2148-2.9375-3.9531-6.8789-4.6797-10.609-0.11328-0.58203-0.22656-1.1484-0.25-1.2578-0.039063-0.19531-0.082031-0.19922-1.4141-0.16016-1.2695 0.039063-1.3945 0.027344-1.6914-0.16016-0.1875-0.11719-0.38281-0.35547-0.46484-0.57031l-0.14453-0.36719-0.39844 0.21875c-1.3008 0.71875-8.2852 1.3477-11.305 1.0156-1.8789-0.20703-3.4648-0.82031-3.8594-1.5-0.38672-0.66016-0.40234-2.2227-0.03125-2.9375 0.26562-0.51172 1.4258-1.125 2.6406-1.3906 0.97266-0.21484 4.9883-0.30078 6.7422-0.14844 3.2227 0.28125 5.4336 0.67578 5.9609 1.0625l0.25781 0.1875 0.10547-0.32031c0.058594-0.17578 0.21484-0.42578 0.35156-0.55078 0.23828-0.22266 0.29688-0.23047 1.7266-0.23047 0.8125 0 1.4805-0.007813 1.4805-0.019531 0-0.20703 0.65234-3.0469 0.86719-3.7695 0.89453-3.0117 2.6328-6.4883 4.2305-8.457l0.5-0.61719-0.42187-0.33594c-0.71094-0.57031-1.8633-1.7852-1.9961-2.1094-0.14844-0.36328-0.097656-0.63672 0.21875-1.0977l0.23438-0.34375-0.38281-0.0625c-1.3633-0.21875-3.4258-1.6328-6.2305-4.2773-2.5469-2.3984-4.3242-4.7891-4.3242-5.8086 0-0.8125 1.1094-2.2344 2.0898-2.6836 0.67578-0.30859 1.5469-0.28125 2.2344 0.070312 3.1133 1.582 7.0156 5.6094 8.5625 8.832 0.21484 0.44141 0.41406 1.0078 0.45312 1.2578l0.066407 0.44922 0.38281-0.29297c0.21094-0.16016 0.50781-0.29297 0.65625-0.29297 0.35547-0.003906 0.98438 0.4375 1.957 1.3711l0.78516 0.75391 1.1055-0.67578c2.6445-1.6172 5.0039-2.5742 8.668-3.5156 1.3594-0.35156 3.3125-0.72266 3.7812-0.72266 0.082032 0 0.09375-0.30859 0.046875-1.1953l-0.066406-1.1953 0.57812-0.57813-0.27344-0.55859c-0.30859-0.625-0.76953-2.6523-1.2344-5.4102-0.48828-2.9062-0.40625-4.6523 0.28906-6.1133 0.33203-0.69531 0.89844-1.2344 1.4805-1.4062 0.21484-0.066406 0.75781-0.11719 1.207-0.11719s0.99219 0.054687 1.207 0.11719c0.58203 0.17578 1.1484 0.71484 1.4805 1.4062 0.69531 1.4609 0.77734 3.207 0.28906 6.1133-0.46484 2.7578-0.92578 4.7852-1.2344 5.4102l-0.27344 0.55859 0.57812 0.57813-0.066406 1.1953c-0.050781 0.88672-0.035157 1.1953 0.046875 1.1953 0.46875 0 2.4219 0.37109 3.7812 0.72266 3.6641 0.94141 6.0234 1.8984 8.668 3.5156l1.1055 0.67578 0.78516-0.75391c0.97266-0.93359 1.6016-1.375 1.957-1.3711 0.14844 0 0.44141 0.13281 0.65625 0.29297l0.38281 0.29297 0.066407-0.44922c0.035156-0.24609 0.23828-0.8125 0.45312-1.2578 1.5469-3.2227 5.4492-7.25 8.5625-8.832 0.69141-0.35156 1.5586-0.37891 2.2344-0.070312 0.98047 0.44531 2.0898 1.8711 2.0898 2.6836 0 1.0234-1.7773 3.4102-4.3242 5.8086-2.8047 2.6445-4.8633 4.0586-6.2305 4.2773l-0.38281 0.0625 0.23438 0.34375c0.31641 0.46484 0.36719 0.73438 0.21875 1.0977-0.13281 0.32422-1.2852 1.5391-1.9961 2.1094l-0.42187 0.33594 0.49609 0.61719c0.27344 0.33984 0.77344 1.0508 1.1055 1.582 1.9844 3.1484 3.0625 5.9609 3.8906 10.133l0.10547 0.52734h1.4805c1.4297 0 1.4883 0.007813 1.7266 0.23047 0.13672 0.12891 0.29297 0.375 0.35156 0.55078l0.10547 0.32031 0.25781-0.1875c0.52734-0.38672 2.7383-0.78125 5.9609-1.0625 1.7578-0.15234 5.7695-0.066406 6.7422 0.14844 1.2148 0.26563 2.375 0.87891 2.6406 1.3906 0.37109 0.71484 0.35156 2.2734-0.03125 2.9375-0.39453 0.67969-1.9805 1.293-3.8594 1.5-3.0195 0.33203-10.008-0.29688-11.305-1.0156l-0.39844-0.21875-0.14453 0.36719c-0.085938 0.21484-0.27734 0.45312-0.46484 0.57031-0.29688 0.1875-0.42188 0.19922-1.6914 0.16016-1.332-0.039063-1.3711-0.035157-1.4141 0.16016-0.023437 0.10938-0.13672 0.67969-0.25 1.2578-0.72656 3.7305-2.4648 7.6719-4.6797 10.609l-0.61328 0.8125 0.32031 0.24219c0.625 0.47656 1.6484 1.5078 1.918 1.9297 0.34375 0.53516 0.34375 0.72266-0.003907 1.2734l-0.27734 0.44141 0.42187 0.058594c1.4375 0.19531 3.9023 1.9805 6.9141 5.0039 1.7773 1.7852 2.9023 3.2031 3.3906 4.2617 0.39062 0.85547 0.16016 1.6836-0.72656 2.6367-0.79688 0.85156-1.6992 1.207-2.6328 1.0312-1.4453-0.26953-4.6797-2.8203-6.8242-5.3789-1.5117-1.8008-2.8281-4.0273-2.9336-4.9531-0.027343-0.23438-0.066406-0.42969-0.085937-0.42969s-0.21484 0.12891-0.43359 0.28906c-0.21875 0.16016-0.49219 0.28906-0.60938 0.28906-0.30469 0-0.96094-0.46484-1.9102-1.3555l-0.83594-0.78125-1.3906 0.83594c-1.668 1.0039-3.4258 1.8125-5.3242 2.4531-1.7422 0.58984-4.5195 1.2969-5.6484 1.4414-1.4531 0.18359-1.3008 0.011719-1.2266 1.3906l0.066406 1.1953-0.31641 0.29297c-0.29297 0.27344-0.30469 0.30469-0.16016 0.46484 0.23438 0.25781 0.42578 0.87109 0.78516 2.5195 1.2383 5.6367 1.2266 8.2422-0.046875 9.9766-0.41016 0.55859-1.0859 0.86719-2.0312 0.92578-0.39062 0.023438-0.89062 0.007812-1.1133-0.039062zm2.375-0.77734c0.46484-0.36719 0.90625-1.2461 1.1094-2.2031 0.30859-1.4648-0.015625-4.4375-0.92188-8.3789-0.4375-1.9023-0.5625-2.0508-1.7344-2.043-1.1836 0.011718-1.2969 0.14453-1.7344 2.043-0.90234 3.9414-1.2305 6.9141-0.92188 8.3789 0.30078 1.4219 1.0078 2.4219 1.793 2.5312 0.18359 0.023438 0.71484 0.027344 1.1836 0.007813 0.77344-0.035156 0.88281-0.066406 1.2227-0.33203zm-30.156-9.0898c2.2969-1.1641 5.6445-4.3789 7.3945-7.0977 0.57812-0.89844 1.1914-2.1367 1.3281-2.6797 0.10156-0.40625 0.09375-0.47266-0.14453-0.87109-0.14062-0.23828-0.45703-0.58984-0.70703-0.78125-0.44141-0.33984-0.46875-0.34766-1.0781-0.28906-1.207 0.11719-2.8203 1.0508-4.6602 2.6953-3.0781 2.75-5.1367 5.0625-5.6875 6.3789-0.21094 0.50391 0.035157 1.207 0.66016 1.8906 0.92969 1.0156 1.8867 1.2656 2.8945 0.75781zm59.16 0.019531c0.66797-0.33984 1.418-1.1953 1.6016-1.832 0.12891-0.44531 0.13281-0.55469 0.015624-0.83594-0.55078-1.3164-2.6133-3.625-5.6875-6.3789-1.8398-1.6445-3.4531-2.5781-4.6602-2.6953-0.60938-0.058594-0.63672-0.050782-1.0781 0.28906-0.25 0.19141-0.56641 0.54297-0.70703 0.78125-0.23438 0.40234-0.24609 0.46484-0.14453 0.87109 0.13672 0.53906 0.75 1.7773 1.3281 2.6797 1.7266 2.6875 4.8828 5.7383 7.2773 7.0352 0.73828 0.39844 1.3789 0.42578 2.0547 0.082031zm-29.426-4.1328c0.16797-0.089843 0.33594-0.24219 0.36719-0.34375 0.03125-0.10156 0.011719-0.60156-0.042969-1.1094-0.058593-0.50781-0.078124-0.96484-0.046874-1.0117 0.03125-0.054688-0.53125-0.089844-1.3984-0.089844s-1.4297 0.035156-1.3984 0.089844c0.03125 0.050781 0.007813 0.50391-0.046874 1.0117-0.054688 0.50781-0.074219 1.0078-0.042969 1.1133s0.23438 0.26953 0.44922 0.36719c0.49219 0.22656 1.7031 0.21094 2.1641-0.027344zm-1.7969-0.10156c-0.31641-0.12109-0.27734-0.12891 0.67188-0.12891 0.94922 0 0.98828 0.007812 0.67188 0.12891-0.18359 0.070312-0.48828 0.12891-0.67188 0.12891s-0.48828-0.058594-0.67188-0.12891zm3.707-3.2227c1.6992-0.25781 3.6523-0.74609 5.5586-1.3828 3.6641-1.2266 5.7422-2.5117 8.6445-5.3398 4.1211-4.0117 6.6445-8.9023 7.6602-14.852 0.69531-4.0664-0.27734-9.1133-2.6562-13.793-1.3164-2.5859-2.7383-4.5078-4.9609-6.6836-1.5352-1.5078-2.4531-2.2656-3.8789-3.207-2.1914-1.4492-6.1523-2.8477-9.9961-3.5273-1.2461-0.22266-1.7031-0.25391-3.4102-0.25391-1.707 0-2.1641 0.035157-3.4102 0.25391-3.8438 0.67969-7.8008 2.0781-9.9961 3.5273-1.4219 0.94141-2.3438 1.6992-3.8789 3.207-2.2227 2.1797-3.6445 4.0977-4.9609 6.6836-2.3789 4.6758-3.3516 9.7266-2.6562 13.793 1.0195 5.9453 3.5391 10.84 7.6602 14.852 2.1133 2.0586 4.0078 3.4297 5.9453 4.3008 2.2422 1.0117 5.6445 2.0156 8.168 2.4141 1.6719 0.26562 4.4414 0.26562 6.1562 0.003907zm-5.168-0.76953c-1.5273-0.24219-3.1484-0.61328-3.6602-0.83984l-0.42188-0.1875 0.082031-0.61328c0.11719-0.89063 0.17969-1.1406 0.28516-1.1406 0.050781 0 0.70703 0.074219 1.457 0.16406 1.0117 0.12109 2.1484 0.16016 4.3945 0.16016 2.2422 0 3.3789-0.042969 4.3945-0.16016 0.75-0.089844 1.4062-0.16406 1.457-0.16406 0.10547 0 0.16797 0.25391 0.28516 1.1406l0.082031 0.61328-0.42188 0.1875c-0.99219 0.4375-4.4453 1.043-5.8906 1.0273-0.50391-0.003906-1.4219-0.089843-2.0391-0.1875zm5.3555-0.61719c0.79297-0.14062 1.7227-0.30859 2.0703-0.37109l0.62891-0.11328-0.066407-0.38672c-0.039062-0.21094-0.09375-0.54297-0.12891-0.73828l-0.058594-0.35547-0.35547 0.125c-0.89844 0.3125-1.9766 0.39453-5.3047 0.39453s-4.4062-0.078124-5.3047-0.39453l-0.35547-0.125-0.058594 0.35547c-0.03125 0.19531-0.09375 0.53906-0.13672 0.76172-0.074219 0.38281-0.0625 0.41016 0.13672 0.41016 0.11719 0 0.64453 0.085937 1.1719 0.19531 3.1914 0.65234 5.1289 0.71094 7.7656 0.23828zm-12.453-0.66797c-0.51953-0.21875-1.4336-0.71484-1.4336-0.78125 0-0.03125 2.0195 0.91016 2.1055 0.98047 0.10938 0.089844-0.19141 0.003906-0.67578-0.19922zm17.789 0.21094c0.027343-0.023438 0.52344-0.26953 1.1055-0.53906 0.58203-0.27344 0.97266-0.42578 0.86328-0.34375-0.33203 0.26172-2.1953 1.0977-1.9688 0.88672zm-9.9453-2.1953c-2.6094-0.17188-5.3086-0.95312-8.0117-2.3242-2.8242-1.4336-3.7461-2.125-5.3555-4.0156-2.6289-3.0938-3.9766-5.3047-4.6562-7.6367-0.88672-3.043-1.0078-3.8359-0.99609-6.4844 0.011718-2.3438 0.17188-3.5 0.76953-5.5273 0.80469-2.7266 1.4648-4.0312 3.2305-6.375 1.7891-2.3789 3.1055-3.7461 4.457-4.6406 1.3203-0.875 4.2617-2.3086 5.6914-2.7734 2.5078-0.81641 5.1953-1.1562 7.6367-0.96484 2.8398 0.22266 5.0859 0.85938 7.8555 2.2305 3.3906 1.6758 4.5938 2.707 7.1875 6.1523 1.7656 2.3438 2.4258 3.6484 3.2305 6.375 0.59766 2.0273 0.75781 3.1797 0.76953 5.5273 0.011719 2.6523-0.10938 3.4453-0.99609 6.4844-0.67969 2.3359-2.0273 4.5469-4.6562 7.6367-1.6055 1.8906-2.5273 2.582-5.3555 4.0156-3.6094 1.832-7.0352 2.5703-10.797 2.3242zm2.7617-0.53516 0.35938-0.058594v-3.8047l-3.4609-0.003906v3.8203l0.26562 0.039062c0.4375 0.066407 2.4492 0.070313 2.8359 0.007813zm-3.4844-2.1094c0-1.8984 0.007812-1.9805 0.19141-2.0273s0.19141-0.13281 0.19141-2.0586c0-1.7188-0.019531-2.0195-0.14844-2.0664-0.24609-0.09375-0.42969-0.57031-0.42969-1.1289 0-0.44141 0.035156-0.55469 0.23047-0.70703 0.22656-0.17969 0.23047-0.1875 0.26953-2.5781l0.039063-2.3984-0.48828 0.48047c-0.26953 0.26562-1.0781 1.0547-1.8008 1.7578-0.72266 0.70312-1.2969 1.332-1.2695 1.3984 0.050781 0.12891-1.2148 1.4062-1.3867 1.4062-0.054687 0-0.69922 0.60156-1.4258 1.3359-1.2344 1.2461-1.3164 1.3516-1.2109 1.5547 0.097656 0.19141 0.074218 0.26953-0.1875 0.60938-0.47656 0.61328-1.7539 2.0977-2.0312 2.3516-0.13672 0.12891-0.25 0.28906-0.25 0.35547 0 0.10547 0.31641 0.34766 0.48047 0.37109 0.027344 0.003906 0.24219 0.13281 0.48047 0.28516 0.78906 0.50781 2.918 1.5664 3.8477 1.9102 1.4727 0.54688 3.707 1.0938 4.5352 1.1094l0.35937 0.007812v-1.9805zm5.5859 1.8281c1.1641-0.21875 2.4805-0.57812 3.5352-0.96875 0.93359-0.34766 3.0625-1.4023 3.8516-1.9102 0.23828-0.15234 0.45312-0.28125 0.48047-0.28516 0.16406-0.023437 0.48047-0.26562 0.48047-0.37109 0-0.066407-0.11328-0.23047-0.25-0.35547-0.27734-0.25781-1.5547-1.7383-2.0312-2.3516-0.26172-0.33984-0.28516-0.41797-0.1875-0.60938 0.10547-0.20312 0.023438-0.30859-1.2109-1.5547-0.73047-0.73438-1.3711-1.3359-1.4258-1.3359-0.17578 0-1.4375-1.2812-1.3867-1.4062 0.023437-0.066407-0.54688-0.69531-1.2695-1.3984s-1.5352-1.4922-1.8008-1.7578l-0.48828-0.48047 0.039063 2.3984c0.039062 2.3906 0.039062 2.3984 0.26953 2.5781 0.19141 0.15234 0.23047 0.26562 0.23047 0.70703 0 0.55469-0.17969 1.0312-0.42969 1.1289-0.12891 0.050781-0.14844 0.34766-0.14844 2.0664 0 1.9297 0.007812 2.0117 0.19141 2.0586s0.19141 0.13281 0.19141 2.0273v1.9805h0.27734c0.15234 0 0.64062-0.066406 1.082-0.15234zm-14.895-4.7266c0.45703-0.51562 1.0312-1.1797 1.2773-1.4805l0.44531-0.54297-0.54297-0.51562c-0.29687-0.28125-0.57422-0.52734-0.61719-0.54297s-0.5-0.5-1.0156-1.0781l-0.9375-1.0508-0.86328 0.78906c-0.47266 0.43359-1.1055 1.0117-1.3984 1.2773l-0.53516 0.48828 0.42969 0.51953c0.52734 0.63672 2.5898 2.8984 2.7305 2.9922 0.058594 0.039063 0.125 0.070313 0.15234 0.070313s0.42188-0.42188 0.87891-0.9375zm23.871 0.86328c0.14062-0.097656 2.1992-2.3555 2.7305-2.9922l0.42969-0.51953-0.53516-0.48828c-0.29688-0.26953-0.92578-0.84375-1.3984-1.2773l-0.86328-0.78906-0.9375 1.0508c-0.51562 0.57812-0.97266 1.0625-1.0156 1.0781s-0.32031 0.25781-0.61719 0.54297l-0.54297 0.51563 0.44531 0.54297c0.67969 0.82812 2.0977 2.418 2.1562 2.4141 0.027344 0 0.097657-0.03125 0.15234-0.070313zm-11.105-0.70312c0-0.34766-0.027344-1.2148-0.0625-1.9219l-0.0625-1.2891h-2.4453l-0.0625 1.2891c-0.035157 0.70703-0.0625 1.5742-0.0625 1.9219v0.63281h2.6914v-0.63281zm-10.566-3.1406c0.17969-0.25 0.73438-0.87891 1.2305-1.3906l0.90625-0.9375-2.3438-2.2734-2.5703 2.7031 1.1719 1.1758c0.64453 0.64844 1.1953 1.1797 1.2266 1.1797s0.20312-0.20703 0.38281-0.45703zm20.055-0.72266 1.1719-1.1758-2.5703-2.7031-2.3438 2.2734 0.90625 0.9375c0.49609 0.51562 1.0508 1.1406 1.2305 1.3906 0.17969 0.25 0.35156 0.45703 0.38281 0.45703s0.58594-0.53125 1.2266-1.1797zm-25.195-0.45703c0.72266-0.66016 1.3711-1.2344 1.4375-1.2734 0.066406-0.039063 0.22656 0.011719 0.36328 0.12109 0.13281 0.10547 0.26172 0.19141 0.28516 0.19141 0.023438 0 0.42188-0.41797 0.88281-0.92578 0.46484-0.50781 1.043-1.1016 1.2891-1.3164 0.29297-0.25391 0.4375-0.45312 0.42188-0.57812-0.015625-0.10547 0.039063-0.28906 0.12109-0.41406 0.21094-0.32422 1.1133-1.0117 1.2539-0.96094 0.066406 0.023438 0.60938-0.49609 1.2109-1.1602 0.60156-0.66406 1.4141-1.5078 1.8125-1.875l0.72266-0.66797-0.36719 0.066407c-0.20312 0.035156-1.293 0.074218-2.4258 0.078124-1.4414 0.007813-2.0586 0.042969-2.0586 0.11719 0 0.058594-0.09375 0.22656-0.21094 0.37109l-0.21094 0.26562-1.0391-0.050781c-1.0703-0.050782-1.3281-0.14063-1.3281-0.46875 0-0.16406-0.089844-0.17969-1.082-0.17969-0.59375 0-1.3086-0.027344-1.5859-0.0625-0.49219-0.058594-0.50391-0.054688-0.50391 0.1875 0 0.13672-0.050781 0.35547-0.10938 0.48828-0.19141 0.41797-0.55469 0.49219-2.457 0.49219-1.6992 0-1.7461 0.007812-1.7109 0.19141 0.42578 2.0898 1.0703 4.0547 1.7422 5.3281 0.57422 1.0859 2.0391 3.2969 2.1562 3.2539 0.039062-0.015625 0.66406-0.56641 1.3906-1.2266zm30.969 0.11328c1.6016-2.3438 2.4023-4.3047 3.0469-7.4648 0.039062-0.1875-0.011719-0.19141-1.7109-0.19141-1.9023 0-2.2656-0.074219-2.457-0.49219-0.058594-0.13281-0.10938-0.35156-0.10938-0.48828 0-0.24219-0.011719-0.24609-0.50391-0.1875-0.27734 0.03125-0.99219 0.0625-1.5859 0.0625-0.99219 0-1.082 0.015625-1.082 0.17969 0 0.32812-0.25781 0.41797-1.3281 0.46875l-1.0391 0.050782-0.21094-0.26563c-0.11328-0.14453-0.21094-0.3125-0.21094-0.37109 0-0.074219-0.61719-0.10938-2.0586-0.11719-1.1328-0.007812-2.2227-0.042969-2.4258-0.078125l-0.36719-0.066406 0.72266 0.66797c0.39453 0.36719 1.2109 1.2109 1.8125 1.875 0.60156 0.66406 1.1445 1.1875 1.2109 1.1602 0.14062-0.054687 1.0391 0.63672 1.2539 0.96094 0.082031 0.12109 0.13672 0.30859 0.12109 0.41406-0.015625 0.125 0.12891 0.32422 0.42188 0.57812 0.24609 0.21484 0.82422 0.80469 1.2891 1.3164 0.46484 0.51172 0.85938 0.92578 0.88281 0.92578 0.023437 0 0.14844-0.085938 0.28125-0.19141 0.17578-0.13672 0.28516-0.16406 0.39844-0.097656 0.085938 0.050781 0.74219 0.63281 1.4531 1.293 0.71484 0.66016 1.3242 1.2031 1.3555 1.2031 0.03125 0.003906 0.40625-0.50781 0.83594-1.1328zm-14.824 0.49609c0.17969-0.070312 0.20703-0.20312 0.16406-0.75781l-0.039062-0.48438h-3.8281v0.35547c0 0.19531-0.019531 0.41406-0.046875 0.48438-0.097656 0.26562 0.13672 0.41406 0.73828 0.48047 0.62109 0.066406 2.7812 0.011719 3.0078-0.078125zm-0.53516-1.7305c0.30469-0.058593 0.30859-0.066406 0.25391-0.50391-0.027344-0.24219-0.082031-1.3203-0.11328-2.3906l-0.0625-1.9492-0.34766 0.074219c-0.44922 0.09375-1.4961 0.09375-1.9453 0l-0.34766-0.074219-0.0625 1.9492c-0.035156 1.0703-0.085938 2.1484-0.11719 2.3984-0.050781 0.41406-0.035156 0.45312 0.17188 0.49219 0.36328 0.070313 2.2383 0.074219 2.5742 0.007813zm6.7109-1.4531c0.70312-0.67578 1.2734-1.2617 1.2734-1.3047s-0.17969-0.28516-0.39844-0.53516l-0.39453-0.46094-1.0977 1.1172c-1.5273 1.5586-1.4688 1.4492-1.0391 1.9727 0.19531 0.23828 0.35938 0.42969 0.36719 0.42969 0.007812 0 0.58594-0.55078 1.2891-1.2266zm-14.215 0.74219c0.37891-0.47266 0.42969-0.38281-1.082-1.9258l-1.0977-1.1172-0.39453 0.46094c-0.21875 0.25391-0.39844 0.49219-0.39844 0.53516-0.003906 0.10938 2.4336 2.4258 2.5586 2.4297 0.058594 0 0.24219-0.17188 0.41406-0.38281zm3.3359-3.5391 0.81641-0.76172-0.51562-0.28906c-0.54688-0.30859-1.2969-1.0703-1.6367-1.6719-0.11328-0.19922-0.23047-0.35156-0.26172-0.33984-0.027344 0.011719-0.79297 0.80078-1.6953 1.7539l-1.6445 1.7305 2.2383 2.3086 0.94141-0.98047c0.51953-0.53906 1.3086-1.3242 1.7578-1.7461zm9.1406-1.3086c-0.90234-0.95312-1.6641-1.7422-1.6953-1.7578-0.027344-0.011718-0.14844 0.14062-0.26172 0.33984-0.33984 0.59375-1.0898 1.3633-1.6211 1.6602l-0.49609 0.28125 3.4766 3.5078 2.2344-2.2969-1.6406-1.7344zm-4.6055 0.23828c1.1836-0.41016 1.9375-1.1289 2.582-2.4609 0.66016-1.3594 0.64453-2.2695-0.0625-3.6719-0.92578-1.8398-2.0742-2.5508-4.1289-2.5508-2.0547 0-3.2031 0.71094-4.1289 2.5508-0.70703 1.4023-0.72266 2.3125-0.066406 3.6719 0.77344 1.6055 1.9805 2.5312 3.4492 2.6445 0.99609 0.078125 1.7734 0.015625 2.3555-0.18359zm-2.4102-0.96094c-1.332-0.42578-2.0938-1.2812-2.3828-2.6719-0.14453-0.69531-0.039062-1.4492 0.30859-2.1875 0.48828-1.043 1.7227-1.8242 2.8711-1.8242 1.1523 0 2.3828 0.78125 2.8711 1.8242 0.34766 0.73828 0.45312 1.4883 0.30859 2.1875-0.28906 1.3906-1.0664 2.2578-2.3945 2.668-0.74219 0.23047-0.87109 0.23047-1.5859 0zm2.1641-0.69531c0.64844-0.34766 0.91797-0.65625 1.2891-1.4766 0.37891-0.84375 0.35547-1.457-0.082031-2.3789-0.53516-1.1289-1.3242-1.6289-2.5703-1.6289s-2.0352 0.5-2.5703 1.6289c-0.47266 0.99609-0.47266 1.5508 0 2.5352 0.39062 0.81641 0.5 0.93359 1.2305 1.3359 0.46484 0.25391 0.61719 0.28906 1.3281 0.28906 0.71875 0 0.86328-0.03125 1.3789-0.30469zm-2.0586-1.6211c-0.48047-0.25391-0.65625-0.78516-0.45312-1.375 0.11328-0.32422 0.22266-0.44141 0.58984-0.625 1.0273-0.50781 2.0469 0.33594 1.7227 1.4258-0.20703 0.6875-1.1133 0.96484-1.8594 0.57031zm1.3086-0.48438c0.13672-0.16406 0.25-0.375 0.25-0.47266s-0.11328-0.3125-0.25-0.47266c-0.19922-0.23438-0.32422-0.29688-0.61719-0.29688s-0.41797 0.058594-0.61719 0.29688c-0.13672 0.16016-0.25 0.375-0.25 0.47266s0.11328 0.30859 0.25 0.47266c0.19922 0.23438 0.32422 0.29688 0.61719 0.29688s0.41797-0.058594 0.61719-0.29688zm-17.266 2.1602c0.32813-0.027344 0.63281-0.10156 0.67188-0.16406 0.039062-0.0625 0.074218-1.1875 0.074218-2.4961 0.003906-1.8477-0.023437-2.4062-0.12109-2.4883-0.17969-0.14844-2.8047-0.31641-3.3125-0.21094-0.41016 0.085938-0.41016 0.089844-0.49219 0.61328-0.042969 0.28906-0.078125 1.2422-0.078125 2.1133s0.035156 1.8242 0.078125 2.1133c0.074219 0.48438 0.10156 0.53125 0.36719 0.58594 0.30078 0.058594 1.7773 0.023437 2.8086-0.066406zm36.367-0.019532c0.035156-0.035156 0.11719-0.63672 0.17969-1.3398 0.089843-0.99609 0.089843-1.5508 0-2.5469-0.0625-0.69922-0.14844-1.3086-0.19141-1.3516-0.21094-0.22266-3.3984-0.125-3.6836 0.11328-0.16797 0.14062-0.16797 4.8555 0 5.0234 0.21484 0.21484 3.4961 0.30469 3.6953 0.10156zm-29.668-0.45703c0.17578-0.17578 0.17188-0.085937 0.17188-2.3125 0-2.2656 0.039063-2.1953-1.1094-2.1055-0.48438 0.039063-0.90234 0.089844-0.92969 0.11719-0.085938 0.085937-0.10938 3.5312-0.027344 3.9258l0.082031 0.38281 0.62109 0.054687c0.33984 0.03125 0.71484 0.0625 0.82812 0.074219 0.11328 0.007812 0.27734-0.050782 0.35938-0.13672zm21.727-0.058594c0.097656-0.089843 0.14453-4.1484 0.050781-4.2422-0.027344-0.027344-0.44531-0.078125-0.92969-0.11719-0.84766-0.066406-0.88281-0.058594-0.99609 0.14844-0.097656 0.17969-0.16406 2.6602-0.10547 3.9102 0.019531 0.42188 0.23438 0.51172 1.0938 0.44531 0.43359-0.03125 0.83203-0.097656 0.88672-0.14453zm-24.398-0.51953 0.27734-0.054688-0.027344-3.1094-1.4766-0.046876c-0.8125-0.027343-1.5117-0.019531-1.5547 0.011719-0.058594 0.042969-0.11328 2.6523-0.066406 3.207 0.003906 0.066407 2.5117 0.0625 2.8516-0.007812zm7.5625-0.085938c0.22266-0.003906 0.25781-0.035156 0.21094-0.19531-0.12109-0.40234-0.15234-1.9609-0.046875-2.3555 0.058593-0.22266 0.09375-0.42188 0.074219-0.4375-0.019532-0.019531-1.0078-0.0625-2.1914-0.097656-1.1875-0.035156-2.1914-0.082031-2.2305-0.10547-0.039062-0.023437-0.070312 0.72266-0.070312 1.6562v1.6992l1.9922-0.078125c1.0977-0.042969 2.1133-0.082031 2.2656-0.085938zm14.387-1.5469c0-0.92969-0.03125-1.668-0.070313-1.6445-0.039062 0.023438-1.043 0.070313-2.2305 0.10547s-2.1758 0.078125-2.1914 0.097656c-0.019532 0.019531 0.015624 0.21484 0.074218 0.4375 0.10547 0.39453 0.074219 1.9492-0.046875 2.3555-0.054687 0.18359-0.007812 0.19531 1.1719 0.22656 0.67578 0.019532 1.25 0.050782 1.2695 0.070313 0.023437 0.023437 0.48828 0.039063 1.0312 0.039063h0.99219zm6.1641 0.066406c0-0.86328-0.035157-1.6016-0.078126-1.6328-0.042968-0.035156-0.74219-0.039062-1.5547-0.011719l-1.4766 0.046876-0.015624 1.5586c-0.011719 1.4883-0.003907 1.5586 0.17969 1.5977 0.10547 0.023437 0.8125 0.035156 1.5703 0.027343l1.3789-0.011719v-1.5742zm-20.461-2.2266c-0.32812-0.23828-2.0039-1.9844-2.8867-3.0078-0.17578-0.19922-0.36719-0.34766-0.43359-0.32422-0.29297 0.10156-1.4883-1.0352-1.3828-1.3164 0.027344-0.074219-0.51562-0.70312-1.293-1.4961-1.2227-1.2539-1.3555-1.3594-1.5078-1.2305-0.089844 0.078125-0.21875 0.17188-0.28516 0.21094-0.074219 0.042969-0.56641-0.34375-1.2969-1.0117-0.64844-0.59375-1.3008-1.1914-1.4492-1.3242l-0.26953-0.24609-0.1875 0.23828c-0.44922 0.57812-1.457 2.1406-1.9219 2.9766-0.68359 1.2344-1.3281 3.207-1.7734 5.4297-0.039062 0.1875 0.003906 0.19141 1.4453 0.16016 1.8477-0.039063 2.4844 0.070313 2.6875 0.46484 0.078126 0.15234 0.14453 0.39062 0.14453 0.53516 0 0.23438 0.023437 0.25391 0.30078 0.19531 0.16406-0.03125 0.87891-0.058594 1.5859-0.058594 1.1914 0 1.2852-0.011719 1.2852-0.17969 0-0.32812 0.26953-0.43359 1.207-0.47656 1.1523-0.050782 1.3477 0 1.4883 0.39062l0.11328 0.3125 1.6953-0.011719c0.93359-0.003906 1.9766 0.019531 2.3203 0.050781 0.34375 0.035157 0.66016 0.046875 0.70312 0.023438 0.042969-0.019531-0.089843-0.16016-0.29297-0.30859zm12.676 0.23438 1.6953 0.011719 0.11328-0.3125c0.14062-0.39453 0.33203-0.44141 1.4883-0.39062 0.9375 0.039062 1.207 0.14844 1.207 0.47656 0 0.16797 0.09375 0.17969 1.2852 0.17969 0.70703 0 1.4219 0.027344 1.5859 0.058594 0.27734 0.054687 0.30078 0.039062 0.30078-0.19531 0-0.14062 0.066407-0.38281 0.14453-0.53516 0.20312-0.39453 0.83984-0.50391 2.6875-0.46484 1.4414 0.027344 1.4844 0.023438 1.4453-0.16016-0.44531-2.2227-1.0898-4.1953-1.7734-5.4297-0.45703-0.82813-1.4727-2.4023-1.9062-2.9609l-0.17188-0.22266-0.76562 0.75391c-0.65234 0.64062-1.1523 1.0625-2.0586 1.7344-0.13672 0.10156-0.20703 0.089844-0.42188-0.078125l-0.25781-0.20312-1.3359 1.3672c-0.77734 0.79297-1.3164 1.418-1.2891 1.4922 0.10937 0.28125-1.0898 1.4219-1.3828 1.3164-0.0625-0.023437-0.25781 0.12109-0.43359 0.32422-0.87891 1.0156-2.6172 2.8242-2.9023 3.0234-0.17969 0.12109-0.3125 0.25-0.29297 0.27734 0.019531 0.03125 0.32812 0.027344 0.6875-0.007812s1.418-0.058594 2.3516-0.050782zm-11.883-0.72266c0.33203-0.56641 1.3242-1.5312 1.7539-1.707l0.29297-0.12109-3.4844-3.4922-2.2344 2.2969 1.5508 1.6172c0.85156 0.89062 1.5859 1.6797 1.6289 1.7578 0.12109 0.21875 0.19141 0.17188 0.50391-0.35156zm9.3906-0.25391c0.38281-0.41016 1.1367-1.1992 1.6758-1.7539l0.98047-1.0078-1.125-1.1562-1.1211-1.1523-3.4844 3.4922 0.29297 0.12109c0.42969 0.17578 1.418 1.1406 1.7539 1.707 0.16016 0.26953 0.30078 0.48828 0.3125 0.48828 0.011719 0.003906 0.33594-0.33203 0.71875-0.74219zm-7.0234-4.1758c-0.035156-2.418-0.035156-2.4219-0.26562-2.6016-0.19922-0.15625-0.23047-0.26172-0.23047-0.80859 0-0.57422 0.023438-0.64844 0.28906-0.89453l0.28906-0.26953v-2.0273c0-1.9648-0.007813-2.0273-0.19141-2.0273-0.1875 0-0.19141-0.0625-0.19141-2.0195 0-1.1094-0.019531-2.0195-0.042969-2.0195-0.023437 0-0.61719 0.10547-1.3203 0.23438-2.3828 0.44141-4.5859 1.2422-6.5195 2.3672-0.55469 0.32422-1.2148 0.69922-1.4688 0.83203-0.52734 0.27734-0.58203 0.12109 0.45703 1.2695 0.3125 0.34375 0.83984 0.96875 1.1719 1.3906 0.5625 0.71094 0.59766 0.77734 0.46875 0.97266-0.12891 0.19922-0.066407 0.27344 1.2969 1.5898 0.78516 0.76172 1.7344 1.6602 2.1055 1.9961 0.37109 0.33984 0.64453 0.66016 0.60938 0.71484-0.035157 0.054688 0.75781 0.90625 1.7578 1.8945 1 0.98438 1.8203 1.7969 1.8203 1.8047s-0.015624-1.0742-0.035156-2.4062zm1.8125 2.2773c0.44922 0 0.92969 0.03125 1.0703 0.070313l0.25391 0.070312 0.0625-1.9453c0.035156-1.0703 0.089844-2.1719 0.11719-2.4492l0.054688-0.50391h-3.1211l0.054688 0.50391c0.03125 0.27734 0.085937 1.3789 0.11719 2.4492l0.0625 1.9453 0.25391-0.070312c0.14062-0.039063 0.62109-0.070313 1.0703-0.070313zm5.3438-3.5625c-0.023437-0.066406 0.25391-0.39453 0.62109-0.73047 0.36719-0.33594 1.3125-1.2344 2.1016-1.9922 1.3633-1.3164 1.4258-1.3945 1.2969-1.5898-0.12891-0.19141-0.09375-0.26172 0.46875-0.97266 0.33203-0.42188 0.85937-1.0469 1.1719-1.3906 1.0391-1.1484 0.98438-0.99219 0.45703-1.2695-0.25391-0.13281-0.91406-0.50781-1.4688-0.83203-1.9336-1.1289-4.1328-1.9297-6.5195-2.3672-0.70312-0.12891-1.2969-0.23438-1.3203-0.23438s-0.042969 0.90625-0.042969 2.0195c0 1.9531-0.007812 2.0195-0.19141 2.0195-0.1875 0-0.19141 0.0625-0.19141 2.0273v2.0273l0.28906 0.26953c0.26562 0.24609 0.28906 0.32422 0.28906 0.89453 0 0.54688-0.027344 0.64844-0.23047 0.80859-0.22656 0.17969-0.23047 0.1875-0.27344 2.5781l-0.042969 2.3984 1.8125-1.7695c0.99609-0.97266 1.793-1.8242 1.7695-1.8867zm-12.516 1.293c0.66797-0.69141 1.2109-1.3086 1.2109-1.375 0-0.0625-0.16016-0.27344-0.35938-0.46875l-0.35938-0.35156-1.2734 1.2031c-0.69922 0.66406-1.2734 1.25-1.2734 1.3047 0 0.10938 0.67969 0.91406 0.78125 0.92969 0.035156 0.003907 0.60547-0.55469 1.2734-1.2461zm16.004 0.84766c0.21094-0.22656 0.38672-0.46094 0.38672-0.51953 0.003906-0.0625-0.57031-0.65234-1.2695-1.3164l-1.2734-1.2031-0.35938 0.35156c-0.19922 0.19141-0.35937 0.40234-0.35937 0.46875 0 0.10156 2.3633 2.6328 2.457 2.6328 0.019531 0 0.20703-0.18359 0.41797-0.40625zm-17.055-2.1719 1.125-1.0898-0.80859-0.83203c-0.44531-0.45703-0.99219-1.082-1.2227-1.3867-0.22656-0.30469-0.44141-0.55078-0.47266-0.55078s-0.58594 0.52344-1.2305 1.168l-1.1719 1.168 1.2656 1.3281c0.69531 0.73047 1.293 1.3203 1.3281 1.3047 0.035156-0.011719 0.56641-0.51562 1.1836-1.1133zm18.949-0.19141 1.2656-1.3281-1.1719-1.168c-0.64453-0.64453-1.1992-1.168-1.2305-1.168s-0.24609 0.24609-0.47266 0.55078c-0.22656 0.30469-0.77734 0.92578-1.2188 1.3828l-0.80859 0.83203 1.1367 1.1133c0.625 0.61328 1.1602 1.1133 1.1836 1.1133 0.027344 0.003906 0.61719-0.59766 1.3125-1.3281zm-21.52-3.1484 1.1016-1.0664-1.2617-1.457c-0.69531-0.80078-1.3047-1.4531-1.3594-1.4531-0.14062 0-2 1.9844-2.918 3.1094l-0.37891 0.46484 0.85938 0.78125c0.47266 0.42969 1.0977 1.0117 1.3867 1.2852l0.52734 0.50391 0.46875-0.55078c0.25781-0.30078 0.96484-1.0312 1.5703-1.6172zm26.254-0.28906c0.11328-0.10547 0.078125-0.19531-0.23828-0.58594-0.91406-1.1211-2.7773-3.1055-2.9141-3.1055-0.050781 0-0.66016 0.65234-1.3555 1.4492l-1.2578 1.4531 1.1914 1.168c0.65625 0.64062 1.3555 1.3711 1.5547 1.6211l0.36328 0.45312 1.2617-1.168c0.69531-0.64062 1.3242-1.2227 1.3984-1.2891zm-13.539 1.6914c0-0.18359 0.027344-0.43359 0.058594-0.55469 0.097656-0.37109-0.38672-0.49219-1.9844-0.49219-1.5938 0-2.082 0.12109-1.9844 0.49219 0.03125 0.11719 0.058594 0.36719 0.058594 0.55469v0.33594h3.8438v-0.33594zm-0.64062-2.6836c0.035156-0.71094 0.0625-1.5742 0.0625-1.9258v-0.63672h-2.6914v0.63672c0 0.35156 0.027344 1.2188 0.0625 1.9258l0.0625 1.2891h2.4453l0.0625-1.2891zm0.44531-4.8047c0-1.6562-0.019531-1.9219-0.15234-1.9688-0.085937-0.03125-0.79297-0.058594-1.5781-0.058594s-1.4922 0.027344-1.5781 0.058594c-0.13281 0.050781-0.15234 0.31641-0.15234 1.9688v1.9102h3.4609zm-13.758 38.062c-0.015625-0.046875-0.42188-0.28125-0.89844-0.52734-1.5859-0.81641-3.7734-2.6719-5.0859-4.3125-0.77734-0.97266-1.5312-2.2461-1.793-3.0352l-0.21094-0.63281 0.27734-0.22266c0.37891-0.30469 1.1836-0.70312 1.4258-0.70312 0.14453 0 0.44531 0.33203 1.0742 1.1758 1.7422 2.3438 4.3789 4.9609 6.4492 6.4023 0.17187 0.11719 0.3125 0.29297 0.3125 0.38281 0 0.19141-1.2383 1.5508-1.4102 1.5508-0.0625 0-0.125-0.035156-0.14453-0.082031zm0.67188-0.84766 0.49219-0.59375-0.64453-0.46094c-2.2109-1.5781-5.3711-4.8438-6.4141-6.625l-0.35938-0.60938-0.73438 0.39844c-0.40234 0.21875-0.75 0.41016-0.76953 0.42578-0.054688 0.042969 0.69531 1.2891 1.3711 2.293 1.0742 1.5898 3.8867 4.207 5.6328 5.2422 0.37109 0.22266 0.69922 0.44141 0.73047 0.49219 0.085937 0.14062 0.16797 0.070312 0.69531-0.5625zm22.48 0.23828c-0.35547-0.37891-0.64844-0.76562-0.64844-0.85938 0-0.089844 0.14063-0.26562 0.3125-0.38281 2.0703-1.4414 4.707-4.0586 6.4492-6.4023 0.62891-0.84375 0.93359-1.1758 1.0742-1.1758 0.24219 0 1.0469 0.39453 1.4258 0.70312l0.27734 0.22266-0.21094 0.63281c-0.26172 0.78906-1.0156 2.0625-1.793 3.0352-1.3125 1.6406-3.5 3.4961-5.0859 4.3125-0.47656 0.24609-0.87891 0.48047-0.89844 0.52734-0.074219 0.1875-0.29297 0.042969-0.90625-0.60938zm1.0625 0.22266c0.14453-0.097656 0.62891-0.42188 1.0781-0.71484 1.7148-1.125 3.9883-3.2656 5.0078-4.707 0.57031-0.80859 1.5742-2.4648 1.5195-2.5039-0.019531-0.015625-0.36719-0.20703-0.76953-0.42578l-0.73438-0.39844-0.35937 0.60938c-1.0391 1.7812-4.2031 5.0469-6.4102 6.6211l-0.64453 0.46094 0.5 0.61719c0.27344 0.33984 0.51172 0.61719 0.52734 0.61719s0.14453-0.078126 0.28906-0.17969zm-34.324-10.598c-0.082031-0.39844-0.003906-0.47656 0.085938-0.085938 0.035156 0.16406 0.046875 0.32031 0.019531 0.34766-0.023438 0.023437-0.070312-0.09375-0.10547-0.26172zm44.164 0.15625c-0.003906-0.10547 0.035156-0.27734 0.078125-0.38672 0.10547-0.24609 0.10547 0.007813 0 0.33594-0.0625 0.19141-0.078125 0.20312-0.078125 0.046875zm-44.312-0.77734c0.003906-0.11328 0.027344-0.13672 0.058594-0.058594 0.027343 0.070313 0.023437 0.15234-0.007813 0.18359s-0.054687-0.023437-0.050781-0.125zm44.496 0c0.003906-0.11328 0.027343-0.13672 0.058593-0.058594 0.027344 0.070313 0.023438 0.15234-0.007812 0.18359s-0.054688-0.023437-0.050781-0.125zm-45.406-3.5234c-0.61328-1.2578-0.87109-3.0977-0.79688-5.6758 0.054688-1.9336 0.22266-3.0234 0.63672-4.1094 0.35938-0.94531 0.32031-0.92578 1.3984-0.72266 0.51562 0.097656 0.95312 0.23047 0.97656 0.29688 0.027344 0.066407-0.046875 0.91406-0.15625 1.8867-0.19531 1.7031-0.27344 4.168-0.15625 5.0859 0.23438 1.8438 0.35547 3.2891 0.28516 3.3516-0.070313 0.0625-1.6445 0.39062-1.8789 0.39062-0.035156 0-0.17578-0.22656-0.3125-0.50391zm1.5469-0.16797c0.38281-0.097656 0.39844-0.11328 0.31641-0.36328-0.46484-1.4219-0.58594-5.8984-0.21484-7.9961 0.10938-0.60938 0.21094-1.168 0.23047-1.2422 0.023437-0.097657-0.15234-0.18359-0.63672-0.30078-0.37109-0.089844-0.73438-0.17969-0.80859-0.19922-0.097656-0.023438-0.18359 0.17969-0.3125 0.73437-0.67188 2.9219-0.71484 5.5625-0.12109 8.3125 0.33594 1.5664 0.26172 1.4375 0.73828 1.2852 0.22266-0.070313 0.58984-0.17188 0.80859-0.23047zm43.477 0.49219c-0.44531-0.085938-0.82812-0.21094-0.84766-0.27734s0.03125-0.71484 0.11328-1.4414c0.085938-0.72656 0.17969-1.5625 0.21094-1.8516 0.11328-1.0312 0.039062-3.3711-0.15625-5.0977-0.10938-0.96484-0.17969-1.8047-0.15625-1.8711 0.027343-0.066406 0.46094-0.19922 0.97656-0.29688 1.082-0.20312 1.0391-0.22266 1.3984 0.72266 0.41016 1.0859 0.57812 2.1758 0.63672 4.1094 0.074219 2.5781-0.1875 4.418-0.79688 5.6758-0.27734 0.56641-0.22266 0.55469-1.3789 0.32813zm1.3672-1.5039c0.59766-2.8125 0.5625-5.4219-0.11328-8.3594-0.12891-0.55469-0.21484-0.75781-0.3125-0.73438-0.074219 0.019531-0.4375 0.10938-0.80859 0.19922-0.48438 0.11719-0.66406 0.20312-0.63672 0.30078 0.019531 0.074219 0.12109 0.63672 0.23047 1.2422 0.37109 2.0977 0.25 6.5781-0.21484 7.9961-0.082032 0.25-0.066406 0.26563 0.31641 0.36328 0.22266 0.058594 0.57422 0.15625 0.78516 0.22266 0.25781 0.078125 0.40234 0.085938 0.44531 0.019531 0.035156-0.054687 0.17188-0.61719 0.30859-1.2539zm-45.48-12.5c0.003906-0.11328 0.027344-0.13672 0.058594-0.058593 0.027343 0.070312 0.023437 0.15234-0.007813 0.18359s-0.054687-0.023437-0.050781-0.125zm44.496 0c0.003906-0.11328 0.027343-0.13672 0.058593-0.058593 0.027344 0.070312 0.023438 0.15234-0.007812 0.18359s-0.054688-0.023437-0.050781-0.125zm-44.398-0.38672c0.003906-0.11328 0.027344-0.13672 0.058594-0.058593 0.027344 0.070312 0.023437 0.15234-0.007813 0.18359s-0.054687-0.023437-0.050781-0.125zm44.305 0c0.003906-0.11328 0.027343-0.13672 0.058593-0.058593 0.027344 0.070312 0.023438 0.15234-0.007812 0.18359s-0.054688-0.023437-0.050781-0.125zm-44.207-0.38281c0.003906-0.11328 0.027344-0.13672 0.058594-0.058594 0.027344 0.070313 0.023438 0.15234-0.007812 0.18359s-0.054688-0.023438-0.050782-0.125zm44.109 0c0.003907-0.11328 0.027344-0.13672 0.058594-0.058594 0.027344 0.070313 0.023437 0.15234-0.007813 0.18359s-0.054687-0.023438-0.050781-0.125zm-41.004-1.6367c-0.66016-0.35156-1.0039-0.60938-1.0039-0.75781 0-0.23047 0.5625-1.5156 0.92578-2.1094 1.2891-2.1172 4.0039-4.7031 6.0664-5.7812 0.41016-0.21484 0.84375-0.45312 0.96875-0.52734 0.21484-0.13281 0.24609-0.11328 0.83594 0.50391 0.94141 0.98828 0.9375 0.92578 0.070312 1.5742-2.2578 1.6875-4.5312 3.9922-6.2695 6.3594-0.51172 0.69531-0.78125 0.98438-0.92188 0.98438-0.10938 0.003906-0.41406-0.10938-0.67188-0.24609zm2.1641-2.1992c1.293-1.6289 3.8398-4.0625 5.3672-5.1367l0.59766-0.41797-0.44922-0.53906c-0.24609-0.29687-0.48047-0.57422-0.51562-0.61719-0.035157-0.042969-0.22266 0.019531-0.41016 0.14453-0.19141 0.12109-0.55469 0.35156-0.80469 0.50781-1.3984 0.85938-3.7891 3.0352-4.9102 4.4609-0.75781 0.96484-1.8789 2.8008-1.7734 2.9062 0.039062 0.039063 0.37891 0.23828 0.74609 0.44531l0.67188 0.36719 0.35938-0.58203c0.19922-0.32031 0.70312-1.0117 1.125-1.5391zm34.219 1.4688c-1.7109-2.3477-4-4.6719-6.2695-6.3633-0.86719-0.64844-0.87109-0.58594 0.070313-1.5742 0.58594-0.61719 0.62109-0.63672 0.83594-0.50391 0.12109 0.074219 0.55859 0.3125 0.96875 0.52734 2.0977 1.0977 4.8242 3.707 6.1094 5.8555 0.45703 0.76172 0.92578 1.9297 0.85156 2.1172-0.074219 0.19922-1.1719 0.83203-1.5273 0.88281-0.30469 0.042969-0.33984 0.011719-1.0352-0.94141zm2.332-0.16016c0.10547-0.10547-1.0195-1.9414-1.7734-2.9062-1.1211-1.4297-3.5117-3.6016-4.9102-4.4609-0.25391-0.15625-0.61719-0.38281-0.80469-0.50781-0.19141-0.12109-0.375-0.1875-0.41016-0.14453-0.035156 0.042969-0.26953 0.32031-0.51562 0.61719l-0.44922 0.53906 0.60156 0.42188c2.1445 1.5039 5.3711 4.8281 6.4844 6.6758l0.35156 0.58594 0.67969-0.37109c0.375-0.20312 0.71094-0.40625 0.75391-0.44531zm-25.727-9.2539c-0.23047-1.3594-0.23047-1.4141 0.019532-1.5742 0.60547-0.39453 4.4141-1.0977 5.9648-1.0977 1.4297 0 4.8281 0.58203 5.8281 1 0.30859 0.12891 0.33984 0.17969 0.33984 0.51953 0 0.35156-0.15625 1.3594-0.22266 1.4258-0.015625 0.015624-0.60938-0.035157-1.3203-0.11328-3.3242-0.36328-7.2383-0.32031-10.199 0.10938-0.33984 0.050781-0.35547 0.039063-0.41016-0.26953zm1.5312-0.22656c2.3086-0.44531 6.8516-0.41797 9.1719 0.050781 0.5 0.10156 0.92578 0.16406 0.94922 0.14453 0.019531-0.023438 0.089844-0.33984 0.15234-0.70312l0.11328-0.66016-1.3984-0.25391c-2.4023-0.4375-3.2812-0.54297-4.5195-0.54297-1.2383 0-2.1172 0.10547-4.5195 0.54297l-1.3984 0.25391 0.12109 0.67969c0.066407 0.375 0.12109 0.69531 0.12109 0.71484 0.003906 0.019531 0.12109 0.003906 0.26953-0.03125 0.14453-0.035156 0.56641-0.125 0.9375-0.19531zm-6.2969-0.15234c0.40234-0.34375 2.2656-1.2148 2.3711-1.1094 0.023437 0.023437-0.30859 0.17969-0.73047 0.35156-0.42578 0.17188-1.0195 0.45703-1.3242 0.63672-0.30469 0.17969-0.44531 0.23438-0.3125 0.125zm21.246-0.09375c-0.23438-0.15234-0.80859-0.4375-1.2734-0.63281-0.89063-0.37109-1.1328-0.56641-0.28125-0.23047 0.70703 0.27734 1.5586 0.71875 1.8398 0.95313 0.33203 0.27734 0.22266 0.24219-0.28125-0.089844zm-28.273 43.211c0.24609-0.18359 0.78906-0.67578 1.207-1.0977l0.75781-0.76953-0.56641-0.50781c-0.72656-0.64844-1.875-1.7969-2.5234-2.5234-0.48828-0.55078-0.51172-0.5625-0.75781-0.43359-0.44141 0.23438-2.1406 1.9531-2.1406 2.1641 0 0.37891 0.71094 1.3164 1.3242 1.7422 0.34375 0.23828 0.67969 0.57031 0.80469 0.79297 0.14453 0.25781 0.28125 0.38281 0.41797 0.38281 0.11328 0 0.32812 0.12891 0.48047 0.28906 0.15234 0.15625 0.33984 0.28906 0.41406 0.28906 0.074219 0 0.33594-0.14844 0.58203-0.32812zm-1.3398-0.71484c-0.42969-0.27344-1.1719-1.0156-1.4648-1.4609-0.085938-0.13281-0.22266-0.42969-0.30469-0.66016l-0.14844-0.42188 0.20703 0.18359c0.11328 0.10156 0.57812 0.60938 1.0352 1.1328 1.3477 1.543 1.4414 1.7188 0.67578 1.2266zm37.918 0.75391c0.15234-0.16016 0.36719-0.28906 0.48047-0.28906 0.13672 0 0.27344-0.12109 0.41797-0.38281 0.125-0.22266 0.46094-0.55469 0.80469-0.79297 0.61328-0.42969 1.3242-1.3633 1.3242-1.7422 0-0.21484-1.6992-1.9297-2.1406-2.1641-0.24609-0.12891-0.26562-0.11719-0.75781 0.43359-0.64844 0.72656-1.7969 1.875-2.5234 2.5234l-0.56641 0.50781 0.66406 0.67578c0.80078 0.81641 1.6641 1.5195 1.8711 1.5195 0.082031 0 0.27344-0.12891 0.42578-0.28906zm-0.14453-0.55859c0-0.09375 1.1523-1.4453 1.9023-2.2266l0.50781-0.53125-0.18359 0.50391c-0.20703 0.5625-0.56641 1.0547-1.1992 1.6328-0.44922 0.41406-1.0273 0.76172-1.0273 0.62109zm-52.008-18.844c1.7109-0.20703 3.2266-0.49609 3.5664-0.67969 0.10547-0.054687 0.30078-0.24609 0.43359-0.42187 0.21484-0.28516 0.24219-0.41016 0.24219-1.1211 0-1.543-0.42188-1.7695-4.1328-2.2109-3.4961-0.41797-7.125-0.4375-8.9375-0.054687-0.69531 0.14844-1.5312 0.51562-1.9688 0.86719-0.27734 0.22266-0.28906 0.26562-0.32031 1.1094-0.050781 1.3047 0.007813 1.5 0.53906 1.8359 0.62891 0.39844 1.375 0.66016 2.3281 0.81641 1.2656 0.20312 6.0898 0.125 8.25-0.14062zm75.504 0.054688c0.85938-0.19531 2.0703-0.80078 2.2344-1.1172 0.085938-0.16406 0.11719-0.56641 0.097656-1.2812-0.027344-1.0273-0.03125-1.0469-0.31641-1.2734-0.4375-0.34766-1.2734-0.71484-1.9688-0.86328-1.8125-0.38672-5.4414-0.36328-8.9375 0.054688-3.7109 0.44141-4.1328 0.66797-4.1328 2.2109 0 0.71875 0.027343 0.83594 0.25391 1.1328 0.14062 0.18359 0.39062 0.39062 0.55859 0.46094 0.46094 0.19141 2.2305 0.49609 3.8516 0.66406 0.79297 0.082031 1.5938 0.16406 1.7773 0.1875 0.18359 0.019531 1.5898 0.027343 3.1211 0.011719 2.1328-0.019532 2.9453-0.0625 3.4609-0.17969zm-68.137 0.070312 0.48047-0.058594-0.085937-1.1914c-0.050782-0.6875-0.050782-1.6562 0-2.2969 0.070312-0.89062 0.058593-1.1133-0.042969-1.1523-0.070313-0.027343-0.67969-0.050781-1.3516-0.050781-1.1445 0-1.2383 0.015625-1.4297 0.21484-0.28906 0.3125-0.37891 0.89844-0.35547 2.4297 0.019531 1.4062 0.125 1.8359 0.50391 2.0586 0.1875 0.10938 1.5312 0.13672 2.2812 0.046875zm-2.375-1.6719c-0.035156-0.44922-0.035156-1.1172 0.003906-1.4883l0.070313-0.67188 0.058594 0.81641c0.03125 0.44922 0.03125 1.1211-0.003907 1.4883l-0.0625 0.67188zm56.629 1.6328c0.39453-0.21094 0.50391-0.63672 0.52344-2.0625 0.019531-1.5312-0.066406-2.1172-0.35547-2.4297-0.19141-0.20312-0.28125-0.21484-1.4297-0.21484-0.67578 0-1.2812 0.023438-1.3516 0.050782-0.10547 0.039062-0.11328 0.26172-0.042969 1.1523 0.050782 0.63672 0.050782 1.6094 0 2.3008l-0.085937 1.1953 0.33594 0.035156c0.75391 0.082031 2.2344 0.0625 2.4062-0.03125zm-0.019531-1.6797c-0.03125-0.47656-0.03125-1.1445 0.003907-1.4883l0.0625-0.625 0.0625 0.81641c0.035156 0.44922 0.03125 1.1211-0.003907 1.4883l-0.066406 0.67188zm-47.074-17.402c0.53906-0.63281 1.9648-2.0547 2.625-2.6172l0.36719-0.3125-0.43359-0.48047c-0.23828-0.26562-0.64062-0.66797-0.89453-0.89062-1.0703-0.94531-1.2344-1-1.6641-0.54297-0.14844 0.15625-0.35156 0.28906-0.44922 0.28906-0.10547 0-0.27734 0.15625-0.41406 0.38281-0.12891 0.21094-0.51172 0.58594-0.85156 0.83203-0.58203 0.42578-1.2656 1.2891-1.2656 1.5977 0 0.24609 0.61328 0.96484 1.4336 1.6641 0.45312 0.39062 0.86719 0.70312 0.92187 0.70312 0.054688-0.003906 0.33594-0.28125 0.625-0.625zm-2.0938-1.9141c0.15234-0.52734 0.52344-1.0547 1.1914-1.6914 0.57812-0.55078 0.94141-0.79688 1.0938-0.74219 0.085937 0.027344-0.99219 1.3203-1.9453 2.3359l-0.45312 0.48437 0.11328-0.38281zm41.227 1.9023c0.80078-0.66797 1.5156-1.4805 1.5156-1.7227 0-0.31641-0.67578-1.1758-1.2656-1.6094-0.33984-0.25-0.72266-0.62109-0.85156-0.83203-0.13672-0.22266-0.30859-0.38281-0.41406-0.38281-0.097656 0-0.30078-0.12891-0.44922-0.28906-0.42578-0.45703-0.58984-0.40234-1.6641 0.54297-0.25391 0.22266-0.65625 0.625-0.89453 0.89062l-0.43359 0.48047 0.36719 0.3125c0.66016 0.5625 2.0859 1.9844 2.625 2.6172 0.28906 0.33984 0.56641 0.62109 0.60938 0.62891 0.046875 0.003906 0.42969-0.28516 0.85156-0.63672zm-0.54297-2.9375c-1.1406-1.2969-1.3164-1.5859-0.80469-1.3125 0.33203 0.17969 1.3125 1.1406 1.6055 1.5742 0.22656 0.33984 0.53125 1.1055 0.4375 1.1055-0.019532 0-0.57422-0.61719-1.2383-1.3672zm-40.586-0.64063c0.4375-0.33203 0.92188-0.92578 0.99609-1.2227 0.070313-0.28516-0.085937-0.75781-0.58984-1.7812-1.4258-2.8945-4.7969-6.5-7.6992-8.2305-0.76172-0.45313-0.89453-0.5-1.418-0.5-0.76562 0-1.2617 0.25-1.9297 0.97266-0.67188 0.72656-0.91406 1.4102-0.69141 1.9453 0.36328 0.86719 1.8047 2.6523 3.3945 4.2031 3.6484 3.5586 5.5312 4.8125 7.3359 4.8789 0.13281 0.003906 0.40234-0.11328 0.60156-0.26563zm42.871 0.18359c1.5625-0.25781 3.4336-1.5898 6.7227-4.7969 1.5898-1.5508 3.0312-3.3359 3.3945-4.2031 0.22266-0.53516-0.019531-1.2227-0.69141-1.9453-0.66797-0.72266-1.1641-0.97266-1.9297-0.97266-0.52344 0-0.65234 0.046874-1.418 0.5-2.8984 1.7305-6.2734 5.3359-7.6992 8.2305-0.50391 1.0234-0.66016 1.4961-0.58984 1.7812 0.11719 0.46484 1.1445 1.4922 1.5 1.4961 0.078125 0 0.39844-0.039062 0.71094-0.089844zm-20.645-5.0898c-0.03125-0.050781-0.007812-0.50391 0.046875-1.0117 0.054688-0.50781 0.074219-1.0078 0.042969-1.1133-0.03125-0.10547-0.23047-0.27734-0.43359-0.38281-0.78125-0.39844-2.3711-0.16016-2.543 0.38281-0.035156 0.10547-0.015624 0.60547 0.042969 1.1133 0.058594 0.50781 0.078125 0.96484 0.046875 1.0117-0.03125 0.054688 0.53125 0.089844 1.3984 0.089844 0.86719 0 1.4297-0.035156 1.3984-0.089844zm-2.1172-2.3633c0.16016-0.074219 0.48438-0.13281 0.72266-0.13281s0.5625 0.058593 0.72266 0.13281c0.26562 0.12109 0.21094 0.13281-0.72266 0.13281s-0.98828-0.011719-0.72266-0.13281zm1.6602-0.80469c0.30078-0.16016 0.55469-0.82422 0.86719-2.2734 0.88281-4.0586 1.1484-6.5703 0.84375-8.0195-0.19531-0.92578-0.67578-1.8711-1.1484-2.25-0.36719-0.29297-0.37891-0.29688-1.5039-0.29688s-1.1406 0.003906-1.5039 0.29688c-0.47266 0.37891-0.95313 1.3242-1.1484 2.25-0.30469 1.4453-0.039062 3.957 0.84375 8.0195 0.32422 1.5 0.57031 2.1172 0.90234 2.293 0.26562 0.14062 1.5781 0.12891 1.8477-0.015625z"/>
<text x="0.0" y="117.5" font-size="5.0" font-weight="bold" font-family="Arbeit Regular, Helvetica, Arial-Unicode, Arial, Sans-serif" fill="#000000">Created by Fathur Rachman</text><text x="0.0" y="122.5" font-size="5.0" font-weight="bold" font-family="Arbeit Regular, Helvetica, Arial-Unicode, Arial, Sans-serif" fill="#000000">from Noun Project</text></svg>