<svg xmlns="http://www.w3.org/2000/svg" version="1.1" viewBox="-5.0 -10.0 110.0 135.0">
 <path d="m50 9.9531c-10.859 0-19.691 8.6289-19.691 19.238s8.832 19.238 19.691 19.238 19.691-8.6289 19.691-19.238-8.832-19.238-19.691-19.238zm0 36.715c-9.8867 0-17.93-7.8398-17.93-17.477 0-9.6367 8.043-17.477 17.93-17.477s17.93 7.8398 17.93 17.477c0 9.6367-8.043 17.477-17.93 17.477zm15.598-17.477c0 0.30078-0.007812 0.60156-0.027344 0.90234-0.027343 0.46875-0.41406 0.83203-0.88281 0.83203-0.50781 0-0.90625-0.42969-0.875-0.93359 0.015625-0.26563 0.023438-0.53125 0.023438-0.79688 0-7.1484-5.1562-13.078-11.844-14.078-0.59375-0.089844-0.94141-0.71875-0.67578-1.2578 0.16406-0.33984 0.53125-0.54297 0.90625-0.48828 7.5547 1.1055 13.375 7.7812 13.375 15.82zm-0.49609 4.0312c0 0.51172-0.41406 0.92578-0.92578 0.92578s-0.92578-0.41406-0.92578-0.92578c0-0.51172 0.41406-0.92578 0.92578-0.92578 0.50781 0 0.92578 0.41406 0.92578 0.92578zm7.5742-4.5703c0-12.215-10.172-22.156-22.676-22.156s-22.676 9.9375-22.676 22.152c0 10.598 7.5781 19.605 18.129 21.695v0.015625c0 1.0352 0.21484 2.0391 0.64453 2.9805 0.60156 1.3242 0.64453 2.8633 0.12109 4.2188l-0.76562 1.9766v29.555c0 1.207 0.5 2.3789 1.3711 3.2148 0.80859 0.77344 1.8516 1.1953 2.9414 1.1953 0.0625 0 0.125 0 0.1875-0.003906l0.046875-0.003906 0.039062 0.003906c1.168 0.050781 2.2812-0.37109 3.1367-1.1914 0.87109-0.83594 1.3711-2.0078 1.3711-3.2148v-29.551l-0.76562-1.9766c-0.52344-1.3555-0.48047-2.8945 0.12109-4.2188 0.42578-0.94141 0.64453-1.9453 0.64453-2.9805v-0.015625c10.551-2.0938 18.129-11.098 18.129-21.695zm-24.23 22.094c0.10547 0.007812 0.21094 0.015625 0.31641 0.019531 0.41406 0.023437 0.82812 0.039063 1.2383 0.039063s0.82422-0.015626 1.2383-0.039063c0.10547-0.003906 0.21094-0.011719 0.31641-0.019531 0.37109-0.027344 0.74219-0.058594 1.1172-0.10156 0.035156-0.003906 0.074219-0.003906 0.10938-0.011719-0.035156 0.6875-0.19531 1.3516-0.48047 1.9844-0.79297 1.7539-0.85156 3.7852-0.16016 5.582l0.34766 0.89453c-2.0547 0.42969-3.9219 0.20703-4.9766-0.003906l0.34375-0.89453c0.69141-1.793 0.63672-3.8281-0.16016-5.582-0.28516-0.62891-0.44531-1.2969-0.48047-1.9844 0.035156 0.003906 0.074218 0.003906 0.10938 0.011719 0.37891 0.046875 0.75 0.078125 1.1211 0.10547zm-1.2344 10.082c0.20703 0.042969 0.4375 0.082031 0.69141 0.11719l-0.12109 29.781c-0.35938-0.46875-0.57031-1.043-0.57031-1.6367zm2.7852 30.906-0.10938 0.003906c-0.11719 0.003907-0.23047-0.011719-0.34766-0.019531l0.125-30.617c0.125 0.003907 0.25391 0.003907 0.38672 0.003907 0.035157 0 0.070313-0.003907 0.10156-0.003907l-0.09375 30.633zm1.9609-0.69922c-0.042969 0.039063-0.089843 0.070313-0.13672 0.10547l0.089844-30.16c0.28516-0.039063 0.57812-0.089844 0.875-0.15234v28.262c0.003906 0.73438-0.30078 1.4414-0.82812 1.9453zm1.5664-42.285c-2.3594 0.39062-4.6914 0.39062-7.0469 0-10.078-1.668-17.391-10.121-17.391-20.098 0-11.246 9.3828-20.391 20.914-20.391s20.914 9.1484 20.914 20.391c0 9.9766-7.3125 18.43-17.391 20.098z"/>
<text x="0.0" y="117.5" font-size="5.0" font-weight="bold" font-family="Arbeit Regular, Helvetica, Arial-Unicode, Arial, Sans-serif" fill="#000000">Created by Fath Yusuf Iskhaqy</text><text x="0.0" y="122.5" font-size="5.0" font-weight="bold" font-family="Arbeit Regular, Helvetica, Arial-Unicode, Arial, Sans-serif" fill="#000000">from Noun Project</text></svg>