<svg xmlns="http://www.w3.org/2000/svg" xmlns:xlink="http://www.w3.org/1999/xlink" version="1.1" x="0px" y="0px" viewBox="0 0 100 125" style="enable-background:new 0 0 100 100;" xml:space="preserve"><style type="text/css">
	.st0{stroke:#FFFFFF;stroke-width:2;stroke-linecap:round;stroke-linejoin:round;stroke-miterlimit:10;}
</style><g><path d="M76.9,18.9h-8.7v-1.2c0-0.3-0.3-0.6-0.6-0.6H53.3c-0.3,0-0.6,0.3-0.6,0.6v1.2h-2.4V12c0-1.2-0.9-2.1-2.1-2.1h-2.9l-1.8-2.1   c-0.2-0.2-0.4-0.3-0.7-0.3h-1.2c-0.3,0-0.5,0.1-0.7,0.3l-1.8,2.1h-2.9c-1.2,0-2.1,0.9-2.1,2.1v6.9h-1.8v-1.2c0-0.3-0.3-0.6-0.6-0.6   h-3.6c-0.3,0-0.6,0.3-0.6,0.6v1.2c-1,0.1-1.8,1-1.8,2.1v23.6H24c-0.3,0-0.6,0.3-0.6,0.6v3c0,0.3,0.3,0.6,0.6,0.6h1.8v1.8H24   c-0.3,0-0.6,0.3-0.6,0.6v3h-1.8c-0.2,0-0.3,0.1-0.4,0.2C21,54.5,21,54.6,21,54.8l0.8,16.2c0,0.2,0.1,0.3,0.2,0.5l1.9,1.4v11.2   c0,0.3,0.3,0.6,0.6,0.6h1.2v5.7c0,1.2,0.9,2.1,2.1,2.1h49c1.2,0,2.1-0.9,2.1-2.1V21C79,19.8,78.1,18.9,76.9,18.9z M53.9,18.3H67   v0.6H53.9V18.3z M36.2,11.7h3.3c0.3,0,0.5-0.1,0.7-0.3L42,9.3h0.4l1.8,2.1c0.2,0.2,0.4,0.3,0.7,0.3h3.3c0.2,0,0.3,0.1,0.3,0.3v7.5   H35.9V12C35.9,11.9,36.1,11.7,36.2,11.7z M31.2,18.3v0.6h-2.4v-0.6H31.2z M24.6,62.6h1.2v5.9l-1.2-0.9V62.6z M24.6,47.6v-1.8h1.2   v1.8H24.6z M24.6,51.8h1.2v9.6h-1.2V51.8z M25.2,83.5V72.6c0-0.2-0.1-0.4-0.2-0.5l-2-1.4l-0.8-15.3h1.2V62v5.9   c0,0.2,0.1,0.4,0.2,0.5l2.2,1.7v13.5H25.2z M77.2,90.4c0,0.2-0.1,0.3-0.3,0.3h-49c-0.2,0-0.3-0.1-0.3-0.3V21c0-0.2,0.1-0.3,0.3-0.3   h0.3h3.6h3.3c0.1,0,0.2,0,0.3-0.1v0.1h14.1h0.3h3.6h14.4h9.3c0.2,0,0.3,0.1,0.3,0.3V90.4z"/><path d="M38,17.7h8.4c0.3,0,1.2-0.2,1.2-2.4s-0.9-2.4-1.2-2.4H38c-0.3,0-1.2,0.2-1.2,2.4S37.8,17.7,38,17.7z M38.2,14.1h8   c0.1,0.1,0.2,0.4,0.2,1.2s-0.1,1.1-0.2,1.2h-8c-0.1-0.1-0.2-0.4-0.2-1.2S38.2,14.2,38.2,14.1z"/><path d="M59,60.3c0-3.7-3-6.7-6.7-6.7c-3.7,0-6.7,3-6.7,6.7c0,3.7,3,6.7,6.7,6.7C56,67,59,64,59,60.3z M46.7,60.3   c0-3.1,2.5-5.5,5.5-5.5s5.5,2.5,5.5,5.5s-2.5,5.5-5.5,5.5S46.7,63.4,46.7,60.3z"/><path d="M72.4,37.4H51.5c-0.7,0-1.2,0.5-1.2,1.2v12.6c-4.2,0.9-7.3,4.6-7.3,9.1s3.2,8.2,7.3,9.1v17.1c0,0.7,0.5,1.2,1.2,1.2h20.9   c0.7,0,1.2-0.5,1.2-1.2V38.6C73.6,38,73.1,37.4,72.4,37.4z M53.9,69.6c4.4-0.8,7.8-4.6,7.8-9.3s-3.4-8.5-7.8-9.3v-2.2H70v25.1H53.9   V69.6z M44.2,60.3c0-4.5,3.6-8.1,8.1-8.1s8.1,3.6,8.1,8.1s-3.6,8.1-8.1,8.1S44.2,64.8,44.2,60.3z M51.5,86.5V69.7   c0.2,0,0.5,0,0.7,0c0,0,0,0,0.1,0c0,0,0.1,0,0.1,0c0.1,0,0.2,0,0.3,0v4.8c0,0.3,0.3,0.6,0.6,0.6h17.3c0.3,0,0.6-0.3,0.6-0.6V48.2   c0-0.3-0.3-0.6-0.6-0.6H53.3c-0.3,0-0.6,0.3-0.6,0.6v2.7c-0.1,0-0.2,0-0.3,0c0,0-0.1,0-0.1,0c0,0,0,0-0.1,0c-0.2,0-0.4,0-0.7,0   V38.6h20.9l0,47.8H51.5z"/><path d="M66.2,61.1c-1.5,0-2.7,1.2-2.7,2.7c0,1.5,1.2,2.7,2.7,2.7c1.5,0,2.7-1.2,2.7-2.7C68.9,62.3,67.7,61.1,66.2,61.1z    M66.2,65.2c-0.8,0-1.5-0.7-1.5-1.5s0.7-1.5,1.5-1.5c0.8,0,1.5,0.7,1.5,1.5S67.1,65.2,66.2,65.2z"/><path d="M55.2,60.3c0-1.6-1.3-2.9-2.9-2.9s-2.9,1.3-2.9,2.9c0,1.6,1.3,2.9,2.9,2.9S55.2,61.9,55.2,60.3z M50.5,60.3   c0-1,0.8-1.7,1.7-1.7s1.7,0.8,1.7,1.7c0,1-0.8,1.7-1.7,1.7S50.5,61.3,50.5,60.3z"/><path d="M70.6,81.7h-9c-0.3,0-0.6,0.3-0.6,0.6v2.4c0,0.3,0.3,0.6,0.6,0.6h9c0.3,0,0.6-0.3,0.6-0.6v-2.4C71.2,82,71,81.7,70.6,81.7z    M62.3,82.9h3.6v1.2h-3.6V82.9z M70,84.1h-3v-1.2h3V84.1z"/></g><text x="0" y="115" fill="#000000" font-size="5px" font-weight="bold" font-family="'Helvetica Neue', Helvetica, Arial-Unicode, Arial, Sans-serif">Created by Margot Gabel</text><text x="0" y="120" fill="#000000" font-size="5px" font-weight="bold" font-family="'Helvetica Neue', Helvetica, Arial-Unicode, Arial, Sans-serif">from the Noun Project</text></svg>