<?xml version="1.0" encoding="UTF-8"?>
<svg width="700pt" height="700pt" version="1.1" viewBox="0 0 700 700" xmlns="http://www.w3.org/2000/svg">
 <path d="m307.72 243.1c14.559 1.4492 29.344 2.1758 43.953 2.1758 14.617 0 29.379-0.72656 43.891-2.1758 7.7617-0.76172 15.68-8.1406 17.289-16.094 3.6328-17.977 3.6328-27.277 0-45.262-1.6016-7.9531-9.5195-15.324-17.289-16.094-29.035-2.8828-58.742-2.8828-87.844 0-7.7578 0.76953-15.68 8.1406-17.289 16.094-3.6406 17.977-3.6406 27.285 0 45.262 1.6094 7.957 9.5352 15.328 17.289 16.094zm-12.137-60.32c1.1484-5.6914 7.1836-11.367 12.664-11.914 14.379-1.4297 28.992-2.1484 43.43-2.1484 14.434 0 29.027 0.72266 43.371 2.1484 5.4805 0.54688 11.516 6.2227 12.672 11.914 3.5 17.352 3.5 25.828 0 43.184-1.1562 5.6914-7.1836 11.367-12.672 11.914-28.68 2.8555-58.035 2.8555-86.801 0-5.4727-0.53906-11.516-6.2148-12.664-11.914-3.5078-17.355-3.5078-25.824 0-43.184z"/>
 <path d="m395.56 317.08c-29.035-2.8828-58.742-2.8828-87.844 0-7.7578 0.76953-15.672 8.1406-17.289 16.094-3.6602 18.129-3.6602 59.473 0 77.594 1.6016 7.9453 9.5195 15.316 17.289 16.105 14.566 1.4492 29.359 2.1758 43.969 2.1758 14.617 0 29.371-0.72656 43.883-2.1758 7.7617-0.78906 15.68-8.1602 17.281-16.105 3.6523-18.129 3.6523-59.473 0-77.594-1.6094-7.9531-9.5273-15.324-17.289-16.094zm-87.324 5.2227c2.9688-0.29297 5.9727-0.43359 8.9453-0.66406-11.359 7.8242-19.762 19.16-23.75 32.25 0.43359-7.75 1.1328-14.715 2.1406-19.684 1.1562-5.6797 7.1914-11.355 12.664-11.902zm-12.656 87.43c-1.0586-5.25-1.8008-12.699-2.2109-21 4.1016 13.781 13.039 25.746 25.109 33.676-3.4023-0.24609-6.832-0.41406-10.227-0.75-5.4883-0.5625-11.523-6.2344-12.672-11.926zm35.609 13.566c-21.355-8.4648-35.148-28.656-35.148-51.652 0-22.105 13.039-42.02 33.25-50.898 7.4609-0.37891 14.938-0.58203 22.363-0.58203s14.895 0.20313 22.352 0.58203c20.176 8.9023 33.207 28.82 33.207 50.898 0 22.625-14.113 43.316-35.133 51.652-13.586 0.62891-27.262 0.62891-40.891 0zm63.855-1.6445c-3.3867 0.34375-6.8164 0.50391-10.227 0.76172 12.066-7.9453 21.008-19.906 25.102-33.684-0.42188 8.3008-1.1484 15.75-2.2031 21-1.1602 5.6914-7.1992 11.363-12.672 11.922zm14.797-67.746c-3.9766-13.09-12.383-24.43-23.738-32.262 2.9766 0.23047 5.9766 0.37109 8.9336 0.66406 5.4727 0.54688 11.516 6.2227 12.672 11.906 1.0039 4.9688 1.7031 11.934 2.1328 19.691z"/>
 <path d="m635.91 180.89-35.23-0.015625c-0.58203-3.2539-3.3945-5.8789-8.3164-7.3906-4.9062-1.5195-10.219-2.3086-16.211-2.4219-12.27-0.28516-24.703 0.019532-36.75 0.32812l-2.3242 0.054688c-4.5625 0.11328-11.227 3.8633-12.109 9.3789l-22.266-0.007813c-10.934 0-24.012-5.7969-39.145-12.504-6.4766-2.8711-22.672-9.5625-23.344-9.8125l-0.019531 0.054688c-28.336-11.488-61.77-13.258-89.062-13.258-28.93 0-61.301 1.8477-89.109 13.258l-0.007813-0.019532c-0.29297 0.11328-2.1914 0.82031-2.8359 1.0977h-33.719c-5.5078 0-9.9961 4.4883-9.9961 9.9961v8.1484c-5.6914 1.8555-11.004 3.0391-15.867 3.0391l-83.68 0.050782v-0.99219c0-5.3047-4.3203-9.625-9.625-9.625h-23.457c-5.3047 0-9.625 4.3203-9.625 9.625v1.0156h-6.8867c-14.961 0-27.125 12.164-27.125 27.125v123.51h-2.3047v36.262l2.3008-0.003906v40.977l-2.3008 0.003906v53.43h2.3008v65.309c0 15 12.164 27.195 27.125 27.195h569.59c14.992 0 27.195-12.195 27.195-27.195v-319.48c-0.007813-14.957-12.207-27.129-27.195-27.129zm-98.707-4.1875 2.332-0.054687c11.969-0.30078 24.375-0.61719 36.504-0.32812 5.5078 0.097656 10.348 0.8125 14.77 2.1836 1.6367 0.50391 3.4492 1.3594 4.3203 2.3672l-64.645-0.035156c1.0156-2.1016 4.2344-4.0742 6.7188-4.1328zm98.707 9.4375c12.102 0 21.945 9.8125 21.945 21.875v56.59c-12.004-4.5156-25.828-7.0977-33.02-7.7617l-152.27-0.003906c-0.48828-21.496-1.1055-43.203-1.9375-65.492-0.25391-6.0078-2.4922-11.887-6.1875-16.898 14.406 6.3633 27 11.629 38.262 11.629zm17.367 325.28c-0.51172-1.0156-1.5391-1.7344-2.75-1.7344-1.2188 0-2.2461 0.72656-2.7656 1.7344h-21.859c-0.51172-1.0156-1.5469-1.7344-2.7656-1.7344-1.2109 0-2.2344 0.72656-2.75 1.7344h-21.867c-0.51172-1.0156-1.5391-1.7344-2.7578-1.7344-1.2109 0-2.2266 0.72656-2.75 1.7344h-21.875c-0.51172-1.0156-1.5391-1.7344-2.75-1.7344s-2.2344 0.72656-2.75 1.7344h-21.875c-0.51172-1.0156-1.5391-1.7344-2.75-1.7344s-2.2344 0.72656-2.75 1.7344h-21.875c-0.51172-1.0156-1.5391-1.7344-2.75-1.7344-1.2188 0-2.2383 0.72656-2.7578 1.7344h-21.867c-0.51172-1.0156-1.5469-1.7344-2.7656-1.7344-1.2109 0-2.2344 0.72656-2.75 1.7344h-13.469c0.015625-0.23047 0.085938-0.44922 0.097656-0.6875 0.050782-1.2461 0.085938-2.4492 0.14062-3.6875 0.56641 0.64453 1.3711 1.0625 2.2969 1.0625 1.7227 0 3.1211-1.4062 3.1211-3.1133 0-1.7227-1.3984-3.1133-3.1211-3.1133-0.83203 0-1.5898 0.34375-2.1484 0.875 0.14844-3.6602 0.25781-7.2578 0.39844-10.898 0.50391 0.35547 1.0859 0.60156 1.75 0.60156 1.7227 0 3.1211-1.3945 3.1211-3.1016 0-1.7227-1.3984-3.1289-3.1211-3.1289-0.58203 0-1.0977 0.20312-1.5664 0.48828 0.125-3.375 0.25391-6.7812 0.37109-10.129 0.37109 0.14844 0.76953 0.24609 1.1953 0.24609 1.7227 0 3.1211-1.4062 3.1211-3.1133 0-1.7227-1.3984-3.1133-3.1211-3.1133-0.35156 0-0.67969 0.097657-0.99219 0.1875 0.10547-3.2695 0.17578-6.4805 0.27344-9.75 0.23047 0.054688 0.46094 0.14844 0.72266 0.14844 1.7227 0 3.1211-1.4062 3.1211-3.1133 0-1.7227-1.3984-3.1289-3.1211-3.1289-0.19531 0-0.37109 0.085938-0.55859 0.125 0.035156-1.2305 0.070312-2.4375 0.097656-3.6484 1.1758 0.39844 2.4648 0.67188 3.9219 0.67188 3.4141 0 6.1953-2.7852 6.1953-6.2109l-0.015624-10.773c0-3.4141-2.7734-6.2109-6.1953-6.2109-1.2891 0-2.3438 0.20312-3.332 0.46094v-0.16016c5.4336-1.2461 9.5078-6.125 9.5078-11.965v-47.578l2.2031-0.085938c-0.75 0.57422-1.2734 1.4336-1.2734 2.4492 0 1.7227 1.3984 3.1133 3.1133 3.1133 1.7305 0 3.1289-1.3945 3.1289-3.1133 0-1.1055-0.60938-2.0234-1.4766-2.5703l0.38672-0.015626c3.5781 3.5859 8.4648 5.8242 13.887 5.8242 0.69141 0 1.3945-0.027343 2.1016-0.11328l7.3359-0.77734c0.55469 0.47656 1.2617 0.78906 2.0508 0.78906 1.1055 0 2.0508-0.64453 2.5898-1.5625 4.0391-1.0156 7.6367-3.1992 10.34-6.4531 0.23828 0.070312 0.46875 0.14844 0.72656 0.14844 1.7148 0 3.1133-1.3945 3.1133-3.1016 0-0.82031-0.33594-1.5625-0.85547-2.1211 1.2383-3.0117 1.8047-6.25 1.457-9.5625-0.13281-1.2031-0.39844-2.3398-0.72266-3.457 0.027344-0.17578 0.14062-0.31641 0.14062-0.48828 0-1.0508-0.53906-1.9375-1.3242-2.5117-3.4648-7.2305-11.074-11.957-19.738-11.02l-9.2734 0.98828c-4.1289 0.43359-7.8125 2.1484-10.738 4.6758-0.015625-1.707-1.3984-3.0938-3.1211-3.0938-1.7148 0-3.1133 1.3984-3.1133 3.1211 0 1.7148 1.3984 3.1133 3.1133 3.1133 0.10547 0 0.18359-0.050781 0.28516-0.054688-0.44922 0.59375-0.85547 1.2188-1.2305 1.8555l-3.1094 0.14844v-8.3594c0-5.5352-3.6758-10.172-8.6875-11.695-0.015625-1.8477-0.007812-3.6875-0.019531-5.5352 1.2656-0.39844 2.1992-1.5391 2.1992-2.9336 0-1.3984-0.95313-2.5391-2.2188-2.9336-0.027344-3.2344-0.085938-6.5039-0.11719-9.75 1.3281-0.35547 2.3398-1.5195 2.3398-2.9609 0-1.4648-1.043-2.6445-2.4219-2.9688-0.035157-3.2148-0.089844-6.4414-0.13281-9.668 1.4336-0.28125 2.5469-1.4844 2.5469-2.9961 0-1.5469-1.1562-2.7773-2.6406-3.0234-0.050781-3.207-0.070312-6.3711-0.13281-9.582 1.5469-0.18359 2.7734-1.457 2.7734-3.0469 0-1.6367-1.2969-2.9609-2.9062-3.0742-0.035156-1.7148-0.089843-3.4648-0.125-5.1797h10.562c-0.019531 0.14844-0.089843 0.28516-0.089843 0.44141 0 1.7227 1.3984 3.1211 3.1133 3.1211 1.7305 0 3.1289-1.3984 3.1289-3.1211 0-0.15234-0.070313-0.29297-0.089844-0.44141h21.309c-0.019531 0.14844-0.089844 0.28516-0.089844 0.44141 0 1.7227 1.3984 3.1211 3.1211 3.1211 1.7148 0 3.1133-1.3984 3.1133-3.1211 0-0.15234-0.070312-0.29297-0.089844-0.44141h21.316c-0.019531 0.14844-0.089844 0.28516-0.089844 0.44141 0 1.7227 1.3984 3.1211 3.1133 3.1211s3.1133-1.3984 3.1133-3.1211c0-0.15234-0.070313-0.29297-0.089844-0.44141h21.316c-0.019531 0.15234-0.089844 0.29297-0.089844 0.44922 0 1.7227 1.3984 3.1211 3.1133 3.1211 1.7148 0 3.1133-1.3984 3.1133-3.1211 0-0.15234-0.070313-0.29297-0.089844-0.44922h21.32c-0.019532 0.14844-0.089844 0.28516-0.089844 0.44922 0 1.7227 1.3945 3.1211 3.1094 3.1211 1.7227 0 3.1211-1.3984 3.1211-3.1211 0-0.16016-0.070312-0.29297-0.089843-0.44922h21.309c-0.019531 0.15234-0.089843 0.29297-0.089843 0.44922 0 1.7227 1.3984 3.1211 3.1133 3.1211 1.7305 0 3.1289-1.3984 3.1289-3.1211 0-0.089844-0.050781-0.16797-0.054687-0.25781 7.4492 0.875 20.566 3.5156 31.633 7.9648v241.18zm-127.43-158.32c0.41406 3.8281-0.69922 7.5898-3.1211 10.586-2.4219 2.9961-5.8594 4.8633-9.6953 5.2773l-9.2734 0.98828c-7.0898 0.77734-13.398-3.7188-15.324-10.227l16.844-1.8047-0.55859-5.2305-16.836 1.8047c0.52344-6.7969 5.8164-12.488 12.832-13.23l9.2734-0.98828c0.51953-0.054688 1.0273-0.085938 1.5469-0.085938 7.3672 0 13.527 5.5508 14.312 12.91zm-43.184 4.5977c0.25391 2.3789 0.95313 4.6055 1.9531 6.6445l-11.074 0.41406c0.019531-4.4297 0.078125-8.8633 0.085937-13.293l9.5469-0.43359c-0.51172 2.125-0.75781 4.3516-0.51172 6.668zm-9.1484 12.312 3.4648-0.14062v47.375c0 2.8711-1.7227 5.3359-4.1641 6.4258 0.36328-18 0.57812-35.859 0.69922-53.66zm3.4648-23.965-3.3594 0.16016c0-4.8867-0.035156-9.7773-0.054688-14.664 2.0039 1.2383 3.4141 3.3672 3.4141 5.9062zm-4.3398 89.074c0-0.17578 0.89062-0.96094 3.4102-0.96094 0.51953 0 0.94531 0.42578 0.94531 0.96094v10.758c0 0.53125-0.42578 0.96094-0.94531 0.96094-2.1992 0-3.3047-0.78906-3.4102-0.96094zm-121.43-284.57c27.176 0 60.629 1.7148 88.355 13.348 0.50391 0.1875 9.0664 4.1211 12.648 6.2148 7.6562 4.7305 12.824 13.152 13.168 21.434 4.1562 110.57 4.0117 208.94-0.46094 318.95-0.54688 12.336-11.285 23.91-23.395 25.262-30.238 2.8438-60.656 4.2891-90.391 4.2891s-60.129-1.4492-90.285-4.2891c-12.16-1.3633-22.898-12.938-23.457-25.25-4.4609-110.51-4.5977-208.89-0.45312-318.95 0.35156-8.3867 5.3633-16.574 13.02-21.352 3.4727-2.043 7.0859-3.8359 10.773-5.4883 1.0352-0.41406 2.0234-0.84766 3.0859-1.2539 27-11.129 58.844-12.914 87.391-12.914zm-135.91 360.87c-0.51172-1.0156-1.5391-1.7344-2.7578-1.7344-1.2109 0-2.2344 0.72656-2.75 1.7344h-21.867c-0.51172-1.0156-1.5391-1.7344-2.7578-1.7344-1.2109 0-2.2344 0.72656-2.75 1.7344h-21.867c-0.51953-1.0156-1.5469-1.7344-2.7578-1.7344h-0.007813c-1.2109 0-2.2344 0.72656-2.75 1.7344h-21.867c-0.51172-1.0156-1.5391-1.7344-2.7578-1.7344-1.2109 0-2.2344 0.72656-2.75 1.7344h-21.867c-0.51953-1.0156-1.5469-1.7344-2.7578-1.7344-1.2109 0-2.2344 0.72656-2.7578 1.7344h-21.867c-0.51172-1.0156-1.5391-1.7344-2.7578-1.7344-1.2109 0-2.2344 0.72656-2.75 1.7344h-21.844c-0.51953-1.0156-1.5469-1.7422-2.7578-1.7422-1.2109 0-2.2344 0.72656-2.7578 1.7344l-1.0938 0.003906v-241.19c9.5547-3.8438 20.613-6.3281 28.148-7.4961 0.11328 1.6172 1.4297 2.918 3.0742 2.918 1.7227 0 3.1211-1.3984 3.1211-3.1211 0-0.15234-0.070313-0.29297-0.089844-0.44141h21.316c-0.019531 0.14844-0.089843 0.28516-0.089843 0.44141 0 1.7227 1.3945 3.1211 3.1133 3.1211 1.7148 0 3.1133-1.3984 3.1133-3.1211 0-0.15234-0.0625-0.29297-0.089844-0.44141h21.316c-0.019531 0.14844-0.089843 0.28516-0.089843 0.44141 0 1.7227 1.3984 3.1211 3.1133 3.1211 1.7227 0 3.1211-1.3984 3.1211-3.1211 0-0.15234-0.070313-0.29297-0.089844-0.44141h21.309c-0.019532 0.14844-0.089844 0.28516-0.089844 0.44141 0 1.7227 1.3984 3.1211 3.1133 3.1211h0.007813c1.7148 0 3.1133-1.3984 3.1133-3.1211 0-0.15234-0.0625-0.29297-0.089844-0.44141h21.316c-0.019532 0.14844-0.089844 0.28516-0.089844 0.44141 0 1.7227 1.3984 3.1211 3.1133 3.1211 1.7227 0 3.1211-1.3984 3.1211-3.1211 0-0.15234-0.070313-0.29297-0.089844-0.44141h21.309c-0.019531 0.14844-0.089844 0.28516-0.089844 0.44141 0 1.7227 1.3984 3.1211 3.1133 3.1211 1.7227 0 3.1211-1.3984 3.1211-3.1211 0-0.15234-0.070312-0.29297-0.089844-0.44141h14.035c-0.16016 7.7266-0.30078 15.441-0.42187 23.105-0.36328-1.3242-1.5273-2.332-2.9609-2.332-1.7227 0-3.1133 1.3984-3.1133 3.1211 0 1.7148 1.3945 3.1133 3.1133 3.1133 1.3945 0 2.5352-0.9375 2.9336-2.2031-0.070313 4.4531-0.13281 8.9023-0.18359 13.336-0.51172-1.0078-1.5391-1.7227-2.75-1.7227-1.7227 0-3.1133 1.3984-3.1133 3.1133 0 1.7227 1.3945 3.1211 3.1133 3.1211 1.1836 0 2.1836-0.69141 2.7109-1.6641-0.042969 4.1797-0.097657 8.3711-0.13281 12.535-0.55859-0.85938-1.4844-1.4648-2.5742-1.4648-1.7227 0-3.1133 1.3984-3.1133 3.1133 0 1.7227 1.3945 3.1211 3.1133 3.1211 1.0859 0 2.0039-0.59375 2.5625-1.4492-0.027344 4.082-0.027344 8.1562-0.050781 12.234-0.55859-0.8125-1.457-1.3789-2.5117-1.3789-1.7227 0-3.1133 1.3984-3.1133 3.1211 0 1.7227 1.3945 3.1211 3.1133 3.1211 1.0508 0 1.9375-0.55859 2.5-1.3633-0.007812 4.0195-0.042968 8.043-0.042968 12.062-0.56641-0.76172-1.4336-1.2969-2.4648-1.2969-1.7227 0-3.1133 1.4062-3.1133 3.1289 0 1.707 1.3945 3.1133 3.1133 3.1133 1.0156 0 1.875-0.51953 2.4492-1.2891 0.007813 4.0195 0.054688 8.0586 0.078126 12.074-0.56641-0.82031-1.4648-1.3945-2.5195-1.3945-1.7227 0-3.1133 1.4062-3.1133 3.1289 0 1.707 1.3945 3.1016 3.1133 3.1016 1.0703 0 1.9805-0.57422 2.5391-1.4062 0.019531 4.1172 0.050781 8.2461 0.085937 12.363-0.54688-0.90234-1.4961-1.5312-2.625-1.5312-1.7227 0-3.1133 1.3945-3.1133 3.1133 0 1.707 1.3945 3.1133 3.1133 3.1133 1.1406 0 2.1055-0.65625 2.6445-1.5742 0.042968 4.2344 0.070312 8.4766 0.125 12.727-0.50391-1.0234-1.5469-1.75-2.7734-1.75-1.7227 0-3.1133 1.3945-3.1133 3.1133 0 1.7227 1.3945 3.1133 3.1133 3.1133 1.2539 0 2.3164-0.75 2.8125-1.8203 0.0625 4.6484 0.15234 9.3398 0.23047 14-0.17578-1.5469-1.4492-2.7734-3.0508-2.7734-1.7227 0-3.1133 1.4062-3.1133 3.1133 0 1.7227 1.3945 3.1133 3.1133 3.1133 1.6094 0 2.9062-1.2617 3.0664-2.8281 0.55469 32.445 1.4688 65.27 2.8438 99.316 0.015625 0.23047 0.085937 0.44922 0.097656 0.6875l-16.887 0.023437zm5.4102-341.79c0-2.6172 2.1289-4.7461 4.7461-4.7461h21.168c-2.6055 1.1328-5.2227 2.2695-7.75 3.3867-6.4414 2.8477-12.473 5.5039-18.164 7.6523zm-142.25 10.242c0-2.4141 1.9609-4.375 4.375-4.375h23.457c2.4141 0 4.375 1.9609 4.375 4.375v0.99219l-32.207 0.015625zm-12.141 6.2656h49.594v-0.019531l83.684-0.042969c11.25 0 23.848-5.2422 38.242-11.598-3.668 4.9961-5.9141 10.879-6.1602 16.883-0.83984 22.266-1.457 43.98-1.9375 65.484l-152.54 0.007813c-6.957 0.65234-20.754 3.2266-32.754 7.7422v-56.582c0-12.062 9.8086-21.875 21.875-21.875zm569.59 363.3h-569.59c-12.066 0-21.875-9.8438-21.875-21.945v-10.828h188.61c3.207 12.496 14.355 22.891 27.238 24.324 30.367 2.8711 60.93 4.3203 90.832 4.3203 29.902 0 60.48-1.4492 90.93-4.3203 12.832-1.4336 23.977-11.816 27.18-24.324h188.61v10.828c-0.003907 12.102-9.8438 21.945-21.941 21.945z"/>
 <path d="m351.64 288.7c-45.723 0-82.93 37.199-82.93 82.93 0 45.73 37.199 82.938 82.93 82.938s82.93-37.199 82.93-82.938c0-45.73-37.199-82.93-82.93-82.93zm0 160.62c-42.832 0-77.68-34.852-77.68-77.688 0-42.832 34.848-77.68 77.68-77.68s77.68 34.848 77.68 77.68c0 42.836-34.84 77.688-77.68 77.688z"/>
 <path d="m396.54 358.02c-6.0391-19.93-24.078-33.32-44.891-33.32-4.5977 0-9.1836 0.6875-13.629 2.0312-24.746 7.5117-38.781 33.762-31.277 58.52 6.0469 19.922 24.086 33.305 44.883 33.305 4.6055 0 9.1914-0.6875 13.637-2.0352 24.762-7.4922 38.789-33.742 31.277-58.5zm-44.91 55.285c-18.473 0-34.488-11.879-39.859-29.574-6.6641-22 5.7969-45.312 27.777-51.98 3.9492-1.1953 8.0234-1.8047 12.102-1.8047 18.48 0 34.504 11.895 39.871 29.59 6.6641 22-5.7969 45.297-27.777 51.969-3.9453 1.1992-8.0273 1.8008-12.113 1.8008z"/>
 <path d="m325.02 346.6c-8.9336 9.5078-12.137 23.156-8.3516 35.637 0.35156 1.1211 1.3867 1.8633 2.5117 1.8633 0.25391 0 0.50391-0.042968 0.75781-0.125 1.3867-0.41406 2.1758-1.8906 1.75-3.2695-3.2422-10.676-0.49609-22.363 7.1523-30.512 0.99219-1.0586 0.9375-2.7227-0.11719-3.7109-1.043-0.98047-2.7031-0.94141-3.7031 0.11719z"/>
 <path d="m333.54 339.87c-0.55469 0.30859-1.0859 0.62891-1.6094 0.97266-1.2266 0.78516-1.582 2.4062-0.79688 3.625 0.50391 0.78516 1.3516 1.2109 2.2109 1.2109 0.48438 0 0.98047-0.14063 1.4141-0.42188 0.44141-0.28516 0.89062-0.55859 1.3516-0.8125 1.2656-0.71484 1.707-2.3086 1.0078-3.5781-0.70703-1.25-2.3047-1.6953-3.5781-0.99609z"/>
 <path d="m493.92 224.64c7.3633 0 13.355-5.9922 13.355-13.363s-5.9922-13.363-13.355-13.363c-7.3711 0-13.363 5.9922-13.363 13.363s5.9922 13.363 13.363 13.363zm0-21.469c4.4727 0 8.1055 3.6406 8.1055 8.1133 0 4.4727-3.6406 8.1133-8.1055 8.1133-4.4805 0-8.1133-3.6406-8.1133-8.1133 0-4.4727 3.6328-8.1133 8.1133-8.1133z"/>
 <path d="m490.76 232.04v12.398c0 2.8008 2.2812 5.082 5.0898 5.082h64.133c2.793 0 5.0742-2.2812 5.0742-5.082v-12.398c0-2.8008-2.2734-5.082-5.0742-5.082h-64.133c-2.8008 0.007813-5.0898 2.2891-5.0898 5.082zm5.0898 0.17578 23.723-0.0625v12.23l-23.555 0.0625zm63.961 12.055-34.984 0.089844v-12.23l34.984-0.089844z"/>
 <path d="m654.14 277.7c0 4.1562-6.2305 4.1562-6.2305 0 0-4.1523 6.2305-4.1523 6.2305 0"/>
 <path d="m654.14 308.98c0 4.1523-6.2305 4.1523-6.2305 0 0-4.1523 6.2305-4.1523 6.2305 0"/>
 <path d="m654.14 293.34c0 4.1602-6.2461 4.1602-6.2461 0 0-4.1641 6.2461-4.1641 6.2461 0"/>
 <path d="m654.14 324.62c0 4.1523-6.2305 4.1523-6.2305 0s6.2305-4.1523 6.2305 0"/>
 <path d="m654.14 340.26c0 4.1562-6.2305 4.1562-6.2305 0 0-4.1523 6.2305-4.1523 6.2305 0"/>
 <path d="m654.14 355.91c0 4.1641-6.2461 4.1641-6.2461 0 0-4.1602 6.2461-4.1602 6.2461 0"/>
 <path d="m654.14 371.56c0 4.1562-6.2305 4.1562-6.2305 0 0-4.1523 6.2305-4.1523 6.2305 0"/>
 <path d="m640.45 269.87c0 4.1523-6.2266 4.1523-6.2266 0s6.2266-4.1523 6.2266 0"/>
 <path d="m640.45 285.52c0 4.1523-6.2266 4.1523-6.2266 0s6.2266-4.1523 6.2266 0"/>
 <path d="m640.45 301.15c0 4.1562-6.2266 4.1562-6.2266 0 0-4.1523 6.2266-4.1523 6.2266 0"/>
 <path d="m640.45 316.8c0 4.1523-6.2266 4.1523-6.2266 0 0-4.1562 6.2266-4.1562 6.2266 0"/>
 <path d="m640.46 332.45c0 4.1602-6.2422 4.1602-6.2422 0 0-4.1641 6.2422-4.1641 6.2422 0"/>
 <path d="m640.46 348.09c0 4.1602-6.2422 4.1602-6.2422 0 0-4.1641 6.2422-4.1641 6.2422 0"/>
 <path d="m640.45 363.73c0 4.1523-6.2266 4.1523-6.2266 0 0-4.1523 6.2266-4.1523 6.2266 0"/>
 <path d="m626.75 277.7c0 4.1562-6.2305 4.1562-6.2305 0 0-4.1523 6.2305-4.1523 6.2305 0"/>
 <path d="m626.75 308.98c0 4.1523-6.2305 4.1523-6.2305 0 0-4.1523 6.2305-4.1523 6.2305 0"/>
 <path d="m626.76 293.34c0 4.1602-6.2422 4.1602-6.2422 0 0-4.1641 6.2422-4.1641 6.2422 0"/>
 <path d="m626.75 324.62c0 4.1523-6.2305 4.1523-6.2305 0s6.2305-4.1523 6.2305 0"/>
 <path d="m626.75 340.26c0 4.1562-6.2305 4.1562-6.2305 0 0-4.1523 6.2305-4.1523 6.2305 0"/>
 <path d="m626.76 355.91c0 4.1641-6.2422 4.1641-6.2422 0 0-4.1602 6.2422-4.1602 6.2422 0"/>
 <path d="m626.75 371.56c0 4.1562-6.2305 4.1562-6.2305 0 0-4.1523 6.2305-4.1523 6.2305 0"/>
 <path d="m613.07 269.87c0 4.1523-6.2305 4.1523-6.2305 0s6.2305-4.1523 6.2305 0"/>
 <path d="m613.07 285.52c0 4.1523-6.2305 4.1523-6.2305 0s6.2305-4.1523 6.2305 0"/>
 <path d="m613.07 301.15c0 4.1562-6.2305 4.1562-6.2305 0 0-4.1523 6.2305-4.1523 6.2305 0"/>
 <path d="m613.07 316.8c0 4.1523-6.2305 4.1523-6.2305 0 0-4.1562 6.2305-4.1562 6.2305 0"/>
 <path d="m613.07 332.45c0 4.1602-6.2461 4.1602-6.2461 0 0-4.1641 6.2461-4.1641 6.2461 0"/>
 <path d="m613.07 348.09c0 4.1602-6.2461 4.1602-6.2461 0 0-4.1641 6.2461-4.1641 6.2461 0"/>
 <path d="m613.07 363.73c0 4.1523-6.2305 4.1523-6.2305 0 0-4.1523 6.2305-4.1523 6.2305 0"/>
 <path d="m599.38 277.7c0 4.1562-6.2305 4.1562-6.2305 0 0-4.1523 6.2305-4.1523 6.2305 0"/>
 <path d="m599.38 308.98c0 4.1523-6.2305 4.1523-6.2305 0 0-4.1523 6.2305-4.1523 6.2305 0"/>
 <path d="m599.39 293.34c0 4.1602-6.2461 4.1602-6.2461 0 0-4.1641 6.2461-4.1641 6.2461 0"/>
 <path d="m599.38 324.62c0 4.1523-6.2305 4.1523-6.2305 0s6.2305-4.1523 6.2305 0"/>
 <path d="m599.38 340.26c0 4.1562-6.2305 4.1562-6.2305 0 0-4.1523 6.2305-4.1523 6.2305 0"/>
 <path d="m599.39 355.91c0 4.1641-6.2461 4.1641-6.2461 0 0-4.1602 6.2461-4.1602 6.2461 0"/>
 <path d="m599.38 371.56c0 4.1562-6.2305 4.1562-6.2305 0 0-4.1523 6.2305-4.1523 6.2305 0"/>
 <path d="m585.7 269.87c0 4.1523-6.2266 4.1523-6.2266 0s6.2266-4.1523 6.2266 0"/>
 <path d="m585.7 285.52c0 4.1523-6.2266 4.1523-6.2266 0s6.2266-4.1523 6.2266 0"/>
 <path d="m585.7 301.15c0 4.1562-6.2266 4.1562-6.2266 0 0-4.1523 6.2266-4.1523 6.2266 0"/>
 <path d="m585.7 316.8c0 4.1523-6.2266 4.1523-6.2266 0 0-4.1562 6.2266-4.1562 6.2266 0"/>
 <path d="m585.7 332.45c0 4.1602-6.2422 4.1602-6.2422 0 0-4.1641 6.2422-4.1641 6.2422 0"/>
 <path d="m585.7 348.09c0 4.1602-6.2422 4.1602-6.2422 0 0-4.1641 6.2422-4.1641 6.2422 0"/>
 <path d="m585.7 363.73c0 4.1523-6.2266 4.1523-6.2266 0 0-4.1523 6.2266-4.1523 6.2266 0"/>
 <path d="m572.01 277.7c0 4.1562-6.2305 4.1562-6.2305 0 0-4.1523 6.2305-4.1523 6.2305 0"/>
 <path d="m572.01 308.98c0 4.1523-6.2305 4.1523-6.2305 0 0-4.1523 6.2305-4.1523 6.2305 0"/>
 <path d="m572.02 293.34c0 4.1602-6.2461 4.1602-6.2461 0 0-4.1641 6.2461-4.1641 6.2461 0"/>
 <path d="m572.01 324.62c0 4.1523-6.2305 4.1523-6.2305 0s6.2305-4.1523 6.2305 0"/>
 <path d="m572.01 340.26c0 4.1562-6.2305 4.1562-6.2305 0 0-4.1523 6.2305-4.1523 6.2305 0"/>
 <path d="m572.02 355.91c0 4.1641-6.2461 4.1641-6.2461 0 0-4.1602 6.2461-4.1602 6.2461 0"/>
 <path d="m572.01 371.56c0 4.1562-6.2305 4.1562-6.2305 0 0-4.1523 6.2305-4.1523 6.2305 0"/>
 <path d="m558.32 269.87c0 4.1523-6.2305 4.1523-6.2305 0s6.2305-4.1523 6.2305 0"/>
 <path d="m558.32 285.52c0 4.1523-6.2305 4.1523-6.2305 0s6.2305-4.1523 6.2305 0"/>
 <path d="m558.32 301.15c0 4.1562-6.2305 4.1562-6.2305 0 0-4.1523 6.2305-4.1523 6.2305 0"/>
 <path d="m558.32 316.8c0 4.1523-6.2305 4.1523-6.2305 0 0-4.1562 6.2305-4.1562 6.2305 0"/>
 <path d="m558.33 332.45c0 4.1602-6.2461 4.1602-6.2461 0 0-4.1641 6.2461-4.1641 6.2461 0"/>
 <path d="m558.33 348.09c0 4.1602-6.2461 4.1602-6.2461 0 0-4.1641 6.2461-4.1641 6.2461 0"/>
 <path d="m558.32 363.73c0 4.1523-6.2305 4.1523-6.2305 0 0-4.1523 6.2305-4.1523 6.2305 0"/>
 <path d="m544.64 277.7c0 4.1562-6.2305 4.1562-6.2305 0 0-4.1523 6.2305-4.1523 6.2305 0"/>
 <path d="m544.64 308.98c0 4.1523-6.2305 4.1523-6.2305 0 0-4.1523 6.2305-4.1523 6.2305 0"/>
 <path d="m544.64 293.34c0 4.1602-6.2422 4.1602-6.2422 0 0-4.1641 6.2422-4.1641 6.2422 0"/>
 <path d="m544.64 324.62c0 4.1523-6.2305 4.1523-6.2305 0s6.2305-4.1523 6.2305 0"/>
 <path d="m544.64 340.26c0 4.1562-6.2305 4.1562-6.2305 0 0-4.1523 6.2305-4.1523 6.2305 0"/>
 <path d="m544.64 355.91c0 4.1641-6.2422 4.1641-6.2422 0 0-4.1602 6.2422-4.1602 6.2422 0"/>
 <path d="m544.64 371.56c0 4.1562-6.2305 4.1562-6.2305 0 0-4.1523 6.2305-4.1523 6.2305 0"/>
 <path d="m530.95 269.87c0 4.1523-6.2305 4.1523-6.2305 0s6.2305-4.1523 6.2305 0"/>
 <path d="m530.95 285.52c0 4.1523-6.2305 4.1523-6.2305 0s6.2305-4.1523 6.2305 0"/>
 <path d="m530.95 301.15c0 4.1562-6.2305 4.1562-6.2305 0 0-4.1523 6.2305-4.1523 6.2305 0"/>
 <path d="m530.95 316.8c0 4.1523-6.2305 4.1523-6.2305 0 0-4.1562 6.2305-4.1562 6.2305 0"/>
 <path d="m530.96 332.45c0 4.1602-6.2422 4.1602-6.2422 0 0-4.1641 6.2422-4.1641 6.2422 0"/>
 <path d="m517.27 277.7c0 4.1562-6.2305 4.1562-6.2305 0 0-4.1523 6.2305-4.1523 6.2305 0"/>
 <path d="m517.27 308.98c0 4.1523-6.2305 4.1523-6.2305 0 0-4.1523 6.2305-4.1523 6.2305 0"/>
 <path d="m517.27 293.34c0 4.1602-6.2461 4.1602-6.2461 0 0-4.1641 6.2461-4.1641 6.2461 0"/>
 <path d="m517.27 324.62c0 4.1523-6.2305 4.1523-6.2305 0s6.2305-4.1523 6.2305 0"/>
 <path d="m503.57 269.87c0 4.1523-6.2305 4.1523-6.2305 0s6.2305-4.1523 6.2305 0"/>
 <path d="m503.57 285.52c0 4.1523-6.2305 4.1523-6.2305 0s6.2305-4.1523 6.2305 0"/>
 <path d="m503.57 301.15c0 4.1562-6.2305 4.1562-6.2305 0 0-4.1523 6.2305-4.1523 6.2305 0"/>
 <path d="m503.57 316.8c0 4.1523-6.2305 4.1523-6.2305 0 0-4.1562 6.2305-4.1562 6.2305 0"/>
 <path d="m503.58 332.45c0 4.1602-6.2422 4.1602-6.2422 0 0-4.1641 6.2422-4.1641 6.2422 0"/>
 <path d="m489.88 277.7c0 4.1562-6.2305 4.1562-6.2305 0 0-4.1523 6.2305-4.1523 6.2305 0"/>
 <path d="m489.88 308.98c0 4.1523-6.2305 4.1523-6.2305 0 0-4.1523 6.2305-4.1523 6.2305 0"/>
 <path d="m489.89 293.34c0 4.1602-6.2422 4.1602-6.2422 0 0-4.1641 6.2422-4.1641 6.2422 0"/>
 <path d="m489.88 324.62c0 4.1523-6.2305 4.1523-6.2305 0s6.2305-4.1523 6.2305 0"/>
 <path d="m654.14 387.19c0 4.1641-6.2461 4.1641-6.2461 0 0-4.1641 6.2461-4.1641 6.2461 0"/>
 <path d="m654.14 418.47c0 4.1523-6.2305 4.1523-6.2305 0 0-4.1562 6.2305-4.1562 6.2305 0"/>
 <path d="m654.14 402.83c0 4.1523-6.2305 4.1523-6.2305 0s6.2305-4.1523 6.2305 0"/>
 <path d="m654.14 434.12c0 4.1562-6.2305 4.1562-6.2305 0 0-4.1523 6.2305-4.1523 6.2305 0"/>
 <path d="m654.14 449.77c0 4.1523-6.2305 4.1523-6.2305 0 0-4.1562 6.2305-4.1562 6.2305 0"/>
 <path d="m654.14 465.4c0 4.1523-6.2305 4.1523-6.2305 0s6.2305-4.1523 6.2305 0"/>
 <path d="m654.14 481.05c0 4.1523-6.2305 4.1523-6.2305 0s6.2305-4.1523 6.2305 0"/>
 <path d="m640.45 379.36c0 4.1562-6.2266 4.1562-6.2266 0 0-4.1523 6.2266-4.1523 6.2266 0"/>
 <path d="m640.46 395.02c0 4.1641-6.2422 4.1641-6.2422 0 0-4.1602 6.2422-4.1602 6.2422 0"/>
 <path d="m640.45 410.66c0 4.1562-6.2266 4.1562-6.2266 0 0-4.1523 6.2266-4.1523 6.2266 0"/>
 <path d="m640.45 426.3c0 4.1523-6.2266 4.1523-6.2266 0 0-4.1523 6.2266-4.1523 6.2266 0"/>
 <path d="m640.45 441.95c0 4.1523-6.2266 4.1523-6.2266 0 0-4.1523 6.2266-4.1523 6.2266 0"/>
 <path d="m640.45 457.58c0 4.1562-6.2266 4.1562-6.2266 0 0-4.1523 6.2266-4.1523 6.2266 0"/>
 <path d="m640.45 473.23c0 4.1562-6.2266 4.1562-6.2266 0 0-4.1523 6.2266-4.1523 6.2266 0"/>
 <path d="m626.76 387.19c0 4.1641-6.2422 4.1641-6.2422 0 0-4.1641 6.2422-4.1641 6.2422 0"/>
 <path d="m626.75 418.47c0 4.1523-6.2305 4.1523-6.2305 0 0-4.1562 6.2305-4.1562 6.2305 0"/>
 <path d="m626.75 402.83c0 4.1523-6.2305 4.1523-6.2305 0s6.2305-4.1523 6.2305 0"/>
 <path d="m626.75 434.12c0 4.1562-6.2305 4.1562-6.2305 0 0-4.1523 6.2305-4.1523 6.2305 0"/>
 <path d="m626.75 449.77c0 4.1523-6.2305 4.1523-6.2305 0 0-4.1562 6.2305-4.1562 6.2305 0"/>
 <path d="m626.75 465.4c0 4.1523-6.2305 4.1523-6.2305 0s6.2305-4.1523 6.2305 0"/>
 <path d="m626.75 481.05c0 4.1523-6.2305 4.1523-6.2305 0s6.2305-4.1523 6.2305 0"/>
 <path d="m613.07 379.36c0 4.1562-6.2305 4.1562-6.2305 0 0-4.1523 6.2305-4.1523 6.2305 0"/>
 <path d="m613.07 395.02c0 4.1641-6.2461 4.1641-6.2461 0 0-4.1602 6.2461-4.1602 6.2461 0"/>
 <path d="m613.07 410.66c0 4.1562-6.2305 4.1562-6.2305 0 0-4.1523 6.2305-4.1523 6.2305 0"/>
 <path d="m613.07 426.3c0 4.1523-6.2305 4.1523-6.2305 0 0-4.1523 6.2305-4.1523 6.2305 0"/>
 <path d="m613.07 441.95c0 4.1523-6.2305 4.1523-6.2305 0 0-4.1523 6.2305-4.1523 6.2305 0"/>
 <path d="m613.07 457.58c0 4.1562-6.2305 4.1562-6.2305 0 0-4.1523 6.2305-4.1523 6.2305 0"/>
 <path d="m613.07 473.23c0 4.1562-6.2305 4.1562-6.2305 0 0-4.1523 6.2305-4.1523 6.2305 0"/>
 <path d="m599.39 387.19c0 4.1641-6.2461 4.1641-6.2461 0 0-4.1641 6.2461-4.1641 6.2461 0"/>
 <path d="m599.38 418.47c0 4.1523-6.2305 4.1523-6.2305 0 0-4.1562 6.2305-4.1562 6.2305 0"/>
 <path d="m599.38 402.83c0 4.1523-6.2305 4.1523-6.2305 0s6.2305-4.1523 6.2305 0"/>
 <path d="m599.38 434.12c0 4.1562-6.2305 4.1562-6.2305 0 0-4.1523 6.2305-4.1523 6.2305 0"/>
 <path d="m599.38 449.77c0 4.1523-6.2305 4.1523-6.2305 0 0-4.1562 6.2305-4.1562 6.2305 0"/>
 <path d="m599.38 465.4c0 4.1523-6.2305 4.1523-6.2305 0s6.2305-4.1523 6.2305 0"/>
 <path d="m599.38 481.05c0 4.1523-6.2305 4.1523-6.2305 0s6.2305-4.1523 6.2305 0"/>
 <path d="m585.7 379.36c0 4.1562-6.2266 4.1562-6.2266 0 0-4.1523 6.2266-4.1523 6.2266 0"/>
 <path d="m585.7 395.02c0 4.1641-6.2422 4.1641-6.2422 0 0-4.1602 6.2422-4.1602 6.2422 0"/>
 <path d="m585.7 410.66c0 4.1562-6.2266 4.1562-6.2266 0 0-4.1523 6.2266-4.1523 6.2266 0"/>
 <path d="m585.7 426.3c0 4.1523-6.2266 4.1523-6.2266 0 0-4.1523 6.2266-4.1523 6.2266 0"/>
 <path d="m585.7 441.95c0 4.1523-6.2266 4.1523-6.2266 0 0-4.1523 6.2266-4.1523 6.2266 0"/>
 <path d="m585.7 457.58c0 4.1562-6.2266 4.1562-6.2266 0 0-4.1523 6.2266-4.1523 6.2266 0"/>
 <path d="m585.7 473.23c0 4.1562-6.2266 4.1562-6.2266 0 0-4.1523 6.2266-4.1523 6.2266 0"/>
 <path d="m572.02 387.19c0 4.1641-6.2461 4.1641-6.2461 0 0-4.1641 6.2461-4.1641 6.2461 0"/>
 <path d="m572.01 418.47c0 4.1523-6.2305 4.1523-6.2305 0 0-4.1562 6.2305-4.1562 6.2305 0"/>
 <path d="m572.01 402.83c0 4.1523-6.2305 4.1523-6.2305 0s6.2305-4.1523 6.2305 0"/>
 <path d="m572.01 434.12c0 4.1562-6.2305 4.1562-6.2305 0 0-4.1523 6.2305-4.1523 6.2305 0"/>
 <path d="m572.01 449.77c0 4.1523-6.2305 4.1523-6.2305 0 0-4.1562 6.2305-4.1562 6.2305 0"/>
 <path d="m572.01 465.4c0 4.1523-6.2305 4.1523-6.2305 0s6.2305-4.1523 6.2305 0"/>
 <path d="m572.01 481.05c0 4.1523-6.2305 4.1523-6.2305 0s6.2305-4.1523 6.2305 0"/>
 <path d="m558.32 379.36c0 4.1562-6.2305 4.1562-6.2305 0 0-4.1523 6.2305-4.1523 6.2305 0"/>
 <path d="m558.33 395.02c0 4.1641-6.2461 4.1641-6.2461 0 0-4.1602 6.2461-4.1602 6.2461 0"/>
 <path d="m558.32 410.66c0 4.1562-6.2305 4.1562-6.2305 0 0-4.1523 6.2305-4.1523 6.2305 0"/>
 <path d="m558.32 426.3c0 4.1523-6.2305 4.1523-6.2305 0 0-4.1523 6.2305-4.1523 6.2305 0"/>
 <path d="m558.32 441.95c0 4.1523-6.2305 4.1523-6.2305 0 0-4.1523 6.2305-4.1523 6.2305 0"/>
 <path d="m558.32 457.58c0 4.1562-6.2305 4.1562-6.2305 0 0-4.1523 6.2305-4.1523 6.2305 0"/>
 <path d="m558.32 473.23c0 4.1562-6.2305 4.1562-6.2305 0 0-4.1523 6.2305-4.1523 6.2305 0"/>
 <path d="m654.14 496.68c0 4.1562-6.2305 4.1562-6.2305 0 0-4.1523 6.2305-4.1523 6.2305 0"/>
 <path d="m640.45 488.87c0 4.1523-6.2266 4.1523-6.2266 0 0-4.1562 6.2266-4.1562 6.2266 0"/>
 <path d="m640.45 504.5c0 4.1523-6.2266 4.1523-6.2266 0s6.2266-4.1523 6.2266 0"/>
 <path d="m626.75 496.68c0 4.1562-6.2305 4.1562-6.2305 0 0-4.1523 6.2305-4.1523 6.2305 0"/>
 <path d="m613.07 488.87c0 4.1523-6.2305 4.1523-6.2305 0 0-4.1562 6.2305-4.1562 6.2305 0"/>
 <path d="m613.07 504.5c0 4.1523-6.2305 4.1523-6.2305 0s6.2305-4.1523 6.2305 0"/>
 <path d="m599.38 496.68c0 4.1562-6.2305 4.1562-6.2305 0 0-4.1523 6.2305-4.1523 6.2305 0"/>
 <path d="m585.7 488.87c0 4.1523-6.2266 4.1523-6.2266 0 0-4.1562 6.2266-4.1562 6.2266 0"/>
 <path d="m585.7 504.5c0 4.1523-6.2266 4.1523-6.2266 0s6.2266-4.1523 6.2266 0"/>
 <path d="m572.01 496.68c0 4.1562-6.2305 4.1562-6.2305 0 0-4.1523 6.2305-4.1523 6.2305 0"/>
 <path d="m558.32 488.87c0 4.1523-6.2305 4.1523-6.2305 0 0-4.1562 6.2305-4.1562 6.2305 0"/>
 <path d="m558.32 504.5c0 4.1523-6.2305 4.1523-6.2305 0s6.2305-4.1523 6.2305 0"/>
 <path d="m544.64 387.19c0 4.1641-6.2422 4.1641-6.2422 0 0-4.1641 6.2422-4.1641 6.2422 0"/>
 <path d="m544.64 418.47c0 4.1523-6.2305 4.1523-6.2305 0 0-4.1562 6.2305-4.1562 6.2305 0"/>
 <path d="m544.64 402.83c0 4.1523-6.2305 4.1523-6.2305 0s6.2305-4.1523 6.2305 0"/>
 <path d="m544.64 434.12c0 4.1562-6.2305 4.1562-6.2305 0 0-4.1523 6.2305-4.1523 6.2305 0"/>
 <path d="m544.64 449.77c0 4.1523-6.2305 4.1523-6.2305 0 0-4.1562 6.2305-4.1562 6.2305 0"/>
 <path d="m544.64 465.4c0 4.1523-6.2305 4.1523-6.2305 0s6.2305-4.1523 6.2305 0"/>
 <path d="m530.95 473.23c0 4.1562-6.2305 4.1562-6.2305 0 0-4.1523 6.2305-4.1523 6.2305 0"/>
 <path d="m544.64 481.05c0 4.1523-6.2305 4.1523-6.2305 0s6.2305-4.1523 6.2305 0"/>
 <path d="m530.95 379.36c0 4.1562-6.2305 4.1562-6.2305 0 0-4.1523 6.2305-4.1523 6.2305 0"/>
 <path d="m530.96 395.02c0 4.1641-6.2422 4.1641-6.2422 0 0-4.1602 6.2422-4.1602 6.2422 0"/>
 <path d="m530.95 410.66c0 4.1562-6.2305 4.1562-6.2305 0 0-4.1523 6.2305-4.1523 6.2305 0"/>
 <path d="m530.95 426.3c0 4.1523-6.2305 4.1523-6.2305 0 0-4.1523 6.2305-4.1523 6.2305 0"/>
 <path d="m530.95 441.95c0 4.1523-6.2305 4.1523-6.2305 0 0-4.1523 6.2305-4.1523 6.2305 0"/>
 <path d="m530.95 457.58c0 4.1562-6.2305 4.1562-6.2305 0 0-4.1523 6.2305-4.1523 6.2305 0"/>
 <path d="m517.27 387.19c0 4.1641-6.2461 4.1641-6.2461 0 0-4.1641 6.2461-4.1641 6.2461 0"/>
 <path d="m517.27 418.47c0 4.1523-6.2305 4.1523-6.2305 0 0-4.1562 6.2305-4.1562 6.2305 0"/>
 <path d="m517.27 402.83c0 4.1523-6.2305 4.1523-6.2305 0s6.2305-4.1523 6.2305 0"/>
 <path d="m517.27 434.12c0 4.1562-6.2305 4.1562-6.2305 0 0-4.1523 6.2305-4.1523 6.2305 0"/>
 <path d="m517.27 449.77c0 4.1523-6.2305 4.1523-6.2305 0 0-4.1562 6.2305-4.1562 6.2305 0"/>
 <path d="m517.27 465.4c0 4.1523-6.2305 4.1523-6.2305 0s6.2305-4.1523 6.2305 0"/>
 <path d="m517.27 481.05c0 4.1523-6.2305 4.1523-6.2305 0s6.2305-4.1523 6.2305 0"/>
 <path d="m503.57 379.36c0 4.1562-6.2305 4.1562-6.2305 0 0-4.1523 6.2305-4.1523 6.2305 0"/>
 <path d="m503.58 395.02c0 4.1641-6.2422 4.1641-6.2422 0 0-4.1602 6.2422-4.1602 6.2422 0"/>
 <path d="m503.57 410.66c0 4.1562-6.2305 4.1562-6.2305 0 0-4.1523 6.2305-4.1523 6.2305 0"/>
 <path d="m503.57 426.3c0 4.1523-6.2305 4.1523-6.2305 0 0-4.1523 6.2305-4.1523 6.2305 0"/>
 <path d="m503.57 441.95c0 4.1523-6.2305 4.1523-6.2305 0 0-4.1523 6.2305-4.1523 6.2305 0"/>
 <path d="m503.57 457.58c0 4.1562-6.2305 4.1562-6.2305 0 0-4.1523 6.2305-4.1523 6.2305 0"/>
 <path d="m503.57 473.23c0 4.1562-6.2305 4.1562-6.2305 0 0-4.1523 6.2305-4.1523 6.2305 0"/>
 <path d="m489.89 387.19c0 4.1641-6.2422 4.1641-6.2422 0 0-4.1641 6.2422-4.1641 6.2422 0"/>
 <path d="m489.88 418.47c0 4.1523-6.2305 4.1523-6.2305 0 0-4.1562 6.2305-4.1562 6.2305 0"/>
 <path d="m489.88 402.83c0 4.1523-6.2305 4.1523-6.2305 0s6.2305-4.1523 6.2305 0"/>
 <path d="m489.88 434.12c0 4.1562-6.2305 4.1562-6.2305 0 0-4.1523 6.2305-4.1523 6.2305 0"/>
 <path d="m489.88 449.77c0 4.1523-6.2305 4.1523-6.2305 0 0-4.1562 6.2305-4.1562 6.2305 0"/>
 <path d="m489.88 465.4c0 4.1523-6.2305 4.1523-6.2305 0s6.2305-4.1523 6.2305 0"/>
 <path d="m489.88 481.05c0 4.1523-6.2305 4.1523-6.2305 0s6.2305-4.1523 6.2305 0"/>
 <path d="m544.64 496.68c0 4.1562-6.2305 4.1562-6.2305 0 0-4.1523 6.2305-4.1523 6.2305 0"/>
 <path d="m530.95 488.87c0 4.1523-6.2305 4.1523-6.2305 0 0-4.1562 6.2305-4.1562 6.2305 0"/>
 <path d="m530.95 504.5c0 4.1523-6.2305 4.1523-6.2305 0s6.2305-4.1523 6.2305 0"/>
 <path d="m517.27 496.68c0 4.1562-6.2305 4.1562-6.2305 0 0-4.1523 6.2305-4.1523 6.2305 0"/>
 <path d="m503.57 488.87c0 4.1523-6.2305 4.1523-6.2305 0 0-4.1562 6.2305-4.1562 6.2305 0"/>
 <path d="m503.57 504.5c0 4.1523-6.2305 4.1523-6.2305 0s6.2305-4.1523 6.2305 0"/>
 <path d="m489.88 496.68c0 4.1562-6.2305 4.1562-6.2305 0 0-4.1523 6.2305-4.1523 6.2305 0"/>
 <path d="m229.84 269.87c0 4.1523-6.2305 4.1523-6.2305 0s6.2305-4.1523 6.2305 0"/>
 <path d="m216.14 277.7c0 4.1562-6.2305 4.1562-6.2305 0 0-4.1523 6.2305-4.1523 6.2305 0"/>
 <path d="m216.14 308.98c0 4.1523-6.2305 4.1523-6.2305 0 0-4.1523 6.2305-4.1523 6.2305 0"/>
 <path d="m216.15 293.34c0 4.1602-6.2422 4.1602-6.2422 0 0-4.1641 6.2422-4.1641 6.2422 0"/>
 <path d="m216.14 324.62c0 4.1523-6.2305 4.1523-6.2305 0s6.2305-4.1523 6.2305 0"/>
 <path d="m216.14 340.26c0 4.1562-6.2305 4.1562-6.2305 0 0-4.1523 6.2305-4.1523 6.2305 0"/>
 <path d="m216.15 355.91c0 4.1641-6.2422 4.1641-6.2422 0 0-4.1602 6.2422-4.1602 6.2422 0"/>
 <path d="m216.14 371.56c0 4.1562-6.2305 4.1562-6.2305 0 0-4.1523 6.2305-4.1523 6.2305 0"/>
 <path d="m202.46 269.87c0 4.1523-6.2305 4.1523-6.2305 0s6.2305-4.1523 6.2305 0"/>
 <path d="m202.46 285.52c0 4.1523-6.2305 4.1523-6.2305 0s6.2305-4.1523 6.2305 0"/>
 <path d="m202.46 301.15c0 4.1562-6.2305 4.1562-6.2305 0 0-4.1523 6.2305-4.1523 6.2305 0"/>
 <path d="m202.46 316.8c0 4.1523-6.2305 4.1523-6.2305 0 0-4.1562 6.2305-4.1562 6.2305 0"/>
 <path d="m202.47 332.45c0 4.1602-6.2461 4.1602-6.2461 0 0-4.1641 6.2461-4.1641 6.2461 0"/>
 <path d="m202.47 348.09c0 4.1602-6.2461 4.1602-6.2461 0 0-4.1641 6.2461-4.1641 6.2461 0"/>
 <path d="m202.46 363.73c0 4.1523-6.2305 4.1523-6.2305 0 0-4.1523 6.2305-4.1523 6.2305 0"/>
 <path d="m188.77 277.7c0 4.1562-6.2305 4.1562-6.2305 0 0-4.1523 6.2305-4.1523 6.2305 0"/>
 <path d="m188.77 308.98c0 4.1523-6.2305 4.1523-6.2305 0 0-4.1523 6.2305-4.1523 6.2305 0"/>
 <path d="m188.78 293.34c0 4.1602-6.2461 4.1602-6.2461 0 0-4.1641 6.2461-4.1641 6.2461 0"/>
 <path d="m188.77 324.62c0 4.1523-6.2305 4.1523-6.2305 0s6.2305-4.1523 6.2305 0"/>
 <path d="m188.77 340.26c0 4.1562-6.2305 4.1562-6.2305 0 0-4.1523 6.2305-4.1523 6.2305 0"/>
 <path d="m188.78 355.91c0 4.1641-6.2461 4.1641-6.2461 0 0-4.1602 6.2461-4.1602 6.2461 0"/>
 <path d="m188.77 371.56c0 4.1562-6.2305 4.1562-6.2305 0 0-4.1523 6.2305-4.1523 6.2305 0"/>
 <path d="m175.09 269.87c0 4.1523-6.2305 4.1523-6.2305 0s6.2305-4.1523 6.2305 0"/>
 <path d="m175.09 285.52c0 4.1523-6.2305 4.1523-6.2305 0s6.2305-4.1523 6.2305 0"/>
 <path d="m175.09 301.15c0 4.1562-6.2305 4.1562-6.2305 0 0-4.1523 6.2305-4.1523 6.2305 0"/>
 <path d="m175.09 316.8c0 4.1523-6.2305 4.1523-6.2305 0 0-4.1562 6.2305-4.1562 6.2305 0"/>
 <path d="m175.09 332.45c0 4.1602-6.2422 4.1602-6.2422 0 0-4.1641 6.2422-4.1641 6.2422 0"/>
 <path d="m175.09 348.09c0 4.1602-6.2422 4.1602-6.2422 0 0-4.1641 6.2422-4.1641 6.2422 0"/>
 <path d="m175.09 363.73c0 4.1523-6.2305 4.1523-6.2305 0 0-4.1523 6.2305-4.1523 6.2305 0"/>
 <path d="m158.29 274.58c-0.007812 0-0.007812 0 0 0-1.7227 0-3.1211 1.3984-3.1211 3.1211 0 1.7148 1.3984 3.1133 3.1133 3.1133h0.007812c1.7148 0 3.1133-1.3984 3.1133-3.1133 0.007812-1.7227-1.3984-3.1211-3.1133-3.1211z"/>
 <path d="m158.29 305.86c-0.007812 0-0.007812 0 0 0-1.7227 0-3.1211 1.3984-3.1211 3.1211 0 1.7148 1.3984 3.1133 3.1133 3.1133h0.007812c1.7148 0 3.1133-1.3984 3.1133-3.1133 0.007812-1.7148-1.3984-3.1211-3.1133-3.1211z"/>
 <path d="m158.29 290.21c-0.007812 0-0.007812 0 0 0-1.7227 0-3.1211 1.3984-3.1211 3.1211 0 1.7148 1.3984 3.1133 3.1133 3.1133h0.007812c1.7148 0 3.1133-1.3984 3.1133-3.1133 0.007812-1.7227-1.3984-3.1211-3.1133-3.1211z"/>
 <path d="m158.29 321.5c-0.007812 0-0.007812 0 0 0-1.7227 0-3.1211 1.3984-3.1211 3.1133 0 1.7227 1.3984 3.1211 3.1133 3.1211h0.007812c1.7148 0 3.1133-1.3984 3.1133-3.1211 0.007812-1.7148-1.3984-3.1133-3.1133-3.1133z"/>
 <path d="m158.29 337.15c-0.007812 0-0.007812 0 0 0-1.7227 0-3.1211 1.3984-3.1211 3.1211 0 1.7148 1.3984 3.1133 3.1133 3.1133h0.007812c1.7148 0 3.1133-1.3984 3.1133-3.1133 0.007812-1.7227-1.3984-3.1211-3.1133-3.1211z"/>
 <path d="m158.29 352.79c-0.007812 0-0.007812 0 0 0-1.7227 0-3.1211 1.3984-3.1211 3.1133 0 1.7305 1.3984 3.1211 3.1133 3.1211h0.007812c1.7148 0 3.1133-1.3945 3.1133-3.1211 0.007812-1.7109-1.3984-3.1133-3.1133-3.1133z"/>
 <path d="m158.29 368.45c-0.007812 0-0.007812 0 0 0-1.7227 0-3.1211 1.3945-3.1211 3.1016 0 1.7227 1.3984 3.1289 3.1133 3.1289h0.007812c1.7148 0 3.1133-1.4062 3.1133-3.1289 0.007812-1.707-1.3984-3.1016-3.1133-3.1016z"/>
 <path d="m147.71 363.73c0 4.1523-6.2305 4.1523-6.2305 0 0-4.1523 6.2305-4.1523 6.2305 0"/>
 <path d="m147.71 269.87c0 4.1523-6.2305 4.1523-6.2305 0s6.2305-4.1523 6.2305 0"/>
 <path d="m147.71 285.52c0 4.1523-6.2305 4.1523-6.2305 0s6.2305-4.1523 6.2305 0"/>
 <path d="m147.71 301.15c0 4.1562-6.2305 4.1562-6.2305 0 0-4.1523 6.2305-4.1523 6.2305 0"/>
 <path d="m147.71 316.8c0 4.1523-6.2305 4.1523-6.2305 0 0-4.1562 6.2305-4.1562 6.2305 0"/>
 <path d="m147.71 332.45c0 4.1602-6.2461 4.1602-6.2461 0 0-4.1641 6.2461-4.1641 6.2461 0"/>
 <path d="m147.71 348.09c0 4.1602-6.2461 4.1602-6.2461 0 0-4.1641 6.2461-4.1641 6.2461 0"/>
 <path d="m134.02 277.7c0 4.1562-6.2305 4.1562-6.2305 0 0-4.1523 6.2305-4.1523 6.2305 0"/>
 <path d="m134.02 308.98c0 4.1523-6.2305 4.1523-6.2305 0 0-4.1523 6.2305-4.1523 6.2305 0"/>
 <path d="m134.03 293.34c0 4.1602-6.2422 4.1602-6.2422 0 0-4.1641 6.2422-4.1641 6.2422 0"/>
 <path d="m134.02 324.62c0 4.1523-6.2305 4.1523-6.2305 0s6.2305-4.1523 6.2305 0"/>
 <path d="m134.02 340.26c0 4.1562-6.2305 4.1562-6.2305 0 0-4.1523 6.2305-4.1523 6.2305 0"/>
 <path d="m134.03 355.91c0 4.1641-6.2422 4.1641-6.2422 0 0-4.1602 6.2422-4.1602 6.2422 0"/>
 <path d="m134.02 371.56c0 4.1562-6.2305 4.1562-6.2305 0 0-4.1523 6.2305-4.1523 6.2305 0"/>
 <path d="m120.34 269.87c0 4.1523-6.2305 4.1523-6.2305 0s6.2305-4.1523 6.2305 0"/>
 <path d="m120.34 285.52c0 4.1523-6.2305 4.1523-6.2305 0s6.2305-4.1523 6.2305 0"/>
 <path d="m120.34 301.15c0 4.1562-6.2305 4.1562-6.2305 0 0-4.1523 6.2305-4.1523 6.2305 0"/>
 <path d="m120.34 316.8c0 4.1523-6.2305 4.1523-6.2305 0 0-4.1562 6.2305-4.1562 6.2305 0"/>
 <path d="m120.34 332.45c0 4.1602-6.2422 4.1602-6.2422 0 0-4.1641 6.2422-4.1641 6.2422 0"/>
 <path d="m120.34 348.09c0 4.1602-6.2422 4.1602-6.2422 0 0-4.1641 6.2422-4.1641 6.2422 0"/>
 <path d="m120.34 363.73c0 4.1523-6.2305 4.1523-6.2305 0 0-4.1523 6.2305-4.1523 6.2305 0"/>
 <path d="m106.65 277.7c0 4.1562-6.2305 4.1562-6.2305 0 0-4.1523 6.2305-4.1523 6.2305 0"/>
 <path d="m106.65 308.98c0 4.1523-6.2305 4.1523-6.2305 0 0-4.1523 6.2305-4.1523 6.2305 0"/>
 <path d="m106.66 293.34c0 4.1602-6.2461 4.1602-6.2461 0 0-4.1641 6.2461-4.1641 6.2461 0"/>
 <path d="m106.65 324.62c0 4.1523-6.2305 4.1523-6.2305 0s6.2305-4.1523 6.2305 0"/>
 <path d="m106.65 340.26c0 4.1562-6.2305 4.1562-6.2305 0 0-4.1523 6.2305-4.1523 6.2305 0"/>
 <path d="m106.66 355.91c0 4.1641-6.2461 4.1641-6.2461 0 0-4.1602 6.2461-4.1602 6.2461 0"/>
 <path d="m106.65 371.56c0 4.1562-6.2305 4.1562-6.2305 0 0-4.1523 6.2305-4.1523 6.2305 0"/>
 <path d="m92.969 269.87c0 4.1523-6.2305 4.1523-6.2305 0s6.2305-4.1523 6.2305 0"/>
 <path d="m92.969 285.52c0 4.1523-6.2305 4.1523-6.2305 0s6.2305-4.1523 6.2305 0"/>
 <path d="m92.969 301.15c0 4.1562-6.2305 4.1562-6.2305 0 0-4.1523 6.2305-4.1523 6.2305 0"/>
 <path d="m92.969 316.8c0 4.1523-6.2305 4.1523-6.2305 0 0-4.1562 6.2305-4.1562 6.2305 0"/>
 <path d="m92.973 332.45c0 4.1602-6.2422 4.1602-6.2422 0 0-4.1641 6.2422-4.1641 6.2422 0"/>
 <path d="m92.973 348.09c0 4.1602-6.2422 4.1602-6.2422 0 0-4.1641 6.2422-4.1641 6.2422 0"/>
 <path d="m92.969 363.73c0 4.1523-6.2305 4.1523-6.2305 0 0-4.1523 6.2305-4.1523 6.2305 0"/>
 <path d="m79.273 277.7c0 4.1562-6.2266 4.1562-6.2266 0 0-4.1523 6.2266-4.1523 6.2266 0"/>
 <path d="m79.273 308.98c0 4.1523-6.2266 4.1523-6.2266 0 0-4.1523 6.2266-4.1523 6.2266 0"/>
 <path d="m79.281 293.34c0 4.1602-6.2422 4.1602-6.2422 0 0-4.1641 6.2422-4.1641 6.2422 0"/>
 <path d="m79.273 324.62c0 4.1523-6.2266 4.1523-6.2266 0s6.2266-4.1523 6.2266 0"/>
 <path d="m79.273 340.26c0 4.1562-6.2266 4.1562-6.2266 0 0-4.1523 6.2266-4.1523 6.2266 0"/>
 <path d="m79.281 355.91c0 4.1641-6.2422 4.1641-6.2422 0 0-4.1602 6.2422-4.1602 6.2422 0"/>
 <path d="m79.273 371.56c0 4.1562-6.2266 4.1562-6.2266 0 0-4.1523 6.2266-4.1523 6.2266 0"/>
 <path d="m65.59 269.87c0 4.1523-6.2305 4.1523-6.2305 0s6.2305-4.1523 6.2305 0"/>
 <path d="m65.59 285.52c0 4.1523-6.2305 4.1523-6.2305 0s6.2305-4.1523 6.2305 0"/>
 <path d="m65.59 301.15c0 4.1562-6.2305 4.1562-6.2305 0 0-4.1523 6.2305-4.1523 6.2305 0"/>
 <path d="m65.59 316.8c0 4.1523-6.2305 4.1523-6.2305 0 0-4.1562 6.2305-4.1562 6.2305 0"/>
 <path d="m65.598 332.45c0 4.1602-6.2461 4.1602-6.2461 0 0-4.1641 6.2461-4.1641 6.2461 0"/>
 <path d="m65.598 348.09c0 4.1602-6.2461 4.1602-6.2461 0 0-4.1641 6.2461-4.1641 6.2461 0"/>
 <path d="m65.59 363.73c0 4.1523-6.2305 4.1523-6.2305 0 0-4.1523 6.2305-4.1523 6.2305 0"/>
 <path d="m51.906 277.7c0 4.1562-6.2305 4.1562-6.2305 0 0-4.1523 6.2305-4.1523 6.2305 0"/>
 <path d="m51.906 308.98c0 4.1523-6.2305 4.1523-6.2305 0 0-4.1523 6.2305-4.1523 6.2305 0"/>
 <path d="m51.91 293.34c0 4.1602-6.2422 4.1602-6.2422 0 0-4.1641 6.2422-4.1641 6.2422 0"/>
 <path d="m51.906 324.62c0 4.1523-6.2305 4.1523-6.2305 0s6.2305-4.1523 6.2305 0"/>
 <path d="m51.906 340.26c0 4.1562-6.2305 4.1562-6.2305 0 0-4.1523 6.2305-4.1523 6.2305 0"/>
 <path d="m51.91 355.91c0 4.1641-6.2422 4.1641-6.2422 0 0-4.1602 6.2422-4.1602 6.2422 0"/>
 <path d="m51.906 371.56c0 4.1562-6.2305 4.1562-6.2305 0 0-4.1523 6.2305-4.1523 6.2305 0"/>
 <path d="m229.84 426.3c0 4.1523-6.2305 4.1523-6.2305 0 0-4.1523 6.2305-4.1523 6.2305 0"/>
 <path d="m229.84 441.95c0 4.1523-6.2305 4.1523-6.2305 0 0-4.1523 6.2305-4.1523 6.2305 0"/>
 <path d="m229.84 457.58c0 4.1562-6.2305 4.1562-6.2305 0 0-4.1523 6.2305-4.1523 6.2305 0"/>
 <path d="m229.84 473.23c0 4.1562-6.2305 4.1562-6.2305 0 0-4.1523 6.2305-4.1523 6.2305 0"/>
 <path d="m216.15 387.19c0 4.1641-6.2422 4.1641-6.2422 0 0-4.1641 6.2422-4.1641 6.2422 0"/>
 <path d="m216.14 418.47c0 4.1523-6.2305 4.1523-6.2305 0 0-4.1562 6.2305-4.1562 6.2305 0"/>
 <path d="m216.14 402.83c0 4.1523-6.2305 4.1523-6.2305 0s6.2305-4.1523 6.2305 0"/>
 <path d="m216.14 434.12c0 4.1562-6.2305 4.1562-6.2305 0 0-4.1523 6.2305-4.1523 6.2305 0"/>
 <path d="m216.14 449.77c0 4.1523-6.2305 4.1523-6.2305 0 0-4.1562 6.2305-4.1562 6.2305 0"/>
 <path d="m216.14 465.4c0 4.1523-6.2305 4.1523-6.2305 0s6.2305-4.1523 6.2305 0"/>
 <path d="m216.14 481.05c0 4.1523-6.2305 4.1523-6.2305 0s6.2305-4.1523 6.2305 0"/>
 <path d="m202.46 379.36c0 4.1562-6.2305 4.1562-6.2305 0 0-4.1523 6.2305-4.1523 6.2305 0"/>
 <path d="m202.47 395.02c0 4.1641-6.2461 4.1641-6.2461 0 0-4.1602 6.2461-4.1602 6.2461 0"/>
 <path d="m202.46 410.66c0 4.1562-6.2305 4.1562-6.2305 0 0-4.1523 6.2305-4.1523 6.2305 0"/>
 <path d="m202.46 426.3c0 4.1523-6.2305 4.1523-6.2305 0 0-4.1523 6.2305-4.1523 6.2305 0"/>
 <path d="m202.46 441.95c0 4.1523-6.2305 4.1523-6.2305 0 0-4.1523 6.2305-4.1523 6.2305 0"/>
 <path d="m202.46 457.58c0 4.1562-6.2305 4.1562-6.2305 0 0-4.1523 6.2305-4.1523 6.2305 0"/>
 <path d="m202.46 473.23c0 4.1562-6.2305 4.1562-6.2305 0 0-4.1523 6.2305-4.1523 6.2305 0"/>
 <path d="m188.78 387.19c0 4.1641-6.2461 4.1641-6.2461 0 0-4.1641 6.2461-4.1641 6.2461 0"/>
 <path d="m188.77 418.47c0 4.1523-6.2305 4.1523-6.2305 0 0-4.1562 6.2305-4.1562 6.2305 0"/>
 <path d="m188.77 402.83c0 4.1523-6.2305 4.1523-6.2305 0s6.2305-4.1523 6.2305 0"/>
 <path d="m188.77 434.12c0 4.1562-6.2305 4.1562-6.2305 0 0-4.1523 6.2305-4.1523 6.2305 0"/>
 <path d="m188.77 449.77c0 4.1523-6.2305 4.1523-6.2305 0 0-4.1562 6.2305-4.1562 6.2305 0"/>
 <path d="m188.77 465.4c0 4.1523-6.2305 4.1523-6.2305 0s6.2305-4.1523 6.2305 0"/>
 <path d="m188.77 481.05c0 4.1523-6.2305 4.1523-6.2305 0s6.2305-4.1523 6.2305 0"/>
 <path d="m175.09 379.36c0 4.1562-6.2305 4.1562-6.2305 0 0-4.1523 6.2305-4.1523 6.2305 0"/>
 <path d="m175.09 395.02c0 4.1641-6.2422 4.1641-6.2422 0 0-4.1602 6.2422-4.1602 6.2422 0"/>
 <path d="m175.09 410.66c0 4.1562-6.2305 4.1562-6.2305 0 0-4.1523 6.2305-4.1523 6.2305 0"/>
 <path d="m175.09 426.3c0 4.1523-6.2305 4.1523-6.2305 0 0-4.1523 6.2305-4.1523 6.2305 0"/>
 <path d="m175.09 441.95c0 4.1523-6.2305 4.1523-6.2305 0 0-4.1523 6.2305-4.1523 6.2305 0"/>
 <path d="m175.09 457.58c0 4.1562-6.2305 4.1562-6.2305 0 0-4.1523 6.2305-4.1523 6.2305 0"/>
 <path d="m175.09 473.23c0 4.1562-6.2305 4.1562-6.2305 0 0-4.1523 6.2305-4.1523 6.2305 0"/>
 <path d="m158.29 384.07c-0.007812 0-0.007812 0 0 0-1.7227 0-3.1211 1.4062-3.1211 3.1289 0 1.707 1.3984 3.1133 3.1133 3.1133h0.007812c1.7148 0 3.1133-1.4062 3.1133-3.1133 0.007812-1.7227-1.3984-3.1289-3.1133-3.1289z"/>
 <path d="m158.29 415.35c-0.007812 0-0.007812 0 0 0-1.7227 0-3.1211 1.4062-3.1211 3.1289 0 1.707 1.3984 3.1016 3.1133 3.1016h0.007812c1.7148 0 3.1133-1.3945 3.1133-3.1016 0.007812-1.7227-1.3984-3.1289-3.1133-3.1289z"/>
 <path d="m158.29 399.71c-0.007812 0-0.007812 0 0 0-1.7227 0-3.1211 1.4062-3.1211 3.1133 0 1.7227 1.3984 3.1133 3.1133 3.1133h0.007812c1.7148 0 3.1133-1.3945 3.1133-3.1133 0.007812-1.707-1.3984-3.1133-3.1133-3.1133z"/>
 <path d="m158.29 431c-0.007812 0-0.007812 0 0 0-1.7227 0-3.1211 1.3945-3.1211 3.1016 0 1.7227 1.3984 3.1289 3.1133 3.1289h0.007812c1.7148 0 3.1133-1.4062 3.1133-3.1289 0.007812-1.707-1.3984-3.1016-3.1133-3.1016z"/>
 <path d="m158.29 446.65c-0.007812 0-0.007812 0 0 0-1.7227 0-3.1211 1.3945-3.1211 3.1133 0 1.7227 1.3984 3.1133 3.1133 3.1133h0.007812c1.7148 0 3.1133-1.3945 3.1133-3.1133s-1.3984-3.1133-3.1133-3.1133z"/>
 <path d="m158.29 462.29c-0.007812 0-0.007812 0 0 0-1.7227 0-3.1211 1.3945-3.1211 3.1133 0 1.7227 1.3984 3.1133 3.1133 3.1133h0.007812c1.7148 0 3.1133-1.3945 3.1133-3.1133s-1.3984-3.1133-3.1133-3.1133z"/>
 <path d="m158.29 477.93c-0.007812 0-0.007812 0 0 0-1.7227 0-3.1211 1.4062-3.1211 3.1133 0 1.7227 1.3984 3.1133 3.1133 3.1133h0.007812c1.7148 0 3.1133-1.3945 3.1133-3.1133 0.007812-1.6992-1.3984-3.1133-3.1133-3.1133z"/>
 <path d="m229.84 488.87c0 4.1523-6.2305 4.1523-6.2305 0 0-4.1562 6.2305-4.1562 6.2305 0"/>
 <path d="m229.84 504.5c0 4.1523-6.2305 4.1523-6.2305 0s6.2305-4.1523 6.2305 0"/>
 <path d="m216.14 496.68c0 4.1562-6.2305 4.1562-6.2305 0 0-4.1523 6.2305-4.1523 6.2305 0"/>
 <path d="m202.46 488.87c0 4.1523-6.2305 4.1523-6.2305 0 0-4.1562 6.2305-4.1562 6.2305 0"/>
 <path d="m202.46 504.5c0 4.1523-6.2305 4.1523-6.2305 0s6.2305-4.1523 6.2305 0"/>
 <path d="m188.77 496.68c0 4.1562-6.2305 4.1562-6.2305 0 0-4.1523 6.2305-4.1523 6.2305 0"/>
 <path d="m175.09 488.87c0 4.1523-6.2305 4.1523-6.2305 0 0-4.1562 6.2305-4.1562 6.2305 0"/>
 <path d="m175.09 504.5c0 4.1523-6.2305 4.1523-6.2305 0s6.2305-4.1523 6.2305 0"/>
 <path d="m158.29 493.57c-0.007812 0-0.007812 0 0 0-1.7227 0-3.1211 1.4062-3.1211 3.1133 0 1.7227 1.3984 3.1133 3.1133 3.1133h0.007812c1.7148 0 3.1133-1.3945 3.1133-3.1133 0.007812-1.707-1.3984-3.1133-3.1133-3.1133z"/>
 <path d="m147.71 473.23c0 4.1562-6.2305 4.1562-6.2305 0 0-4.1523 6.2305-4.1523 6.2305 0"/>
 <path d="m147.71 379.36c0 4.1562-6.2305 4.1562-6.2305 0 0-4.1523 6.2305-4.1523 6.2305 0"/>
 <path d="m147.71 395.02c0 4.1641-6.2461 4.1641-6.2461 0 0-4.1602 6.2461-4.1602 6.2461 0"/>
 <path d="m147.71 410.66c0 4.1562-6.2305 4.1562-6.2305 0 0-4.1523 6.2305-4.1523 6.2305 0"/>
 <path d="m147.71 426.3c0 4.1523-6.2305 4.1523-6.2305 0 0-4.1523 6.2305-4.1523 6.2305 0"/>
 <path d="m147.71 441.95c0 4.1523-6.2305 4.1523-6.2305 0 0-4.1523 6.2305-4.1523 6.2305 0"/>
 <path d="m147.71 457.58c0 4.1562-6.2305 4.1562-6.2305 0 0-4.1523 6.2305-4.1523 6.2305 0"/>
 <path d="m134.03 387.19c0 4.1641-6.2422 4.1641-6.2422 0 0-4.1641 6.2422-4.1641 6.2422 0"/>
 <path d="m134.02 418.47c0 4.1523-6.2305 4.1523-6.2305 0 0-4.1562 6.2305-4.1562 6.2305 0"/>
 <path d="m134.02 402.83c0 4.1523-6.2305 4.1523-6.2305 0s6.2305-4.1523 6.2305 0"/>
 <path d="m134.02 434.12c0 4.1562-6.2305 4.1562-6.2305 0 0-4.1523 6.2305-4.1523 6.2305 0"/>
 <path d="m134.02 449.77c0 4.1523-6.2305 4.1523-6.2305 0 0-4.1562 6.2305-4.1562 6.2305 0"/>
 <path d="m134.02 465.4c0 4.1523-6.2305 4.1523-6.2305 0s6.2305-4.1523 6.2305 0"/>
 <path d="m134.02 481.05c0 4.1523-6.2305 4.1523-6.2305 0s6.2305-4.1523 6.2305 0"/>
 <path d="m120.34 379.36c0 4.1562-6.2305 4.1562-6.2305 0 0-4.1523 6.2305-4.1523 6.2305 0"/>
 <path d="m120.34 395.02c0 4.1641-6.2422 4.1641-6.2422 0 0-4.1602 6.2422-4.1602 6.2422 0"/>
 <path d="m120.34 410.66c0 4.1562-6.2305 4.1562-6.2305 0 0-4.1523 6.2305-4.1523 6.2305 0"/>
 <path d="m120.34 426.3c0 4.1523-6.2305 4.1523-6.2305 0 0-4.1523 6.2305-4.1523 6.2305 0"/>
 <path d="m120.34 441.95c0 4.1523-6.2305 4.1523-6.2305 0 0-4.1523 6.2305-4.1523 6.2305 0"/>
 <path d="m120.34 457.58c0 4.1562-6.2305 4.1562-6.2305 0 0-4.1523 6.2305-4.1523 6.2305 0"/>
 <path d="m120.34 473.23c0 4.1562-6.2305 4.1562-6.2305 0 0-4.1523 6.2305-4.1523 6.2305 0"/>
 <path d="m106.66 387.19c0 4.1641-6.2461 4.1641-6.2461 0 0-4.1641 6.2461-4.1641 6.2461 0"/>
 <path d="m106.65 418.47c0 4.1523-6.2305 4.1523-6.2305 0 0-4.1562 6.2305-4.1562 6.2305 0"/>
 <path d="m106.65 402.83c0 4.1523-6.2305 4.1523-6.2305 0s6.2305-4.1523 6.2305 0"/>
 <path d="m106.65 434.12c0 4.1562-6.2305 4.1562-6.2305 0 0-4.1523 6.2305-4.1523 6.2305 0"/>
 <path d="m106.65 449.77c0 4.1523-6.2305 4.1523-6.2305 0 0-4.1562 6.2305-4.1562 6.2305 0"/>
 <path d="m106.65 465.4c0 4.1523-6.2305 4.1523-6.2305 0s6.2305-4.1523 6.2305 0"/>
 <path d="m106.65 481.05c0 4.1523-6.2305 4.1523-6.2305 0s6.2305-4.1523 6.2305 0"/>
 <path d="m92.969 379.36c0 4.1562-6.2305 4.1562-6.2305 0 0-4.1523 6.2305-4.1523 6.2305 0"/>
 <path d="m92.973 395.02c0 4.1641-6.2422 4.1641-6.2422 0 0-4.1602 6.2422-4.1602 6.2422 0"/>
 <path d="m92.969 410.66c0 4.1562-6.2305 4.1562-6.2305 0 0-4.1523 6.2305-4.1523 6.2305 0"/>
 <path d="m92.969 426.3c0 4.1523-6.2305 4.1523-6.2305 0 0-4.1523 6.2305-4.1523 6.2305 0"/>
 <path d="m92.969 441.95c0 4.1523-6.2305 4.1523-6.2305 0 0-4.1523 6.2305-4.1523 6.2305 0"/>
 <path d="m92.969 457.58c0 4.1562-6.2305 4.1562-6.2305 0 0-4.1523 6.2305-4.1523 6.2305 0"/>
 <path d="m92.969 473.23c0 4.1562-6.2305 4.1562-6.2305 0 0-4.1523 6.2305-4.1523 6.2305 0"/>
 <path d="m79.281 387.19c0 4.1641-6.2422 4.1641-6.2422 0 0-4.1641 6.2422-4.1641 6.2422 0"/>
 <path d="m79.273 418.47c0 4.1523-6.2266 4.1523-6.2266 0 0-4.1562 6.2266-4.1562 6.2266 0"/>
 <path d="m79.273 402.83c0 4.1523-6.2266 4.1523-6.2266 0s6.2266-4.1523 6.2266 0"/>
 <path d="m79.273 434.12c0 4.1562-6.2266 4.1562-6.2266 0 0-4.1523 6.2266-4.1523 6.2266 0"/>
 <path d="m79.273 449.77c0 4.1523-6.2266 4.1523-6.2266 0 0-4.1562 6.2266-4.1562 6.2266 0"/>
 <path d="m79.273 465.4c0 4.1523-6.2266 4.1523-6.2266 0s6.2266-4.1523 6.2266 0"/>
 <path d="m79.273 481.05c0 4.1523-6.2266 4.1523-6.2266 0s6.2266-4.1523 6.2266 0"/>
 <path d="m65.59 379.36c0 4.1562-6.2305 4.1562-6.2305 0 0-4.1523 6.2305-4.1523 6.2305 0"/>
 <path d="m65.598 395.02c0 4.1641-6.2461 4.1641-6.2461 0 0-4.1602 6.2461-4.1602 6.2461 0"/>
 <path d="m65.59 410.66c0 4.1562-6.2305 4.1562-6.2305 0 0-4.1523 6.2305-4.1523 6.2305 0"/>
 <path d="m65.59 426.3c0 4.1523-6.2305 4.1523-6.2305 0 0-4.1523 6.2305-4.1523 6.2305 0"/>
 <path d="m65.59 441.95c0 4.1523-6.2305 4.1523-6.2305 0 0-4.1523 6.2305-4.1523 6.2305 0"/>
 <path d="m65.59 457.58c0 4.1562-6.2305 4.1562-6.2305 0 0-4.1523 6.2305-4.1523 6.2305 0"/>
 <path d="m65.59 473.23c0 4.1562-6.2305 4.1562-6.2305 0 0-4.1523 6.2305-4.1523 6.2305 0"/>
 <path d="m51.91 387.19c0 4.1641-6.2422 4.1641-6.2422 0 0-4.1641 6.2422-4.1641 6.2422 0"/>
 <path d="m51.906 418.47c0 4.1523-6.2305 4.1523-6.2305 0 0-4.1562 6.2305-4.1562 6.2305 0"/>
 <path d="m51.906 402.83c0 4.1523-6.2305 4.1523-6.2305 0s6.2305-4.1523 6.2305 0"/>
 <path d="m51.906 434.12c0 4.1562-6.2305 4.1562-6.2305 0 0-4.1523 6.2305-4.1523 6.2305 0"/>
 <path d="m51.906 449.77c0 4.1523-6.2305 4.1523-6.2305 0 0-4.1562 6.2305-4.1562 6.2305 0"/>
 <path d="m51.906 465.4c0 4.1523-6.2305 4.1523-6.2305 0s6.2305-4.1523 6.2305 0"/>
 <path d="m51.906 481.05c0 4.1523-6.2305 4.1523-6.2305 0s6.2305-4.1523 6.2305 0"/>
 <path d="m147.71 488.87c0 4.1523-6.2305 4.1523-6.2305 0 0-4.1562 6.2305-4.1562 6.2305 0"/>
 <path d="m147.71 504.5c0 4.1523-6.2305 4.1523-6.2305 0s6.2305-4.1523 6.2305 0"/>
 <path d="m134.02 496.68c0 4.1562-6.2305 4.1562-6.2305 0 0-4.1523 6.2305-4.1523 6.2305 0"/>
 <path d="m120.34 488.87c0 4.1523-6.2305 4.1523-6.2305 0 0-4.1562 6.2305-4.1562 6.2305 0"/>
 <path d="m120.34 504.5c0 4.1523-6.2305 4.1523-6.2305 0s6.2305-4.1523 6.2305 0"/>
 <path d="m106.65 496.68c0 4.1562-6.2305 4.1562-6.2305 0 0-4.1523 6.2305-4.1523 6.2305 0"/>
 <path d="m92.969 488.87c0 4.1523-6.2305 4.1523-6.2305 0 0-4.1562 6.2305-4.1562 6.2305 0"/>
 <path d="m92.969 504.5c0 4.1523-6.2305 4.1523-6.2305 0s6.2305-4.1523 6.2305 0"/>
 <path d="m79.273 496.68c0 4.1562-6.2266 4.1562-6.2266 0 0-4.1523 6.2266-4.1523 6.2266 0"/>
 <path d="m65.59 488.87c0 4.1523-6.2305 4.1523-6.2305 0 0-4.1562 6.2305-4.1562 6.2305 0"/>
 <path d="m65.59 504.5c0 4.1523-6.2305 4.1523-6.2305 0s6.2305-4.1523 6.2305 0"/>
 <path d="m51.906 496.68c0 4.1562-6.2305 4.1562-6.2305 0 0-4.1523 6.2305-4.1523 6.2305 0"/>
</svg>