<svg xmlns="http://www.w3.org/2000/svg" xmlns:xlink="http://www.w3.org/1999/xlink" version="1.1" x="0px" y="0px" viewBox="0 0 100 125" style="enable-background:new 0 0 100 100;" xml:space="preserve"><path d="M38,97.1h-1.7c-0.1,0-0.2-0.1-0.2-0.2l0-41.1h0.5v40.9H38c0.1,0,0.2,0.1,0.2,0.2C38.3,97,38.1,97.1,38,97.1  z"/><path d="M63.7,97.1H62c-0.1,0-0.2-0.1-0.2-0.2c0-0.1,0.1-0.2,0.2-0.2h1.5l0-40.9c0-0.1,0.1-0.2,0.2-0.2  c0.1,0,0.2,0.1,0.2,0.2v41.1C63.9,97,63.8,97.1,63.7,97.1z"/><g><path d="M65.7,44H34.3V31.5h31.3V44z M34.8,43.5h30.3V32H34.8V43.5z"/></g><g><rect x="34.6" y="33" width="30.8" height="0.5"/></g><g><rect x="34.6" y="34.6" width="30.8" height="0.5"/></g><g><rect x="34.6" y="36" width="30.8" height="0.5"/></g><g><rect x="34.6" y="37.5" width="30.8" height="0.5"/></g><g><rect x="34.6" y="38.9" width="30.8" height="0.5"/></g><g><rect x="34.6" y="40.5" width="30.8" height="0.5"/></g><g><rect x="34.6" y="42" width="30.8" height="0.5"/></g><g><path d="M65.7,56H34.3V43.5h31.3V56z M34.8,55.5h30.3V44H34.8V55.5z"/></g><g><rect x="34.6" y="45" width="30.8" height="0.5"/></g><g><rect x="34.6" y="46.5" width="30.8" height="0.5"/></g><g><rect x="34.6" y="48" width="30.8" height="0.5"/></g><g><rect x="34.6" y="49.5" width="30.8" height="0.5"/></g><g><rect x="34.6" y="50.9" width="30.8" height="0.5"/></g><g><rect x="34.6" y="52.5" width="30.8" height="0.5"/></g><g><rect x="34.6" y="54" width="30.8" height="0.5"/></g><path d="M63.7,59.4H36.3c-0.1,0-0.2-0.1-0.2-0.2v-3.4c0-0.1,0.1-0.2,0.2-0.2h27.4c0.1,0,0.2,0.1,0.2,0.2v3.4  C63.9,59.3,63.8,59.4,63.7,59.4z M36.5,58.9h26.9V56H36.5V58.9z"/><path d="M62,99.3H38c-0.1,0-0.2-0.1-0.2-0.2V84.2c0-0.1,0.1-0.2,0.2-0.2h24c0.1,0,0.2,0.1,0.2,0.2V99  C62.2,99.2,62.1,99.3,62,99.3z M38.3,98.8h23.5V84.4H38.3V98.8z"/><path d="M58.6,97.1H41.4c-0.1,0-0.2-0.1-0.2-0.2c0-0.1,0.1-0.2,0.2-0.2h17.1c0.1,0,0.2,0.1,0.2,0.2  C58.8,97,58.7,97.1,58.6,97.1z"/><path d="M58.6,95.7H41.4c-0.1,0-0.2-0.1-0.2-0.2s0.1-0.2,0.2-0.2h17.1c0.1,0,0.2,0.1,0.2,0.2S58.7,95.7,58.6,95.7z"/><path d="M58.6,93H41.4c-0.1,0-0.2-0.1-0.2-0.2s0.1-0.2,0.2-0.2h17.1c0.1,0,0.2,0.1,0.2,0.2S58.7,93,58.6,93z"/><path d="M58.6,94.4H41.4c-0.1,0-0.2-0.1-0.2-0.2c0-0.1,0.1-0.2,0.2-0.2h17.1c0.1,0,0.2,0.1,0.2,0.2  C58.8,94.3,58.7,94.4,58.6,94.4z"/><path d="M43.1,81.9c-2,0-3.7-1.6-3.7-3.7c0-2,1.6-3.7,3.7-3.7c2,0,3.7,1.6,3.7,3.7C46.8,80.3,45.2,81.9,43.1,81.9z   M43.1,75.1c-1.8,0-3.2,1.4-3.2,3.2s1.4,3.2,3.2,3.2c1.8,0,3.2-1.4,3.2-3.2S44.9,75.1,43.1,75.1z"/><path d="M56.9,81.9c-2,0-3.7-1.6-3.7-3.7c0-2,1.6-3.7,3.7-3.7c2,0,3.7,1.6,3.7,3.7C60.5,80.3,58.9,81.9,56.9,81.9z   M56.9,75.1c-1.8,0-3.2,1.4-3.2,3.2s1.4,3.2,3.2,3.2c1.8,0,3.2-1.4,3.2-3.2S58.6,75.1,56.9,75.1z"/><path d="M60.3,71.6H39.7c-0.1,0-0.2-0.1-0.2-0.2V68c0-0.1,0.1-0.2,0.2-0.2h20.6c0.1,0,0.2,0.1,0.2,0.2v3.4  C60.5,71.5,60.4,71.6,60.3,71.6z M40,71.2H60v-2.9H40V71.2z"/><path d="M56.9,71.6H50c-0.1,0-0.2-0.1-0.2-0.2V68c0-0.1,0.1-0.2,0.2-0.2h6.9c0.1,0,0.2,0.1,0.2,0.2v3.4  C57.1,71.5,57,71.6,56.9,71.6z M50.2,71.2h6.4v-2.9h-6.4V71.2z"/><path d="M58.6,64.8H41.4c-1.1,0-2-0.9-2-2s0.9-2,2-2h17.1c1.1,0,2,0.9,2,2S59.6,64.8,58.6,64.8z M41.4,61.4  c-0.8,0-1.5,0.7-1.5,1.5c0,0.8,0.7,1.5,1.5,1.5h17.1c0.8,0,1.5-0.7,1.5-1.5c0-0.8-0.7-1.5-1.5-1.5H41.4z"/><path d="M44.9,64.8c-1.1,0-2-0.9-2-2s0.9-2,2-2c1.1,0,2,0.9,2,2S45.9,64.8,44.9,64.8z M44.9,61.4  c-0.8,0-1.5,0.7-1.5,1.5c0,0.8,0.7,1.5,1.5,1.5c0.8,0,1.5-0.7,1.5-1.5C46.3,62,45.7,61.4,44.9,61.4z"/><path d="M55.1,64.8c-1.1,0-2-0.9-2-2s0.9-2,2-2c1.1,0,2,0.9,2,2S56.2,64.8,55.1,64.8z M55.1,61.4  c-0.8,0-1.5,0.7-1.5,1.5c0,0.8,0.7,1.5,1.5,1.5c0.8,0,1.5-0.7,1.5-1.5C56.6,62,55.9,61.4,55.1,61.4z"/><path d="M50,64.8c-1.1,0-2-0.9-2-2s0.9-2,2-2c1.1,0,2,0.9,2,2S51.1,64.8,50,64.8z M50,61.4c-0.8,0-1.5,0.7-1.5,1.5  c0,0.8,0.7,1.5,1.5,1.5c0.8,0,1.5-0.7,1.5-1.5C51.5,62,50.8,61.4,50,61.4z"/><path d="M65.4,90.5h-1.7c-0.1,0-0.2-0.1-0.2-0.2v-3.4c0-0.1,0.1-0.2,0.2-0.2h1.7c0.1,0,0.2,0.1,0.2,0.2v3.4  C65.7,90.4,65.5,90.5,65.4,90.5z M63.9,90h1.2v-2.9h-1.2V90z"/><path d="M65.4,79.9h-1.7c-0.1,0-0.2-0.1-0.2-0.2v-3.4c0-0.1,0.1-0.2,0.2-0.2h1.7c0.1,0,0.2,0.1,0.2,0.2v3.4  C65.7,79.8,65.5,79.9,65.4,79.9z M63.9,79.4h1.2v-2.9h-1.2V79.4z"/><path d="M63.7,32l-27.4,0c-0.1,0-0.2-0.1-0.2-0.2v-6.8c0-0.1,0.1-0.2,0.2-0.2H50c0.1,0,0.1,0,0.2,0.1l3.4,3.4h10.2  c0.1,0,0.2,0.1,0.2,0.2v3.4c0,0.1,0,0.1-0.1,0.2C63.8,32,63.8,32,63.7,32z M36.5,31.5l26.9,0v-2.9h-10c-0.1,0-0.1,0-0.2-0.1  l-3.4-3.4H36.5V31.5z"/><path d="M62.4,28.6h-1.7c-0.1,0-0.2-0.1-0.2-0.2v-24c0-0.1,0.1-0.2,0.2-0.2h1.7c0.1,0,0.2,0.1,0.2,0.2v24  C62.6,28.5,62.5,28.6,62.4,28.6z M60.9,28.1h1.2V4.6h-1.2V28.1z"/><path d="M62.4,4.6h-1.7c-0.1,0-0.2-0.1-0.2-0.2V2.7c0-0.1,0.1-0.2,0.2-0.2h1.7c0.1,0,0.2,0.1,0.2,0.2v1.7  C62.6,4.5,62.5,4.6,62.4,4.6z M60.9,4.1h1.2V2.9h-1.2V4.1z"/><path d="M62.9,2.9h-2.8c-0.1,0-0.2-0.1-0.2-0.2V1c0-0.1,0.1-0.2,0.2-0.2h2.8c0.1,0,0.2,0.1,0.2,0.2v1.7  C63.2,2.8,63,2.9,62.9,2.9z M60.3,2.4h2.3V1.2h-2.3V2.4z"/><path d="M62.9,1v1.7h-0.5v25.7h1.3v3.4l1.7,0v24h-1.7l0,20.5h1.7v3.4h-1.7l0,7.3h1.7v3.4h-1.7l0,6.6H62V99H38v-2.2  h-1.7l0-41.1h-1.7v-24l1.7,0v-6.8H50l3.4,3.4h7.2V2.7h-0.5V1H62.9 M62.9,0h-2.8c-0.5,0-1,0.4-1,1v1.7c0,0.4,0.2,0.7,0.5,0.9v23.8  h-5.9l-3.1-3.1C50.5,24.1,50.3,24,50,24H36.3c-0.5,0-1,0.4-1,1v5.9l-0.7,0c-0.5,0-1,0.4-1,1v24c0,0.5,0.4,1,1,1h0.7l0,40.1  c0,0.5,0.4,1,1,1H37V99c0,0.5,0.4,1,1,1h24c0.5,0,1-0.4,1-1v-1.2h0.7c0.5,0,1-0.4,1-1l0-5.7h0.7c0.5,0,1-0.4,1-1v-3.4  c0-0.5-0.4-1-1-1h-0.7l0-5.3h0.7c0.5,0,1-0.4,1-1v-3.4c0-0.5-0.4-1-1-1h-0.7l0-18.5h0.7c0.5,0,1-0.4,1-1v-24c0-0.3-0.1-0.5-0.3-0.7  c-0.2-0.2-0.4-0.3-0.7-0.3c0,0,0,0,0,0l-0.7,0v-2.5c0-0.5-0.4-1-1-1h-0.4V3.6c0.3-0.2,0.5-0.5,0.5-0.9V1C63.9,0.4,63.4,0,62.9,0  L62.9,0z"/><text x="0" y="115" fill="#000000" font-size="5px" font-weight="bold" font-family="'Helvetica Neue', Helvetica, Arial-Unicode, Arial, Sans-serif">Created by Irene Merino</text><text x="0" y="120" fill="#000000" font-size="5px" font-weight="bold" font-family="'Helvetica Neue', Helvetica, Arial-Unicode, Arial, Sans-serif">from the Noun Project</text></svg>